<?xml version="1.0" standalone="no"?>
<!DOCTYPE svg PUBLIC "-//W3C//DTD SVG 1.1//EN" "http://www.w3.org/Graphics/SVG/1.1/DTD/svg11.dtd" >
<svg xmlns="http://www.w3.org/2000/svg" xmlns:xlink="http://www.w3.org/1999/xlink" version="1.1">
<metadata>
Created by FontForge 20190801 at Sat Apr 18 16:47:37 2020
 By Unknown
Borshon RRR Unicode (c) All Rights Reserved by Lipighor Font Foundry
</metadata>
<defs>
<font id="BorshonRRRUnicode" horiz-adv-x="0" >
  <font-face 
    font-family="Borshon RRR Unicode"
    font-weight="700"
    font-stretch="normal"
    units-per-em="1000"
    panose-1="2 0 5 6 0 0 0 2 0 3"
    ascent="800"
    descent="-200"
    x-height="367"
    cap-height="485"
    bbox="-420 -273 795 692"
    underline-thickness="50"
    underline-position="-100"
    unicode-range="U+0020-25CC"
  />
<missing-glyph horiz-adv-x="599" 
d="M408 411v-27l81 27h67v-386h-69l-16 93v209l-63 -21v-70h-81v91l-60 -20v-207h60v71h81v-146h-226v330l162 56h64zM476 486l-232 -16l-98 -30v-415h-90v475l222 65h278v-125h-80v46z" />
    <glyph glyph-name=".notdef" horiz-adv-x="599" 
d="M408 411v-27l81 27h67v-386h-69l-16 93v209l-63 -21v-70h-81v91l-60 -20v-207h60v71h81v-146h-226v330l162 56h64zM476 486l-232 -16l-98 -30v-415h-90v475l222 65h278v-125h-80v46z" />
    <glyph glyph-name=".null" horiz-adv-x="1" 
 />
    <glyph glyph-name=".null" horiz-adv-x="1" 
 />
    <glyph glyph-name="nonmarkingreturn" horiz-adv-x="1" 
 />
    <glyph glyph-name="space" unicode=" " horiz-adv-x="217" 
 />
    <glyph glyph-name="exclam" unicode="!" horiz-adv-x="175" 
d="M117 154h-42v329h50zM75 98h50v-75h-57z" />
    <glyph glyph-name="quotedbl" unicode="&#x22;" horiz-adv-x="275" 
d="M-13 326l57 200l76 -22l-66 -162zM127 326l57 200l76 -22l-66 -162z" />
    <glyph glyph-name="numbersign" unicode="#" horiz-adv-x="401" 
d="M365 326h-48l-12 -94h60v-57h-67l-9 -75h-57l10 75h-107l-9 -68h-57l9 68h-43v57h50l12 94h-62v56h69l6 52h57l-6 -52h106l6 45h57l-6 -45h41v-56zM249 232l11 94h-106l-12 -94h107z" />
    <glyph glyph-name="percent" unicode="%" horiz-adv-x="555" 
d="M155 262h-36q-36 0 -61.5 25.5t-25.5 61.5v56q0 36 25.5 61t61.5 25h36q36 0 61 -25t25 -61v-56q0 -36 -25 -61.5t-61 -25.5zM88 349q0 -13 9 -22t22 -9h36q12 0 21 9t9 22v56q0 12 -9 21t-21 9h-36q-13 0 -22 -9t-9 -21v-56zM431 233q36 0 61.5 -25.5t25.5 -61.5v-56
q0 -36 -25.5 -61.5t-61.5 -25.5h-36q-36 0 -61.5 25.5t-25.5 61.5v56q0 36 25.5 61.5t61.5 25.5h36zM461 90v56q0 12 -9 21t-21 9h-36q-13 0 -21.5 -9t-8.5 -21v-56q0 -12 8.5 -21t21.5 -9h36q12 0 21 9t9 21zM380 498h65l-285 -493h-65z" />
    <glyph glyph-name="quotesingle" unicode="'" horiz-adv-x="123" 
d="M80 512q29 -34 29 -69q0 -37 -29 -69l-39 -38l-43 43l38 39q11 11 11 25q0 12 -11 25z" />
    <glyph glyph-name="parenleft" unicode="(" horiz-adv-x="165" 
d="M156 -119q-57 24 -90 73t-33 109v345q0 57 29 104t80 73l26 -50q-78 -47 -78 -127v-345q0 -43 23.5 -78t63.5 -52l-21 -52v0z" />
    <glyph glyph-name="parenright" unicode=")" horiz-adv-x="165" 
d="M-11 -68q78 46 78 126v345q0 43 -23.5 78t-63.5 53l21 52q57 -24 90 -73.5t33 -109.5v-345q0 -57 -29.5 -103.5t-80.5 -73.5z" />
    <glyph glyph-name="asterisk" unicode="*" horiz-adv-x="315" 
d="M292 335q-4 -5 -24 -22.5t-50 -32.5q17 -22 31.5 -34.5t16.5 -13.5l-31 -47q-4 2 -27 22t-47 57q-27 -35 -51.5 -54t-27.5 -20l-29 49q1 0 16.5 11.5t35.5 33.5q-30 14 -49 30t-23 20l40 40q8 -8 25 -21t38 -22l5 75h42l5 -77q20 8 37.5 21.5t24.5 22.5z" />
    <glyph glyph-name="plus" unicode="+" horiz-adv-x="391" 
d="M363 316v-57h-137v-136h-56v136h-137v57h137v136h56v-136h137z" />
    <glyph glyph-name="comma" unicode="," horiz-adv-x="100" 
d="M-7 -48l8 6q8 5 17 14.5t16.5 21.5t7.5 26q0 7 -3 15l53 20q6 -20 6 -37q0 -19 -7.5 -36.5t-19 -32.5t-24.5 -26.5t-24 -18.5z" />
    <glyph glyph-name="hyphenminus" unicode="-" horiz-adv-x="248" 
d="M33 220v57h188v-57h-188z" />
    <glyph glyph-name="period" unicode="." horiz-adv-x="103" 
d="M23 76l56 7v-75l-56 7v61z" />
    <glyph glyph-name="slash" unicode="/" horiz-adv-x="236" 
d="M-2 -25l176 493h60l-176 -493h-60z" />
    <glyph glyph-name="colon" unicode=":" horiz-adv-x="125" 
d="M31 349l56 7v-75l-56 7v61zM31 83v61l56 7v-75z" />
    <glyph glyph-name="semicolon" unicode=";" horiz-adv-x="145" 
d="M105 171q6 -20 6 -37q0 -18 -7.5 -35.5t-19 -32.5t-25 -27t-24.5 -18l-30 48q1 0 9 5.5t17 15t16 22t7 27.5q0 3 -0.5 6t-1.5 7zM104 281h-43l-7 75h57z" />
    <glyph glyph-name="less" unicode="&#x3c;" horiz-adv-x="365" 
d="M349 373l-250 -129l248 -118l-25 -50l-289 148v50l290 149z" />
    <glyph glyph-name="equal" unicode="=" horiz-adv-x="332" 
d="M33 331h274v-57h-274v57zM33 134v57h274v-57h-274z" />
    <glyph glyph-name="greater" unicode="&#x3e;" horiz-adv-x="387" 
d="M64 423l288 -149v-50l-290 -148l-26 50l252 118l-250 129z" />
    <glyph glyph-name="question" unicode="?" horiz-adv-x="287" 
d="M84 80h42l7 -75h-56zM106 485q31 -1 59 -13t48.5 -33t32.5 -48.5t12 -58.5q0 -29 -9.5 -54t-26.5 -45t-40.5 -33.5t-51.5 -18.5l-4 -67h-42v122h32q37 5 61.5 32t24.5 64q0 40 -27 67.5t-69 29.5q-7 -1 -12 -6t-5 -12v-29q0 -6 5 -11t12 -5l31 -7v-42l-31 -7
q-31 0 -52 21t-21 51v29q0 31 20.5 52.5t52.5 21.5z" />
    <glyph glyph-name="at" unicode="@" horiz-adv-x="605" 
d="M565 245q0 -36 -8.5 -67t-24 -53.5t-37.5 -35.5t-48 -13t-45 14t-26 38h-4q-31 -52 -93 -52q-54 0 -84.5 34.5t-30.5 94.5q0 69 40.5 111t109.5 42q25 0 55.5 -4.5t54.5 -12.5l-8 -162q0 -53 35 -53q26 0 41 34t15 86q0 43 -13.5 78t-38 59.5t-58.5 38t-76 13.5
q-53 0 -95 -17t-71.5 -48t-45 -75t-15.5 -98q0 -97 50 -148.5t147 -51.5q71 0 151 30v-54q-72 -29 -150 -29q-126 0 -192 67t-66 188q0 65 22 118.5t60 91.5t90.5 58.5t114.5 20.5q54 0 98.5 -17.5t77 -49t50.5 -76.5t18 -100zM227 203q0 -77 60 -77q66 0 70 97l4 79
q-21 6 -45 6q-42 0 -65.5 -28t-23.5 -77z" />
    <glyph glyph-name="bracketleft" unicode="[" horiz-adv-x="208" 
d="M115 -127q-34 0 -57.5 24t-23.5 57v571q0 34 23.5 57.5t57.5 23.5l109 -7v-42l-109 -7q-10 -1 -17.5 -7.5t-7.5 -17.5v-571q0 -11 7.5 -17.5t17.5 -7.5l127 -7v-42z" />
    <glyph glyph-name="backslash" unicode="\" horiz-adv-x="297" 
d="M2 498h62l234 -493h-62z" />
    <glyph glyph-name="bracketright" unicode="]" horiz-adv-x="217" 
d="M1 -120v42l109 7q10 1 17.5 7.5t7.5 17.5v571q0 10 -7.5 17t-17.5 8l-127 7v42l127 7q34 0 57.5 -23.5t23.5 -57.5v-571q0 -33 -23.5 -57t-57.5 -24z" />
    <glyph glyph-name="underscore" unicode="_" horiz-adv-x="426" 
d="M41 73h354v-69h-354v69z" />
    <glyph glyph-name="grave" unicode="`" horiz-adv-x="133" 
d="M131 349l-66 15l-67 162l77 22z" />
    <glyph glyph-name="braceleft" unicode="{" horiz-adv-x="225" 
d="M168 75q0 -43 23.5 -81.5t63.5 -55.5v-49q-29 12 -55 31t-45.5 43.5t-31.5 53t-12 58.5v19q0 79 -78 126v50q78 46 78 126v24q0 28 11.5 55.5t30 51.5t43 44t50.5 33v-50q-37 -20 -57.5 -56t-20.5 -78v-26q-2 -45 -28.5 -83t-65.5 -66q39 -28 65.5 -66t28.5 -83v-21z" />
    <glyph glyph-name="bar" unicode="|" horiz-adv-x="165" 
d="M33 -89v677h56v-677h-56z" />
    <glyph glyph-name="braceright" unicode="}" horiz-adv-x="226" 
d="M117 399q0 -80 78 -126v-50q-78 -47 -78 -126v-24q0 -29 -11.5 -56.5t-30.5 -51.5t-43.5 -43.5t-49.5 -32.5v50q37 20 57.5 56t20.5 78v26q2 45 28.5 83t65.5 66q-39 28 -65.5 66t-28.5 83v21q0 43 -23.5 81.5t-63.5 55.5v49q27 -12 53 -31t46.5 -44t32.5 -53t12 -58v-19
z" />
    <glyph glyph-name="periodcentered" unicode="&#xb7;" horiz-adv-x="267" 
d="M97 268q0 22 15 37t37 15q21 0 36 -15t15 -37q0 -21 -15 -36t-36 -15q-22 0 -37 15t-15 36z" />
    <glyph glyph-name="multiply" unicode="&#xd7;" horiz-adv-x="340" 
d="M310 379l-103 -134l103 -134l-44 -34l-95 122l-94 -122l-44 34l103 134l-103 134l44 35l94 -122l95 122z" />
    <glyph glyph-name="divide" unicode="&#xf7;" horiz-adv-x="273" 
d="M74 390q0 27 18.5 46t45.5 19q26 0 45 -19t19 -46q0 -26 -19 -45t-45 -19q-27 0 -45.5 19t-18.5 45zM74 119q0 27 18.5 46t45.5 19q26 0 45 -19t19 -46t-19 -45.5t-45 -18.5q-27 0 -45.5 18.5t-18.5 45.5zM23 285h221v-64h-221v64z" />
    <glyph glyph-name="quoteleft" unicode="&#x2018;" horiz-adv-x="138" 
d="M135 382q-5 -1 -10 -1.5t-10 -0.5q-35 0 -60 20.5t-35 57.5l-11 53l61 12l11 -53q3 -14 12.5 -21t22.5 -8q2 0 3.5 0.5t3.5 0.5z" />
    <glyph glyph-name="quoteright" unicode="&#x2019;" horiz-adv-x="124" 
d="M68 380l-37 49q14 12 14 28q0 12 -7 22l-32 44l49 37l33 -44q11 -14 15 -29.5t4 -29.5q0 -46 -39 -77z" />
    <glyph glyph-name="quotedblleft" unicode="&#x201c;" horiz-adv-x="262" 
d="M135 382q-5 -1 -10 -1.5t-10 -0.5q-35 0 -60 20.5t-35 57.5l-11 53l61 12l11 -53q3 -14 12.5 -21t22.5 -8q2 0 3.5 0.5t3.5 0.5zM255 382q-5 -1 -10 -1.5t-10 -0.5q-35 0 -60 20.5t-35 57.5l-11 53l61 12l11 -53q3 -14 12.5 -21t22.5 -8q2 0 3.5 0.5t3.5 0.5z" />
    <glyph glyph-name="quotedblright" unicode="&#x201d;" horiz-adv-x="231" 
d="M68 380l-37 49q14 12 14 28q0 12 -7 22l-32 44l49 37l33 -44q11 -14 15 -29.5t4 -29.5q0 -46 -39 -77zM168 380l-37 49q14 12 14 28q0 12 -7 22l-32 44l49 37l33 -44q11 -14 15 -29.5t4 -29.5q0 -46 -39 -77z" />
    <glyph glyph-name="signcandrabinducomb-beng" unicode="&#x981;" 
d="M5 612h56q0 -19 -8 -36t-22.5 -29.5t-33.5 -19.5t-40 -7h-28q-21 0 -40 7t-33.5 19.5t-22.5 29.5t-8 36h56q0 -15 14 -25t34 -10h28q19 0 33.5 10t14.5 25zM-36 593h-42l-7 42h56z" />
    <glyph glyph-name="signanusvara-beng" unicode="&#x982;" horiz-adv-x="278" 
d="M120 252q-36 0 -61.5 25.5t-25.5 61.5v55q0 36 25.5 61.5t61.5 25.5h36q36 0 61.5 -25.5t25.5 -61.5v-55q0 -36 -25.5 -61.5t-61.5 -25.5h-36zM90 394v-55q0 -13 9 -22t21 -9h36q13 0 22 9t9 22v55q0 13 -9 22t-22 9h-36q-12 0 -21 -9t-9 -22zM183 183q22 -19 43.5 -44
t39 -48t28.5 -40t12 -19l-48 -30q0 1 -10.5 16t-26.5 36.5t-35.5 44.5t-38.5 40q-20 15 -37.5 25t-31.5 16q-16 7 -29 10l1 42h8q16 0 50.5 -9t74.5 -40z" />
    <glyph glyph-name="signvisarga-beng" unicode="&#x983;" horiz-adv-x="269" 
d="M156 493q36 0 61.5 -25.5t25.5 -61.5v-55q0 -36 -25.5 -61.5t-61.5 -25.5h-36q-36 0 -61.5 25.5t-25.5 61.5v55q0 36 25.5 61.5t61.5 25.5h36zM186 351v55q0 13 -9 22t-21 9h-36q-13 0 -21.5 -9t-8.5 -22v-55q0 -13 8.5 -22t21.5 -9h36q12 0 21 9t9 22zM156 232
q36 0 61.5 -25.5t25.5 -61.5v-55q0 -36 -25.5 -61.5t-61.5 -25.5h-36q-36 0 -61.5 25.5t-25.5 61.5v55q0 36 25.5 61.5t61.5 25.5h36zM186 90v55q0 13 -9 22t-21 9h-36q-13 0 -21.5 -9t-8.5 -22v-55q0 -13 8.5 -22t21.5 -9h36q12 0 21 9t9 22z" />
    <glyph glyph-name="a-beng" unicode="&#x985;" horiz-adv-x="555" 
d="M563 437h-41v-442h-56v46l-80 58q-62 -93 -166 -93q-40 0 -74 15.5t-59 42t-39.5 61.5t-14.5 75h43q0 -29 12 -54t31.5 -44t45.5 -29.5t55 -10.5q28 0 53 11t44 29.5t30 43.5t11 54q0 27 -10.5 51.5t-29.5 43.5t-44 30.5t-53 11.5q-13 0 -22 -9.5t-9 -22.5v-39
q0 -12 9 -21t22 -9l99 -7v-43l-99 -7q-36 0 -62 25.5t-26 61.5v39q0 36 25 61.5t62 27.5h3q40 -2 74.5 -17.5t60.5 -41.5t41 -60.5t15 -74.5q0 -27 -6 -49l58 -49v335h-472v56h569v-56z" />
    <glyph glyph-name="aa-beng" unicode="&#x986;" horiz-adv-x="710" 
d="M713 437h-36v-442h-56v416q-3 11 -12 18.5t-20 7.5h-66v-442h-56v46l-80 58q-62 -93 -166 -93q-40 0 -74 15.5t-59 42t-39.5 61.5t-14.5 75h42q0 -29 12 -53.5t32.5 -43.5t46.5 -29.5t54 -10.5t53 11t44 29.5t30 43.5t11 53t-10.5 53t-29.5 43.5t-44 29.5t-53 12
q-13 -1 -22 -10t-9 -22v-39q0 -13 9 -22t22 -9l99 -7v-42l-99 -7q-37 0 -62.5 25.5t-25.5 61.5v39q0 36 25 61.5t62 26.5h3q40 -2 74.5 -17.5t60.5 -41.5t41 -60.5t15 -74.5q0 -25 -6 -49l58 -48v334h-473v56h595q17 0 32 -6v66h56v-60h36v-56z" />
    <glyph glyph-name="i-beng" unicode="&#x987;" horiz-adv-x="303" 
d="M247 64q4 -3 12 -3t11 5l37 -21q-8 -18 -20 -28t-34 -10q-17 0 -32 7l-10 5h1l-148 88q-25 14 -45 34l28 28q28 -26 65 -26q19 0 37.5 7t33.5 20.5t24.5 32.5t9.5 44q0 19 -7.5 35.5t-20.5 29t-30.5 20t-36.5 7.5q-8 0 -12.5 -5t-4.5 -11v-30q0 -7 4.5 -12t11.5 -5l74 -7
v-41l-74 -7q-29 0 -50.5 21.5t-21.5 50.5v30q0 29 20.5 49.5t50.5 22.5h2q36 -2 63.5 -15t46.5 -33t28.5 -45.5t9.5 -52.5q0 -23 -5 -45t-16.5 -42t-30 -36t-45.5 -25l65 -33v1zM290 493h16v-56h-309v56h242l2 8q0 11 -11 18t-22 7h-124q-31 0 -52.5 22t-21.5 53t21.5 49
t52.5 18v-35q-8 0 -13.5 -12t-5.5 -20q0 -19 19 -19h124q33 0 57.5 -24t24.5 -57v-8z" />
    <glyph glyph-name="ii-beng" unicode="&#x988;" horiz-adv-x="433" 
d="M400 64q0 -13 13 -13v-48q-33 0 -51 16t-18 45l6 205l-115 -121q-22 -23 -52 -38.5t-65 -15.5q-28 0 -54 14t-48 37l27 28q28 -27 66 -27q32 0 62 20t41 53l2 9q2 3 2 9v9q0 1 -2 14q-2 15 -12 33t-29.5 34t-53.5 18q-6 -1 -11 -6t-5 -12v-29q0 -7 5 -12t10 -5l76 -7v-42
l-76 -7q-29 0 -50.5 21.5t-21.5 51.5v29q0 31 21 52t51 22h1q33 -1 60 -13.5t47 -32t32 -44.5t14 -51l94 94l34 -32v-258zM413 493h23v-56h-439v56h365l2 9q0 11 -11.5 18.5t-22.5 7.5h-210q-30 0 -52 22t-22 53t22 49.5t52 18.5v-36q-7 0 -12 -12t-5 -20q0 -7 5.5 -12.5
t11.5 -5.5h210q18 0 33 -6.5t26 -18t17.5 -26.5t6.5 -32v-9z" />
    <glyph glyph-name="u-beng" unicode="&#x989;" horiz-adv-x="456" 
d="M461 437h-253v-110q0 -20 15 -35t35 -15h24q21 0 36 15.5t15 35.5l56 1l2 1l18 -45q14 -37 14 -74q0 -41 -16 -77.5t-43 -63.5t-63 -42.5t-76 -15.5q-44 0 -79 16t-60.5 43t-39 62.5t-13.5 74.5q0 18 3 36h36q-1 -5 -1 -10v-10q0 -31 13 -59t34.5 -49.5t49.5 -34.5
t59 -13q28 0 53 11.5t44.5 30.5t31 44.5t11.5 53.5q0 25 -7 47q-32 -33 -78 -33h-24q-45 0 -75 30t-30 75v110h-160v56h344v9q0 11 -8 18.5t-19 7.5h-213q-31 0 -52.5 21.5t-21.5 53.5q0 31 21.5 52.5t52.5 21.5v-49q-7 0 -12.5 -9t-5.5 -16q0 -8 5.5 -13.5t12.5 -5.5h213
q35 0 58.5 -24t23.5 -58v-9h69v-56z" />
    <glyph glyph-name="uu-beng" unicode="&#x98a;" horiz-adv-x="547" 
d="M550 437h-251v-111q0 -21 14.5 -35t34.5 -14h25q21 0 36 14.5t15 36.5l56 1l2 1l18 -46q14 -37 14 -74q0 -42 -16.5 -78t-43.5 -62.5t-63 -42t-75 -15.5q-17 0 -33.5 3t-33.5 8q-5 -1 -11 -1h-10q-38 0 -73 14.5t-62 40t-43 59.5t-16 74q0 33 12 69h37q-2 -8 -3 -16.5
t-1 -16.5q0 -44 20.5 -85.5t55.5 -61.5q-32 50 -32 110q0 17 3 35l37 -1q-1 -5 -1 -10v-10q0 -30 12.5 -57.5t33.5 -49.5t48.5 -35t58.5 -13q28 0 54 11t45.5 30t31 45t11.5 56q0 11 -2 22.5t-5 22.5q-31 -34 -77 -34h-25q-21 0 -40.5 8.5t-33.5 22.5t-22.5 33.5t-8.5 40.5
v111h-248v56h446l1 9q0 10 -10.5 17.5t-21.5 7.5h-267q-31 0 -52.5 22t-21.5 53q0 30 21.5 52t52.5 22v-49q-7 0 -13 -8.5t-6 -16.5q0 -7 6 -12.5t13 -5.5h267q16 0 31 -6.5t26.5 -18t18 -26.5t6.5 -31v-9h58v-56z" />
    <glyph glyph-name="vocalicr-beng" unicode="&#x98b;" horiz-adv-x="485" 
d="M490 493v-56h-38v-355h-57v40l-62 46v-160h-57v12l-243 82h1v183l83 28q-18 11 -37.5 30.5t-19.5 49.5q0 14 5.5 28.5t17.5 26.5l23 23q23 23 54 23t56 -23l9 -17v-64l-49 42q-8 5 -15 5q-8 0 -15 -5l-23 -23q-7 -7 -7 -16q0 -11 9.5 -20t22.5 -15t27.5 -9t23.5 -3
q15 0 30 3l47 16v128h57v-256l62 -45v301h95zM89 142l187 -62v227l-29 -10l-158 -53v-102z" />
    <glyph glyph-name="e-beng" unicode="&#x98f;" horiz-adv-x="474" 
d="M441 271v-271h-56v17l-277 60q-34 8 -54.5 34t-20.5 59q0 5 0.5 10t1.5 10l16 42h44l-5 -54q-2 -8 -2 -10q0 -14 9 -23.5t23 -13.5l265 -56v201q-2 31 -14.5 59t-33.5 49t-49 33.5t-61 12.5q-17 0 -28.5 -11.5t-11.5 -27.5v-45q0 -16 11.5 -27t27.5 -11l113 -7v-42
l-113 -7q-20 0 -37 7.5t-29.5 20.5t-20 30t-7.5 36v45q0 38 26 66t68 30h3q45 -2 83.5 -19.5t67 -46.5t45 -67.5t16.5 -82.5z" />
    <glyph glyph-name="ai-beng" unicode="&#x990;" horiz-adv-x="532" 
d="M417 581q34 0 58 -24.5t24 -57.5v-163q0 -55 -58 -79v-257h-55v18l-278 60q-33 7 -54 34t-21 59q0 5 0.5 9.5t1.5 9.5l17 43h43l-5 -54q-2 -8 -2 -10q0 -14 9 -23.5t23 -13.5l266 -56v201q-2 32 -14.5 59.5t-34 48.5t-49.5 33t-61 13q-17 -1 -28.5 -12.5t-11.5 -27.5v-44
q0 -16 11.5 -27.5t27.5 -11.5l113 -7v-42l-113 -7q-20 0 -37 7.5t-29.5 20.5t-20 30t-7.5 37v44q0 39 26.5 67t67.5 29h3q39 -1 72.5 -13.5t60.5 -35t46 -53t28 -67.5q7 7 7 18v163q0 10 -7.5 17.5t-18.5 7.5h-202q-31 0 -52.5 22t-21.5 53q0 30 21.5 48.5t52.5 18.5v-42
q-8 0 -13.5 -8.5t-5.5 -16.5q0 -7 5.5 -12.5t13.5 -5.5h202z" />
    <glyph glyph-name="o-beng" unicode="&#x993;" horiz-adv-x="461" 
d="M384 246q44 -32 44 -85v-49q0 -45 -30 -75t-75 -30h-34q-55 3 -102 25.5t-81.5 59.5t-54 86t-19.5 104h42q0 -46 18.5 -86t49.5 -70t72 -47t86 -17h23q21 0 35.5 15t14.5 35v49q0 20 -14 34.5t-34 14.5h-2q-3 -1 -9 -1l-53 8v41l53 7q11 0 19.5 8t8.5 20v12
q0 27 -10.5 51t-28.5 42t-42 28.5t-52 10.5q-13 0 -21 -8.5t-8 -21.5v-38q0 -12 8 -21t21 -9l96 -7v-41l-96 -7q-18 0 -33.5 6.5t-27 18t-18.5 27t-7 33.5v38q0 35 25 60t60 27h3q39 -2 72 -16.5t58 -39t39.5 -57.5t16.5 -72v-16q0 -27 -13 -47z" />
    <glyph glyph-name="au-beng" unicode="&#x994;" horiz-adv-x="501" 
d="M386 586q34 0 58 -24.5t24 -57.5v-142q-2 -31 -21.5 -51.5t-48.5 -25.5q-1 -21 -14 -38q44 -33 44 -85v-50q0 -21 -8.5 -40.5t-22.5 -34.5t-33 -23.5t-41 -7.5l-34 1q-56 4 -103.5 26.5t-81.5 59t-53 85t-19 104.5h42q0 -45 18.5 -85t49.5 -70t72 -47t87 -17h22
q20 0 35 14t15 35v50q0 20 -14.5 33.5t-34.5 13.5h-10l-53 7v42l53 7q11 0 19.5 8.5t8.5 19.5v11q0 28 -10 52t-28 42t-42.5 28.5t-52.5 11.5q-12 -1 -20.5 -10t-8.5 -20v-38q0 -13 8.5 -21.5t19.5 -8.5l98 -7v-41l-98 -8q-17 0 -32.5 6.5t-27 18.5t-18.5 27.5t-7 33.5v38
q0 35 24.5 60t60.5 26h3q70 -2 119.5 -44t64.5 -109q18 7 18 25v138q0 10 -8 17.5t-19 7.5h-201q-31 0 -53 22t-22 53q0 30 22 48.5t53 18.5v-42q-8 0 -13.5 -8.5t-5.5 -16.5q0 -7 5.5 -12.5t13.5 -5.5h201z" />
    <glyph glyph-name="ka-beng" unicode="&#x995;" horiz-adv-x="530" 
d="M533 437h-182v-28q7 1 14 1.5t14 0.5q61 0 111 -45l1 -1q22 -23 22 -53q-1 -15 -6.5 -29t-16.5 -25l-21 -21q-11 -11 -25 -16.5t-28 -5.5q-30 0 -53 22l-5 5l33 45l12 -10q6 -6 13 -6t13 6l22 21q5 7 5 14q0 10 -9 18t-21 13.5t-25 8t-21 2.5q-14 0 -29 -3v-356h-56v22
l-262 85v207l262 86v42h-297v56h535v-56zM89 143l206 -67v260l-206 -68v-125z" />
    <glyph glyph-name="kha-beng" unicode="&#x996;" horiz-adv-x="443" 
d="M445 437h-35v-442h-57v18l-254 81v56q28 3 51.5 15.5t39.5 32t25 44t9 51.5v16q0 9 -2 18q-45 -49 -110 -52h-2q-33 2 -55 24t-22 54v32q0 32 22.5 54.5t54.5 22.5l82 -7v-43l-82 -7q-9 0 -15 -6t-6 -14v-32q0 -9 6.5 -15t15.5 -7q28 0 49.5 12t38.5 35l31 40
q50 -65 50 -142q0 -48 -26 -87.5t-63 -64.5l162 -52v481h57v-60h35v-56z" />
    <glyph glyph-name="ga-beng" unicode="&#x997;" horiz-adv-x="336" 
d="M338 437h-35v-442h-56v312q0 25 -10 48.5t-27 41.5t-41 28.5t-51 10.5q-12 0 -20.5 -8.5t-8.5 -20.5v-37q0 -11 8.5 -19.5t19.5 -8.5q18 0 33.5 -7.5t26.5 -19.5t17.5 -27.5t6.5 -31.5v-36q0 -35 -24.5 -60t-59.5 -25l-48 7v42l48 7q11 0 19.5 8.5t8.5 20.5v36
q0 12 -8.5 21t-20.5 9h-1q-35 2 -58.5 26t-23.5 58v37q0 35 24 59.5t60 26.5h2q75 -3 128 -53v111h56v-58h35v-56z" />
    <glyph glyph-name="gha-beng" unicode="&#x998;" horiz-adv-x="397" 
d="M399 437h-35v-442h-56v19l-245 87v63l70 69q-45 11 -72.5 46.5t-27.5 81.5q0 43 24 76h-59v56h401v-56zM308 74v363h-144q-31 0 -53 -22.5t-22 -53.5t22 -53.5t53 -22.5h13q13 0 24 4l21 -41l-112 -104z" />
    <glyph glyph-name="nga-beng" unicode="&#x999;" horiz-adv-x="460" 
d="M412 280q15 -38 15 -75q0 -44 -16.5 -80.5t-44.5 -62.5t-64.5 -41t-75.5 -15q-43 0 -78.5 16t-61 42.5t-39.5 62t-14 74.5q0 18 3 39h43q-1 -6 -1.5 -12t-0.5 -12q0 -30 11.5 -57.5t32 -49t47.5 -34.5t57 -13q28 0 54 10.5t46.5 29.5t32.5 45.5t12 58.5q0 11 -2 22.5
t-5 22.5q-32 -35 -79 -35h-24q-22 0 -41.5 8.5t-34 23t-23 34t-8.5 41.5v9q-74 27 -95 105h-61v56h115v-35q8 -47 48 -68q35 95 137 102h2q30 -1 49.5 -21.5t19.5 -49.5v-27q0 -29 -20.5 -49.5t-49.5 -20.5l-88 -1q0 -21 14.5 -35.5t35.5 -14.5h24q22 0 37 15t15 37l58 1
l18 -45v-1zM298 436q-59 -5 -81 -56h81q14 0 14 14v27q0 13 -14 15z" />
    <glyph glyph-name="ca-beng" unicode="&#x99a;" horiz-adv-x="367" 
d="M377 437h-252v-113l123 -40q39 -13 62.5 -45t23.5 -72q0 -42 -23.5 -74t-62.5 -44l-180 -56v444h-70v56h379v-56zM231 230l-106 34v-194l106 33q46 19 46 64q0 44 -46 63z" />
    <glyph glyph-name="cha-beng" unicode="&#x99b;" horiz-adv-x="364" 
d="M157 136q15 -7 34 -7q37 4 59.5 23t22.5 54q0 19 -8 45q-11 -55 -63 -71l-134 -43v300h-71v56h371v-56h-244v-55l82 -27l39 -14q17 -6 30 -17t24 -23l1 -1q17 -23 24 -43.5t7 -44.5q0 -42 -22.5 -75.5t-59.5 -50.5l57 -32l3 -1q4 0 8 4l50 -26q-23 -35 -57 -35
q-14 0 -30 8l-152 85l-12 6zM185 303l-69 20l8 -109l61 19q25 10 25 35t-25 35z" />
    <glyph glyph-name="ja-beng" unicode="&#x99c;" horiz-adv-x="543" 
d="M545 493v-56h-335v-43q24 15 54 15h93q31 0 59 -12t49 -33t33 -49t12 -59v-184q0 -5 2 -8t10 -5v-55q-29 0 -49 20t-20 50v182q0 42 -28 69.5t-68 27.5h-93q-19 0 -33.5 -12t-19.5 -30q5 -16 17.5 -26.5t30.5 -10.5h24q21 0 36 15t15 36l56 1l2 1l18 -46q7 -18 11 -35
t4 -36q0 -42 -16 -78.5t-43 -63.5t-63.5 -42.5t-77.5 -15.5q-38 0 -73 14.5t-61.5 39t-42 58.5t-15.5 73q0 11 1 22.5t4 22.5l41 -1q-1 -4 -1 -8v-8q0 -30 11.5 -58t31.5 -50.5t47 -36t58 -13.5q27 0 53 11t45.5 30t31.5 44.5t12 54.5q0 25 -7 46q-32 -32 -78 -32h-24
q-21 0 -40.5 8t-34 22.5t-23 33.5t-8.5 40v114h-159v56h551z" />
    <glyph glyph-name="jha-beng" unicode="&#x99d;" horiz-adv-x="496" 
d="M498 493v-56h-35v-373h-58v42l-54 39v-150h-56v19l-262 86v206l262 86v45h-299v56h355v-279l54 -39v384h58v-66h35zM90 140l205 -68v261l-205 -69v-124z" />
    <glyph glyph-name="nya-beng" unicode="&#x99e;" horiz-adv-x="684" 
d="M651 320v-36q0 -33 -21 -57q21 -23 21 -55v-37q0 -34 -24 -58.5t-59 -25.5h-2q-74 1 -125 52v-108h-57v22l-277 60q-32 8 -53 32.5t-21 59.5v10q0 6 2 11l15 42h45l-6 -54q-1 -3 -1 -8q0 -14 8.5 -24.5t22.5 -14.5l265 -56v201q-2 31 -14.5 59t-33.5 49t-49 33.5
t-60 12.5q-17 0 -29 -11.5t-12 -27.5v-44q0 -17 12 -28t28 -11l112 -7v-42l-112 -7q-20 0 -37.5 7.5t-30 20.5t-20 30t-7.5 37v44q0 38 27 65.5t67 29.5h3q72 -2 125 -41t76 -105q51 62 137 65h2q35 -1 59 -25.5t24 -59.5zM595 135v37q0 12 -8.5 20t-18.5 8l-48 7v42l48 7
q10 0 18.5 8t8.5 20v36q0 12 -8.5 20t-19.5 9q-54 -2 -88 -36t-38 -86q2 -25 12 -47t26.5 -38t38.5 -25.5t49 -9.5q11 0 19.5 8.5t8.5 19.5z" />
    <glyph glyph-name="tta-beng" unicode="&#x99f;" horiz-adv-x="350" 
d="M124 437v-367l106 33q47 20 47 64q0 21 -11 36t-33 26l-1 1h-1q-11 5 -23.5 8.5t-23.5 3.5q-2 0 -4.5 -0.5t-4.5 -0.5v41q22 5 38 5q9 0 17.5 -1t17.5 -3h1q21 -4 36.5 -17t26 -29.5t16 -35t5.5 -34.5q0 -42 -23.5 -74t-62.5 -44l-179 -56v444h-71v56h299v2
q0 11 -7.5 18.5t-18.5 7.5h-159q-31 0 -53 22t-22 53t22 49.5t53 18.5v-42q-8 0 -13.5 -9t-5.5 -17q0 -7 5.5 -12.5t13.5 -5.5h159q34 0 58.5 -24.5t24.5 -58.5v-2h3v-56h-232z" />
    <glyph glyph-name="ttha-beng" unicode="&#x9a0;" horiz-adv-x="431" 
d="M434 437h-122q19 -20 35 -45.5t27 -54.5t17.5 -59.5t6.5 -58.5q0 -66 -30 -121l-1 -1q-23 -37 -56.5 -61t-78.5 -31l-20 -3q-38 2 -70.5 16t-56.5 37.5t-38 55.5t-14 69v57h68q21 0 35.5 15t14.5 35v150h-154v56h157q-3 12 -3 24v47q0 39 27 66t66 27l69 -7v-42l-69 -7
q-15 0 -26 -11t-11 -26v-47q0 -13 11 -24h216v-56zM319 126q23 43 23 92q0 38 -10.5 72.5t-27.5 63t-39 49t-45 29.5l-13 3v-148q0 -45 -30.5 -75.5t-75.5 -30.5l-12 -1q0 -24 9.5 -46t26.5 -38.5t39 -26.5t48 -10q33 0 61.5 20t45.5 47z" />
    <glyph glyph-name="dda-beng" unicode="&#x9a1;" horiz-adv-x="455" 
d="M459 437h-252v-112q0 -21 14.5 -35.5t35.5 -14.5h23q22 0 37 15t15 37l58 1l17 -46q7 -19 11 -37t4 -37q0 -42 -16.5 -78t-44 -63t-63.5 -42t-74 -15q-42 0 -77.5 16t-60.5 43t-39 62t-14 73q0 18 3 38h36q-1 -5 -1 -11v-10q0 -30 12.5 -58t33.5 -49.5t48.5 -34.5
t57.5 -13q29 0 55 11t45.5 30.5t31 45.5t11.5 56q0 11 -2 22t-5 22q-32 -33 -79 -33h-23q-45 0 -75 30t-30 75v112h-155v56h462v-56z" />
    <glyph glyph-name="ddha-beng" unicode="&#x9a2;" horiz-adv-x="349" 
d="M352 437h-228v-367l107 33q46 19 46 63q0 18 -9 32t-22.5 24t-29 15t-27.5 5q-9 0 -13 -1v41q8 3 16 4t17 1q30 0 53 -10.5t38.5 -28t24 -39t8.5 -43.5q0 -40 -23 -72.5t-63 -44.5l-179 -56v444h-71v56h355v-56z" />
    <glyph glyph-name="nna-beng" unicode="&#x9a3;" horiz-adv-x="345" 
d="M348 493v-56h-36v-442h-56l-1 383q-8 25 -31 41.5t-49 16.5q-18 0 -33.5 -7t-27.5 -18.5t-18.5 -27t-6.5 -33.5q0 -29 17 -51t43 -30l-25 -48q-42 13 -67 48t-25 83q0 30 11.5 55.5t31.5 44.5t46 30t55 11q40 0 80 -26v82h56v-56h36z" />
    <glyph glyph-name="ta-beng" unicode="&#x9a4;" horiz-adv-x="444" 
d="M-4 493h451v-56h-451v56zM220 396q41 -2 76 -17.5t60.5 -42t40 -60.5t14.5 -72q0 -39 -15 -74t-41.5 -61.5t-61.5 -42t-75 -15.5t-74 15.5t-58.5 42t-38.5 61.5t-14 74h42q0 -29 12 -53.5t32 -43.5t45.5 -29.5t53.5 -10.5t53 11t43.5 29.5t29 43.5t10.5 53
q0 26 -10.5 50.5t-28.5 43t-42.5 30t-53.5 11.5q-14 0 -22.5 -9t-8.5 -22v-39q0 -12 8.5 -21t21.5 -9l98 -7v-42l-98 -7q-18 0 -33.5 6.5t-27 18.5t-18.5 27.5t-7 33.5v39q0 35 25 60.5t61 27.5h2z" />
    <glyph glyph-name="tha-beng" unicode="&#x9a5;" horiz-adv-x="422" 
d="M427 437h-38v-442h-56v18l-252 81v56q31 3 56.5 17t44 35t28.5 48t11 56q-2 46 -33 77t-77 33q-9 -1 -15.5 -7t-6.5 -15v-33q0 -9 6.5 -15t14.5 -6l45 -7v-43l-45 -7q-32 0 -54.5 23t-22.5 55v33q0 32 22 54.5t55 23.5h2q34 -1 64 -14t52 -35t35 -52t14 -64v-2
q-1 -55 -26.5 -104t-76.5 -78l159 -51v476h56v-55h38v-56z" />
    <glyph glyph-name="da-beng" unicode="&#x9a6;" horiz-adv-x="340" 
d="M-4 493h348v-56h-220v-199l126 61v13h57v-317h-57v241l-182 -88v289h-72v56z" />
    <glyph glyph-name="dha-beng" unicode="&#x9a7;" horiz-adv-x="368" 
d="M372 437h-37v-442h-56v20l-246 82v185l84 28q-19 11 -33 25l-1 1q-23 25 -23 55q0 32 24 56l23 23q12 12 26.5 17.5t28.5 5.5q29 0 55 -23l10 -17v-63l-50 40q-9 7 -15 7q-8 0 -15 -7l-24 -23q-6 -8 -6 -16q0 -12 9.5 -21t23 -15t27.5 -9t23 -3q16 0 31 4l48 16v130h93
v-56zM89 137l190 -62v229l-30 -10l-1 -1l-159 -52v-104z" />
    <glyph glyph-name="na-beng" unicode="&#x9a8;" horiz-adv-x="371" 
d="M372 437h-34v-442h-56v203q-7 34 -34 56t-62 22q-41 0 -69 -28.5t-28 -69.5q0 -29 14 -51t38 -35l-27 -50q-37 20 -59 55.5t-22 81.5q0 31 12 58.5t32.5 48.5t48.5 33.5t60 12.5q52 0 93 -31l1 -1q0 -1 2 -1v138h-285v56h375v-56z" />
    <glyph glyph-name="pa-beng" unicode="&#x9aa;" horiz-adv-x="346" 
d="M347 437h-34v-442h-56v274l-188 -88v49l29 15q-7 20 -22 37t-35 24l1 1h-1q-8 26 -8 47q0 28 11 53.5t30.5 44.5t46 30.5t56.5 11.5q40 0 80 -26v82h56v-57h34v-56zM148 272l109 58l-1 49q-8 25 -30 41.5t-50 16.5q-39 0 -62.5 -25.5t-23.5 -58.5q0 -2 0.5 -4.5t0.5 -4.5
q40 -26 57 -72z" />
    <glyph glyph-name="pha-beng" unicode="&#x9ab;" horiz-adv-x="542" 
d="M-4 493h550v-56h-433q68 -69 68 -161q0 -35 -10 -71t-34 -68l154 -66v267h51q10 2 20 3t20 1q66 0 119 -48l1 -2h1q22 -23 22 -56q-1 -15 -6 -30t-17 -27l-24 -24q-12 -12 -27 -17.5t-30 -5.5q-34 0 -56 23l-10 10l40 40l10 -10q6 -7 16 -7t17 7l24 24q7 7 7 17
q0 12 -10 21t-24 15.5t-28.5 9.5t-24.5 3q-18 0 -34 -4v-286h-57v15l-207 88v62q20 23 31 53t11 61q0 28 -9 53.5t-25 47t-38 37.5t-48 25h-10v56z" />
    <glyph glyph-name="ba-beng" unicode="&#x9ac;" horiz-adv-x="384" 
d="M295 67v260l-206 -68v-124zM351 -5h-56v13l-262 86v206l262 87v50h-297v56h388v-56h-35v-442z" />
    <glyph glyph-name="bha-beng" unicode="&#x9ad;" horiz-adv-x="446" 
d="M-3 493h453v-56h-453v56zM399 262q14 -36 14 -70q0 -42 -15.5 -77t-42 -60.5t-61 -39.5t-71.5 -14q-42 0 -77 16t-60 42.5t-39 61t-14 72.5q0 8 0.5 15t1.5 15l16 55h43l-3 -64q-1 -6 -1.5 -11.5t-0.5 -11.5q0 -27 10 -51.5t28 -42.5t42 -29t53 -11q27 0 51.5 10.5t43 29
t29.5 43t11 51.5q0 19 -6 39q-32 -30 -74 -30h-23q-35 0 -60 24.5t-25 60.5v36q0 18 7 33t18.5 26.5t26.5 18t32 6.5l90 -7v-42l-90 -8q-11 0 -19 -8t-8 -19v-36q0 -12 8.5 -20.5t19.5 -8.5h23q20 0 33.5 14t13.5 33l57 1z" />
    <glyph glyph-name="ma-beng" unicode="&#x9ae;" horiz-adv-x="367" 
d="M368 437h-34v-442h-57v144q-6 26 -27 42.5t-48 16.5q-15 0 -28.5 -6t-23.5 -16t-16 -23.5t-6 -27.5v-37q0 -13 9 -21.5t21 -8.5l56 -7v-43l-56 -7q-36 0 -61 25.5t-25 61.5v44q8 72 69 106q5 17 5 31q0 25 -9 48t-25 40.5t-38 27.5t-48 10l-1 42h-28v56h371v-56zM277 231
v206h-182q101 -47 108 -161v-11q0 -6 -1 -11q41 0 75 -23z" />
    <glyph glyph-name="ya-beng" unicode="&#x9af;" horiz-adv-x="375" 
d="M379 437h-37v-442h-56v15l-208 88v61q42 51 42 112q0 57 -32.5 102t-86.5 64h-5v56h383v-56zM286 71v366h-179q69 -71 69 -162q0 -36 -10.5 -71.5t-33.5 -67.5z" />
    <glyph glyph-name="ra-beng" unicode="&#x9b0;" horiz-adv-x="382" 
d="M78 4l14 54l86 -30l-11 -41zM384 437h-35v-442h-56v21l-260 85v205l260 86v45h-297v56h388v-56zM89 142l204 -67v257l-204 -67v-123z" />
    <glyph glyph-name="la-beng" unicode="&#x9b2;" horiz-adv-x="461" 
d="M464 437h-36v-442h-56v210q-3 17 -16.5 27.5t-30.5 10.5q-21 0 -36.5 -15t-15.5 -33v-4l-42 -8q-1 6 -1.5 11.5t-0.5 10.5q0 2 0.5 5t0.5 5q-10 23 -30.5 37.5t-41.5 14.5q-29 0 -48 -19t-21 -46v-34q0 -11 7.5 -18.5t18.5 -7.5l51 -7v-42l-51 -7q-34 0 -58 24t-24 58v41
q2 23 12 43.5t26 36.5t38 25t48 9q28 0 55.5 -13.5t44.5 -36.5q29 27 69 27q22 0 46 -11v148h-375v56h467v-56z" />
    <glyph glyph-name="sha-beng" unicode="&#x9b6;" horiz-adv-x="426" 
d="M-3 493h97q31 -1 55 -22q22 20 56 22h2q78 -3 129 -54v110h57v-56h36v-56h-36v-442h-57v312q0 27 -10 50.5t-27.5 41t-41 28t-51.5 10.5q-12 0 -20.5 -8t-9.5 -20v-68q1 -12 9.5 -20t19.5 -8l60 -7v-42l-60 -7q-34 0 -56 22q-23 -22 -57 -22l-59 7v42l59 7q11 0 19.5 8
t9.5 20v68q-1 12 -9 20t-21 8h-94v56z" />
    <glyph glyph-name="ssa-beng" unicode="&#x9b7;" horiz-adv-x="376" 
d="M377 437h-34v-442h-57v15l-207 88v61q21 23 31.5 52.5t10.5 59.5q0 57 -32.5 102t-86.5 64h-5v56h380v-56zM133 136l153 -65v132l-109 47q-5 -31 -15.5 -59.5t-28.5 -54.5zM286 264v173h-178q53 -53 66 -125z" />
    <glyph glyph-name="sa-beng" unicode="&#x9b8;" horiz-adv-x="429" 
d="M431 437h-35v-442h-58v143q-6 27 -27 43.5t-47 16.5q-12 -1 -25 -5t-21 -12l-23 -22q-35 -33 -76 -33q-42 0 -78 33l-13 19l34 32l20 -11q16 -16 36 -16q9 1 19 4.5t19 11.5l25 24q20 14 23.5 25t3.5 28q0 25 -10.5 47t-27.5 38t-39 25t-45 9h-53v42h-35v56h433v-56z
M338 230v207h-181q52 -24 79.5 -67t27.5 -94v-22q41 0 74 -24z" />
    <glyph glyph-name="ha-beng" unicode="&#x9b9;" horiz-adv-x="303" 
d="M247 64q4 -3 12 -3t11 5l37 -21q-8 -18 -20 -28t-34 -10q-17 0 -32 7l-9 5l-148 88q-25 14 -45 34l28 28q28 -26 65 -26q19 0 37.5 7t33.5 20.5t24.5 32.5t9.5 44q0 19 -7.5 35.5t-20.5 29t-30.5 20t-36.5 7.5q-8 0 -12.5 -5t-4.5 -11v-30q0 -7 4.5 -12t11.5 -5l74 -7
v-41l-74 -7q-29 0 -50.5 21.5t-21.5 50.5v30q0 29 20.5 49.5t50.5 22.5h2q36 -2 63.5 -15t46.5 -33t28.5 -45.5t9.5 -52.5q0 -23 -5 -45t-16.5 -42t-30 -36t-45.5 -25l65 -33zM306 493v-56h-309v56h309z" />
    <glyph glyph-name="rra-beng" unicode="&#x9dc;" horiz-adv-x="460" 
d="M-2 493h465v-56h-254v-121q0 -19 15 -33.5t36 -14.5h23q23 0 38 15t15 35l56 1l3 1l17 -45q7 -19 11 -36.5t4 -36.5q0 -42 -16 -79t-44 -64.5t-64.5 -43.5t-76.5 -16q-43 0 -78.5 16t-61 43t-39.5 62.5t-14 74.5q0 19 3 39h36q-1 -5 -1 -10v-10q0 -32 12.5 -60.5
t34 -50.5t50 -35t60.5 -13q29 0 55 11.5t45.5 31.5t30.5 46t11 56q0 22 -6 45q-33 -34 -81 -34h-23q-23 0 -42.5 8.5t-33.5 22.5t-22.5 33.5t-8.5 40.5v121h-155v56zM172 -36h79l7 -57h-93z" />
    <glyph glyph-name="rha-beng" unicode="&#x9dd;" horiz-adv-x="351" 
d="M139 -11l88 28l12 -55l-91 -14zM354 437h-229v-368l106 33q46 19 46 64q0 18 -9.5 32t-23 23.5t-28.5 14.5t-27 5q-9 0 -13 -1v42q12 3 22.5 4t19.5 1q29 0 50.5 -11.5t36 -29.5t22 -39.5t7.5 -40.5q0 -42 -23.5 -74t-62.5 -44l-180 -56v445h-71v56h357v-56z" />
    <glyph glyph-name="yya-beng" unicode="&#x9df;" horiz-adv-x="383" 
d="M117 -9l22 52l81 -43l-16 -39zM389 437h-39v-442h-57v15l-207 88v61q21 23 31.5 52.5t10.5 60.5q0 57 -33 102t-88 63h-9v56h391v-56zM293 71v366h-178q33 -34 51 -76t18 -89q0 -36 -11.5 -71t-32.5 -65z" />
    <glyph glyph-name="ramiddlediagonal-beng" unicode="&#x9f0;" horiz-adv-x="384" 
d="M351 -5h-56v13l-262 86v206l262 87v50h-297v56h388v-56h-35v-442zM295 327l-206 -68v-1l206 -68v137zM295 67v64l-206 67v-63z" />
    <glyph glyph-name="ralowerdiagonal-beng" unicode="&#x9f1;" horiz-adv-x="384" 
d="M295 67v260l-206 -68v-124zM351 -5h-56v13l-262 86v206l262 87v50h-297v56h388v-56h-35v-442zM68 44l216 -70v-59l-216 70v59z" />
    <glyph glyph-name="signnuktacomb-beng" unicode="&#x9bc;" 
d="M-420 -69l14 54l86 -30l-11 -41z" />
    <glyph glyph-name="vowelsignaa-beng" unicode="&#x9be;" horiz-adv-x="165" 
d="M167 437h-42v-438h-57v372q0 27 -18.5 45.5t-45.5 20.5h-13v56h15q17 0 32.5 -5.5t29.5 -13.5v70h57v-51h42v-56z" />
    <glyph glyph-name="vowelsigni-beng" unicode="&#x9bf;" horiz-adv-x="165" 
d="M-2 493h70v28q28 65 84 104.5t127 39.5q44 0 87.5 -17t77.5 -51l-40 -40q-25 25 -59 38.5t-66 13.5q-51 0 -91.5 -27t-62.5 -73v-16h42v-56h-42v-437h-57v437h-70v56z" />
    <glyph glyph-name="vowelsignii-beng" unicode="&#x9c0;" horiz-adv-x="165" 
d="M167 493v-56h-42v-437h-57v437h-73v56h73v37q-26 48 -66 74t-96 26h-64q-11 0 -11 -12v-1q0 -11 11 -11h122v-57h-122q-28 0 -48 20t-20 48v1q0 28 20 48t48 20h72q148 -7 211 -144v-49h42z" />
    <glyph glyph-name="vowelsignucomb-beng" unicode="&#x9c1;" 
d="M-105 13q36 -2 66.5 -15.5t53 -36.5t35.5 -53.5t13 -65.5v-12q0 -6 -1 -13h-55v25q0 22 -7 40l-98 -61h-8q-33 0 -56 23t-23 56v33q0 32 22.5 55t55.5 25h2zM-113 -122l80 50q-15 13 -33.5 20.5t-39.5 7.5q-10 0 -16.5 -7t-6.5 -16v-33q0 -16 16 -22z" />
    <glyph glyph-name="vowelsignuucomb-beng" unicode="&#x9c2;" 
d="M-4 -96q72 -21 106 -88l-41 -21q-26 41 -75 53q-41 -28 -88 -29h-2q-34 1 -56.5 24t-22.5 56v33q0 32 23.5 55.5t55.5 23.5l71 -7v-43l-71 -7q-9 0 -15.5 -6.5t-6.5 -15.5v-33q0 -10 6.5 -16.5t16.5 -7.5q43 3 74 33q7 -1 13 -1.5t12 -2.5z" />
    <glyph glyph-name="vowelsignvocalicrcomb-beng" unicode="&#x9c3;" 
d="M-134 -57l183 -63l-20 -53l-236 90v51l148 77l26 -50z" />
    <glyph glyph-name="vowelsigne-beng" unicode="&#x9c7;" horiz-adv-x="184" 
d="M204 437q-23 0 -43.5 -9t-36.5 -24.5t-25 -36t-9 -44.5v-202q0 -11 3 -22.5t8.5 -20.5t13 -15t16.5 -6q2 0 10 2l20 -53q-17 -5 -30 -5q-24 0 -42 11.5t-30.5 29.5t-18.5 39t-6 40v202q0 35 13 66q12 27 31 48h-81v56h208v-56h-1z" />
    <glyph glyph-name="bn_ekaar.init" horiz-adv-x="184" 
d="M131 1q-24 0 -42 11.5t-30.5 29.5t-18.5 39t-6 40v202q0 35 13.5 66t36.5 54t54 36.5t66 13.5v-56q-23 0 -43.5 -9t-36.5 -24.5t-25 -36t-9 -44.5v-202q0 -11 3 -22.5t8.5 -20.5t13 -15t16.5 -6q2 0 10 2l20 -53q-17 -5 -30 -5z" />
    <glyph glyph-name="vowelsignai-beng" unicode="&#x9c8;" horiz-adv-x="184" 
d="M196 493q24 6 24 30v12q0 15 -11 26t-26 11h-75q-31 0 -49.5 22t-18.5 53h42q0 -8 9 -13.5t17 -5.5h75q39 0 66 -27t27 -66v-12q0 -15 -5 -30h11v-56h-79q-23 0 -43.5 -9t-36.5 -24.5t-25 -36t-9 -44.5v-202q0 -23 12.5 -43.5t29.5 -20.5q3 0 9 2l20 -53q-17 -5 -29 -5
q-24 0 -42.5 11.5t-31 29.5t-18.5 39t-6 40v202q0 32 11.5 60.5t31.5 51.5l2 2h-79v56h197z" />
    <glyph glyph-name="bn_aikaar.init" horiz-adv-x="184" 
d="M271 493h11v-56h-79q-23 0 -43.5 -9t-36.5 -24.5t-25 -36t-9 -44.5v-202q0 -23 12.5 -43.5t29.5 -20.5q3 0 9 2l20 -53q-17 -5 -29 -5q-24 0 -42.5 11.5t-31 29.5t-18.5 39t-6 40v202q0 32 11.5 60.5t31.5 51t47 38t58 20.5h15q24 6 24 30v12q0 15 -11 26t-26 11h-75
q-31 0 -49.5 22t-18.5 53h42q0 -8 9 -13.5t17 -5.5h75q39 0 66 -27t27 -66v-12q0 -15 -5 -30z" />
    <glyph glyph-name="vowelsigno-beng" unicode="&#x9cb;" horiz-adv-x="711" 
d="M204 437q-23 0 -43.5 -9t-36.5 -24.5t-25 -36t-9 -44.5v-202q0 -11 3 -22.5t8.5 -20.5t13 -15t16.5 -6q2 0 10 2l20 -53q-17 -5 -30 -5q-24 0 -42 11.5t-30.5 29.5t-18.5 39t-6 40v202q0 35 13 66q12 27 31 48h-81v56h208v-56h-1zM675 437v-438h-57v372q0 27 -18.5 45.5
t-45.5 20.5h-13v56h15q17 0 32.5 -5.5t29.5 -13.5v70h57v-51h42v-56h-42zM341 151q-16 -17 -31.5 -30.5t-28.5 -23.5t-21.5 -15.5t-9.5 -5.5l-36 59h-2q0 3 18.5 17.5t61.5 57.5q4 -18 17 -34t32 -25zM460 205q29 -38 50.5 -57.5t21.5 -21.5h-3l-38 -58q-4 2 -30.5 23
t-55.5 58q18 6 33.5 22t21.5 34zM444 288q23 13 42.5 30t27.5 27l57 -51q-10 -12 -37.5 -33.5t-70.5 -43.5q1 5 1 15q0 31 -20 56zM290 221q-25 13 -45 25.5t-34 22.5t-22 16l-8 7l55 54q33 -33 75 -55q-22 -25 -22 -59q0 -8 1 -11zM340 312v84h67l5 -84q-18 8 -36 8t-36 -8
z" />
    <glyph glyph-name="vowelsignau-beng" unicode="&#x9cc;" horiz-adv-x="741" 
d="M747 493v-56h-72v-437h-57v437h-70v56h70v16q-8 17 -21 35t-33 18h-75q-31 0 -53 22t-22 53h56q0 -8 6 -13.5t13 -5.5h75q20 0 37 -8.5t31 -22t24.5 -31t18.5 -35.5v-28h72zM205 437v56h-208v-56h81q-19 -21 -31 -48q-13 -31 -13 -66v-202q0 -19 6 -40t18.5 -39
t30.5 -29.5t42 -11.5q13 0 30 5l-20 53q-8 -2 -10 -2q-9 0 -16.5 6t-13 15t-8.5 20.5t-3 22.5v202q0 24 9 44.5t25 36t36 24.5q18 7 37 9h8zM341 151q-16 -17 -31.5 -30.5t-28.5 -23.5t-21.5 -15.5t-9.5 -5.5l-36 59h-2q0 3 18.5 17.5t61.5 57.5q4 -18 17 -34t32 -25z
M460 205q29 -38 50.5 -57.5t21.5 -21.5h-3l-38 -58q-4 2 -30.5 23t-55.5 58q18 6 33.5 22t21.5 34zM444 288q23 13 42.5 30t27.5 27l57 -51q-10 -12 -37.5 -33.5t-70.5 -43.5q1 5 1 15q0 31 -20 56zM290 221q-25 13 -45 25.5t-34 22.5t-22 16l-8 7l55 54q33 -33 75 -55
q-22 -25 -22 -59q0 -8 1 -11zM340 312v84h67l5 -84q-18 8 -36 8t-36 -8z" />
    <glyph glyph-name="signviramacomb-beng" unicode="&#x9cd;" 
d="M-94 -31h71l131 -112h-82z" />
    <glyph glyph-name="khandata-beng" unicode="&#x9ce;" horiz-adv-x="307" 
d="M223 216q32 -25 48.5 -56.5t16.5 -66.5q0 -47 -32 -93h-52q23 32 23 76q0 43 -18 72t-56 41q-54 13 -87 54.5t-33 95.5q0 31 12 59t33 49t48.5 33t59.5 13h1q32 -2 52.5 -23t20.5 -51v-29q0 -31 -21.5 -52t-51.5 -21l-40 7v42l40 7q7 0 12 5t5 12v29q0 7 -5 12t-12 6
q-42 -2 -69.5 -30t-27.5 -68q0 -34 20.5 -60.5t54.5 -34.5q34 -10 58 -28z" />
    <glyph glyph-name="aulength-beng" unicode="&#x9d7;" horiz-adv-x="165" 
d="M197 493v-56h-72v-437h-57v437h-70v56h70v16q-8 17 -21 35t-33 18h-75q-31 0 -53 22t-22 53h56q0 -8 6 -13.5t13 -5.5h75q20 0 37 -8.5t31 -22t24.5 -31t18.5 -35.5v-28h72z" />
    <glyph glyph-name="zero-beng" unicode="&#x9e6;" horiz-adv-x="382" 
d="M194 68q-33 0 -62 12.5t-51 34.5t-34.5 51t-12.5 62v34q0 33 12.5 62t34.5 50.5t51 34.5t62 13t61.5 -13t50.5 -34.5t34.5 -50.5t12.5 -62v-34q0 -33 -12.5 -62t-34.5 -50.5t-50.5 -34.5t-61.5 -13zM194 365q-21 0 -40 -8t-33.5 -22t-22.5 -33t-8 -40v-34q0 -21 8 -40
t22.5 -33t33.5 -22t40 -8t39.5 8t33 22t22.5 33t8 40v34q0 21 -8 40t-22.5 33t-33 22t-39.5 8z" />
    <glyph glyph-name="one-beng" unicode="&#x9e7;" horiz-adv-x="358" 
d="M112 444q44 0 84 -17.5t70 -47.5t47.5 -70t17.5 -84q0 -45 -17.5 -85t-47.5 -69.5t-69.5 -47t-84.5 -17.5h-1q-33 0 -56 23t-23 56v33q0 32 23 55t55 23l84 -7v-42l-84 -7q-9 0 -15.5 -6.5t-6.5 -15.5v-33q0 -9 7 -16t16 -7h1q33 0 62.5 13t51.5 35.5t35 52t13 62.5
t-13 62t-35 51.5t-51.5 35.5t-62.5 13t-56.5 23.5t-23.5 56.5v32h57v-32q0 -10 6.5 -16.5t16.5 -6.5z" />
    <glyph glyph-name="two-beng" unicode="&#x9e8;" horiz-adv-x="317" 
d="M182 150l145 -92l-30 -48l-266 169l30 48l56 -35q20 0 37.5 7.5t31 21t21.5 31t8 38.5q0 20 -8 37.5t-21.5 31t-31 21.5t-37.5 8l-1 -1q-32 0 -55.5 23.5t-23.5 56.5v32h56v-32q0 -10 7 -16.5t16 -6.5h1q32 0 60 -12t49 -33t33 -49t12 -60q0 -93 -89 -140z" />
    <glyph glyph-name="three-beng" unicode="&#x9e9;" horiz-adv-x="443" 
d="M223 437q40 -2 75.5 -17.5t61 -41.5t40.5 -61t15 -74q0 -40 -15.5 -75t-42 -61.5t-61.5 -42t-75 -15.5q-41 0 -75 15.5t-59 42t-39 62t-14 74.5h42q0 -29 12 -54t32.5 -44t46.5 -29.5t54 -10.5t53 11t44 29.5t29.5 43.5t10.5 54q0 27 -10.5 52t-29 43.5t-43.5 30
t-53 11.5q-14 0 -23 -9.5t-9 -22.5v-38q0 -13 9 -22t22 -9l42 -7v-43l-42 -7q-36 0 -61.5 25.5t-25.5 62.5v38q0 36 25 61.5t63 27.5h1z" />
    <glyph glyph-name="four-beng" unicode="&#x9ea;" horiz-adv-x="338" 
d="M308 350q0 -60 -48 -100q48 -39 48 -99v-20q0 -26 -10 -49.5t-27.5 -41t-41 -27.5t-49.5 -10h-20q-27 0 -50 10t-40 27.5t-27 40.5t-10 50v20q0 60 47 99q-47 41 -47 100v20q0 26 10 49t27 40.5t40.5 28t49.5 10.5h20q26 0 49 -10.5t40.5 -28t28 -40.5t10.5 -49v-20z
M154 279h32q28 3 46.5 23t18.5 48v20q0 29 -21 50t-50 21h-20q-29 0 -50 -21t-21 -50v-20q0 -28 18.5 -48t46.5 -23zM251 151q0 28 -18.5 48t-46.5 23h-32q-28 -3 -46.5 -23t-18.5 -48v-20q0 -29 21 -50t50 -21h20q29 0 50 21t21 50v20z" />
    <glyph glyph-name="five-beng" unicode="&#x9eb;" horiz-adv-x="438" 
d="M367 61l1 -1l-1 -54h-88q-50 0 -94.5 19.5t-78.5 52.5t-53.5 78t-19.5 96t20 95.5t53.5 78t78 53t94.5 19.5v-28q9 -44 40.5 -71t74.5 -27l7 -43q-24 -5 -46 -17t-38.5 -30.5t-26 -42.5t-9.5 -53q0 -40 22 -73t61 -51h3v-1zM90 252q0 -39 14 -72.5t38.5 -58.5t57.5 -40.5
t71 -17.5q-23 27 -35 59.5t-12 64.5q0 49 24.5 92.5t65.5 65.5q-60 28 -84 90q-30 -9 -56 -26.5t-44.5 -41.5t-29 -53t-10.5 -62z" />
    <glyph glyph-name="six-beng" unicode="&#x9ec;" horiz-adv-x="466" 
d="M422 276q14 -37 14 -75q0 -41 -16 -77.5t-43.5 -63.5t-64 -42.5t-76.5 -15.5q-43 0 -79.5 16t-63 43t-42 62.5t-16.5 75.5l7 144h42l8 -133v-7q0 -29 10.5 -55t29.5 -46t45 -32t58 -12q29 0 55 11t46 30.5t31.5 46t11.5 56.5q0 11 -2 22.5t-5 22.5q-31 -34 -78 -34h-25
q-45 0 -75.5 30.5t-30.5 75.5v101q0 10 -7 20t-16 10l-1 49h1q33 0 56 -23t23 -56v-101q0 -21 15 -35.5t35 -14.5h25q21 0 36 15t15 37l57 1l2 1z" />
    <glyph glyph-name="seven-beng" unicode="&#x9ed;" horiz-adv-x="291" 
d="M283 62v-56q-33 0 -56 23.5t-23 55.5v115l-99 34q-33 11 -52.5 40.5t-19.5 65.5q0 35 20 65t53 41l154 52v-413q0 -9 7 -16t16 -7zM124 287l80 -28v160l-80 -27q-15 -5 -25 -19.5t-10 -32.5q0 -36 35 -53z" />
    <glyph glyph-name="eight-beng" unicode="&#x9ee;" horiz-adv-x="431" 
d="M366 360l56 -1q0 -32 -23 -55.5t-56 -23.5h-114q51 -38 51 -100q0 -38 -22 -70.5t-58 -44.5l-167 -56v412q0 10 -6.5 16.5t-15.5 6.5l-1 57h1q32 0 55.5 -23.5t23.5 -56.5v-84h253q10 0 16.5 6.5t6.5 15.5v1zM182 119q41 20 41 61q0 43 -41 61l-92 33v-186z" />
    <glyph glyph-name="nine-beng" unicode="&#x9ef;" horiz-adv-x="403" 
d="M324 322q44 -64 44 -132q0 -106 -87 -175l-1 2v-3l-56 9q2 10 2 16q0 22 -8.5 42.5t-23.5 36.5t-36 25.5t-45 9.5q-10 0 -16.5 -7t-6.5 -16v-33q0 -10 6.5 -16.5t15.5 -6.5l71 -7v-42l-71 -7q-32 0 -55.5 23t-23.5 56v33q0 32 22.5 55t57.5 25h1q58 -2 101.5 -35.5
t59.5 -87.5q37 45 37 105q0 33 -13 62t-35 50.5t-50.5 34t-59.5 13.5q-34 1 -56.5 24t-22.5 55v33h57v-33q0 -9 6.5 -15.5t16.5 -6.5q105 -5 169 -87z" />
    <glyph glyph-name="rupeesign-beng" unicode="&#x9f3;" horiz-adv-x="417" 
d="M305 309q39 -13 62 -45t23 -72t-23.5 -72.5t-62.5 -44.5l-179 -56v397h-97v56h97v48q0 11 -8 19t-19 8h-70v56h70q34 0 58.5 -24.5t24.5 -58.5v-48h56v-56h-56v-321l106 34q47 20 47 63q0 40 -39 61v-1l-6 3h-1v1q-11 4 -23 7t-23 3q-2 0 -5 -0.5t-5 -0.5v43q19 4 40 4
q16 0 33 -3z" />
    <glyph glyph-name="devanagaridanda" unicode="&#x964;" horiz-adv-x="232" 
d="M124 61v370h57v-370h-57z" />
    <glyph glyph-name="devanagaridoubledanda" unicode="&#x965;" horiz-adv-x="342" 
d="M124 61v370h57v-370h-57zM234 61v370h57v-370h-57z" />
    <glyph glyph-name="bn_k_ka" horiz-adv-x="546" 
d="M549 437h-198v-29q15 3 30 3q61 0 109 -45l1 -1v-1q22 -22 22 -52q0 -31 -23 -54l-21 -21q-11 -11 -25 -16.5t-28 -5.5q-30 0 -53 22l-5 5l33 45l12 -10q6 -6 13 -6t13 6l22 21q5 7 5 14q0 10 -9 18t-21 13.5t-25 8t-21 2.5q-14 0 -29 -3v-155q8 2 15 2h14q60 0 110 -45
l1 -1q22 -22 22 -53q0 -30 -23 -53l-21 -22q-11 -11 -25 -16.5t-28 -5.5q-30 0 -53 22l-5 5l33 46l12 -11q5 -5 13 -5t13 5l22 22q5 7 5 13q0 10 -9 18t-21 13.5t-25 8t-21 2.5q-14 0 -29 -3v-273h-56v13l-262 86v132l119 40l-119 40v133l262 86v42h-300v56h554v-56zM89 4
l206 -67v186l-206 -68v-51zM89 216l153 -51l53 18v153l-206 -68v-52z" />
    <glyph glyph-name="bn_k_tta" horiz-adv-x="578" 
d="M581 437h-229v-29q15 3 30 3q63 0 109 -46q2 2 6 -5.5t8 -18.5q4 -12 8 -29q0 -32 -22 -54l-21 -21q-12 -12 -25.5 -17t-27.5 -5q-30 0 -53 22l-5 5l33 45l12 -10q6 -6 13 -6t13 6l21 21q6 6 6 14q0 10 -9 18t-21.5 13.5t-25.5 8t-21 2.5q-13 0 -28 -3v-405l106 33
q47 20 47 64q0 21 -11 36t-33 26l-2 1q-11 5 -23.5 8.5t-23.5 3.5q-2 0 -4.5 -0.5t-4.5 -0.5v41q22 5 38 5q30 0 52.5 -11t37.5 -28.5t22.5 -39t7.5 -41.5q0 -42 -23.5 -74t-62.5 -44l-179 -56v197l-263 86v156l262 87v42h-298v56h426v25q0 11 -8 19t-19 8h-176
q-31 0 -53 22t-22 53t22 49.5t53 18.5v-42q-7 0 -12.5 -9t-5.5 -17t5.5 -13.5t12.5 -5.5h176q17 0 32 -6.5t26.5 -17.5t18 -26t6.5 -33v-25h102v-56zM90 192l205 -67v211l-205 -68v-76z" />
    <glyph glyph-name="bn_k_tt_ra" horiz-adv-x="578" 
d="M479 518v-25h103v-56h-230v-16q7 1 14 1.5t14 0.5q59 0 111 -38l1 -2q21 -20 21 -47q0 -29 -23 -50l-22 -17q-25 -19 -51 -19q-15 -1 -27.5 4t-23.5 15l-10 8l36 41l10 -7q5 -5 15 -5q8 0 13 4l21 17q6 4 6 9q0 7 -9.5 13t-22 10.5t-25 6.5t-19.5 2q-14 0 -29 -3v-333
l107 28q46 16 46 50q0 17 -11 27t-32 21q-2 0 -2 1q-11 4 -23.5 7t-23.5 3q-2 0 -5 -0.5t-5 -0.5v42q19 4 40 4q16 0 33 -3h1q42 -11 63 -40.5t21 -60.5q0 -38 -24 -65.5t-63 -38.5l-28 -7v-158h-57v18l-245 54q-32 7 -53.5 32.5t-21.5 60.5q0 5 0.5 10t1.5 10l16 44h43
l-4 -55q-1 -3 -1 -8q0 -14 8.5 -25.5t22.5 -13.5l5 -1l229 -50v67l-95 -25v166l-262 72v140l262 73v27h-298v56h426v25q0 11 -8 19t-19 8h-176q-31 0 -53 22t-22 53t22 49.5t53 18.5v-42q-7 0 -12.5 -9t-5.5 -17t5.5 -13.5t12.5 -5.5h176q17 0 32 -6.5t26.5 -17.5t18 -26
t6.5 -33zM90 239l205 -57v170l-205 -57v-56z" />
    <glyph glyph-name="bn_k_ta" horiz-adv-x="584" 
d="M-4 493h592v-56h-592v56zM567 232q0 -31 -22 -53l-21 -22q-22 -22 -53 -22t-53 22l-9 9l40 40l9 -9q5 -5 13 -5t13 5l21 21q6 6 6 14q0 10 -9 18t-21 13t-25 8t-21 3q-14 0 -27 -3l-15 -5q8 -27 8 -52v-10q0 -24 -14 -46q45 -33 45 -86v-7q0 -45 -30.5 -75.5t-75.5 -30.5
h-34q-56 4 -103.5 26.5t-82 59.5t-54 86t-19.5 105h43q0 -46 18.5 -86t49.5 -70t72.5 -47.5t86.5 -17.5h23q21 0 35.5 14.5t14.5 35.5v7q0 20 -14 34t-34 14l-2 1q-3 -1 -9 -1l-53 7v43l53 6q12 0 20 8.5t8 19.5v5q0 27 -10 51.5t-28 42.5t-42.5 29t-52.5 11q-13 0 -21.5 -9
t-8.5 -22v-37q0 -13 8.5 -21.5t20.5 -8.5l97 -7v-42l-97 -7q-18 0 -33.5 6.5t-27 18.5t-18.5 27.5t-7 33.5v37q0 18 6.5 34t18.5 28t28 19t35 7q99 -4 155 -83l27 9q12 4 24.5 5t23.5 1q28 0 51 -11t39 -26.5t25 -32.5t9 -30z" />
    <glyph glyph-name="bn_k_t_ba" horiz-adv-x="585" 
d="M567 232q0 -31 -22 -53l-21 -22q-22 -22 -53 -22t-53 22l-9 9l40 40l9 -9q5 -5 13 -5t13 5l21 21q6 6 6 14q0 10 -9 18t-21 13t-25 8t-21 3q-14 0 -27 -3l-15 -5q8 -27 8 -52v-10q0 -24 -14 -46q45 -33 45 -86v-7q0 -45 -31 -75l-6 -6v-184h-56v16l-205 68v94l41 14
q-39 21 -69 53q-34 37 -53.5 86t-19.5 105h43q0 -46 18.5 -86t49.5 -70t72.5 -47.5t86.5 -17.5h23q21 0 35.5 14.5t14.5 35.5v7q0 20 -14 34t-34 14h-11l-53 7v43l53 6q12 0 20 8.5t8 19.5v5q0 27 -10 51.5t-28 42.5t-42.5 29t-52.5 11q-13 0 -21.5 -9t-8.5 -22v-37
q0 -13 8.5 -21.5t20.5 -8.5l97 -7v-42l-97 -7q-18 0 -33.5 6.5t-27 18.5t-18.5 27.5t-7 33.5v37q0 18 6.5 34t18.5 28t28 19t35 7q99 -4 155 -83q47 14 80 14q30 0 52.5 -11t37 -26.5t22 -32.5t7.5 -29zM-4 493h600v-56h-600v56zM190 -75l149 -50v85q-7 -1 -13 -1h-34
q-14 1 -27 3l-75 -25v-12z" />
    <glyph glyph-name="bn_k_t_ra" horiz-adv-x="584" 
d="M567 232q0 -31 -22 -53l-21 -22q-22 -22 -53 -22t-53 22l-9 9l40 40l9 -9q5 -5 13 -5t13 5l21 21q6 6 6 14q0 10 -9 18t-21 13t-25 8t-21 3q-14 0 -27 -3l-15 -5q8 -27 8 -52v-10q0 -24 -14 -46q45 -33 45 -86v-7q0 -45 -31 -75q-11 -11 -23 -18v-129h-57v18l-245 54
q-32 7 -53.5 32.5t-21.5 60.5q0 5 0.5 10t1.5 10l16 44h43l-4 -55q-1 -3 -1 -8q0 -14 8.5 -25.5t22.5 -13.5l5 -1l229 -50v40h-30q-56 4 -103.5 26.5t-82 59.5t-54 86t-19.5 105h43q0 -46 18.5 -86t49.5 -70t72.5 -47.5t86.5 -17.5h23q21 0 35.5 14.5t14.5 35.5v7
q0 20 -14 34t-34 14l-2 1q-3 -1 -9 -1l-53 7v43l53 6q12 0 20 8.5t8 19.5v5q0 27 -10 51.5t-28 42.5t-42.5 29t-52.5 11q-13 0 -21.5 -9t-8.5 -22v-37q0 -13 8.5 -21.5t20.5 -8.5l97 -7v-42l-97 -7q-18 0 -33.5 6.5t-27 18.5t-18.5 27.5t-7 33.5v37q0 18 6.5 34t18.5 28
t28 19t35 7q99 -4 155 -83q39 11 70 11q21 0 44 -6.5t42 -18.5t31 -30t12 -41zM-4 493h592v-56h-592v56z" />
    <glyph glyph-name="bn_k_na" horiz-adv-x="530" 
d="M295 68v45l-262 85v113l262 87v39h-300v56h539v-56h-183v-26q8 2 15 2h14q60 0 110 -45l1 -1q22 -22 22 -53q0 -30 -23 -53l-21 -22q-11 -11 -25 -16.5t-28 -5.5q-30 0 -53 22l-5 5l33 46l12 -11q5 -5 13 -5t13 5l22 22q5 7 5 13q0 10 -9 18t-21 13.5t-25 8t-21 2.5
q-14 0 -29 -3v-442h-56v82q-5 17 -26.5 30t-47.5 13q-30 0 -53 -15.5t-23 -38.5q0 -15 12.5 -28t35.5 -22l-30 -43q-32 14 -51.5 38t-19.5 56q0 21 10 40t27.5 33t40.5 22.5t50 8.5q39 0 75 -19zM89 239l206 -67v166l-206 -68v-31z" />
    <glyph glyph-name="bn_k_ba" horiz-adv-x="530" 
d="M535 437h-184v-29q15 3 30 3q61 0 109 -45l1 -1v-1q22 -22 22 -52q0 -31 -23 -54l-21 -21q-11 -11 -25 -16.5t-28 -5.5q-30 0 -53 22l-5 5l33 45l12 -10q6 -6 13 -6t13 6l22 21q5 7 5 14q0 10 -9 18t-21 13.5t-25 8t-21 2.5q-14 0 -29 -3v-446h-56v13l-262 86v112l119 40
l-119 40v113l262 86v42h-300v56h540v-56zM89 44l206 -67v166l-206 -68v-31zM89 236l153 -51l53 18v133l-206 -68v-32z" />
    <glyph glyph-name="bn_k_ma" horiz-adv-x="644" 
d="M-5 493h654v-56h-38v-520h-56q-2 57 -54 75l-192 29q-11 3 -21 3q-14 0 -27 -5.5t-23.5 -15t-17 -22t-6.5 -25.5q0 -8 1 -11l-55 -13q-3 12 -3 24q0 15 4 27l1 1v2q6 17 16 33.5t25 29.5t33.5 21t40.5 8q7 0 18 -1v36l-262 85v113l262 87v39h-300v56zM351 411q8 2 15 2
h14q60 0 110 -45l1 -1q22 -22 22 -53q0 -30 -23 -53l-21 -22q-11 -11 -25 -16.5t-28 -5.5q-30 0 -53 22l-5 5l33 46l12 -11q5 -5 13 -5t13 5l22 22q5 7 5 13q0 10 -9 18t-21 13.5t-25 8t-21 2.5q-14 0 -29 -3v-281q62 -8 163 -25q11 -4 21.5 -8.5t19.5 -11.5v410h-204v-26z
M89 239l206 -67v166l-206 -68v-31z" />
    <glyph glyph-name="bn_k_ra" horiz-adv-x="650" 
d="M589 98q-22 -22 -52 -22q-16 -1 -28.5 5t-24.5 17l-10 9l40 40l10 -10q4 -5 12 -5q9 0 14 5l21 22q6 6 6 14q0 10 -9 18.5t-22 14.5t-26 9t-22 3q-29 0 -62 -15l-1 -235h-56v13l-182 39v-1l-88 19l-7 2q-31 7 -49 30t-18 53q0 5 0.5 9t1.5 9l15 37h44l-5 -48
q0 -2 -0.5 -3t-0.5 -3q0 -11 6.5 -19t17.5 -10l11 -3v1l254 -55v167q-2 57 -38.5 93t-93.5 38q-13 0 -22 -9t-9 -22v-37q0 -13 9 -21.5t21 -8.5l97 -7v-42l-97 -7q-18 0 -33.5 6.5t-27 18.5t-18.5 27.5t-7 33.5v37q0 36 24.5 61t61.5 26h2q39 -2 73 -17t59.5 -40.5
t40.5 -59.5q4 -9 7 -19q39 16 72 16q60 0 110 -45l1 -1q22 -23 22 -53q0 -32 -22 -54zM-2 493h662v-56h-662v56z" />
    <glyph glyph-name="bn_k_la" horiz-adv-x="530" 
d="M295 398v39h-300v56h558v-56h-202v-26q8 2 15 2h14q60 0 110 -45l1 -1q22 -22 22 -53q0 -30 -23 -53l-21 -22q-11 -11 -25 -16.5t-28 -5.5q-30 0 -53 22l-5 5l33 46l12 -11q5 -5 13 -5t13 5l22 22q5 7 5 13q0 10 -9 18t-21 13.5t-25 8t-21 2.5q-14 0 -29 -3v-404h-56v52
q-15 22 -21 28q-7 7 -15 7q-11 0 -19.5 -7.5t-8.5 -20.5q0 -2 0.5 -3.5t0.5 -3.5l-43 -7q-1 11 -3 21t-6.5 18t-12.5 13t-22 5q-16 0 -26.5 -11.5t-10.5 -25.5v-22q0 -10 10 -10l41 -6v-40l-41 -6q-26 0 -44 18t-18 44v28q3 35 28.5 59t60.5 24q29 0 54 -17l15 -13
q5 5 17 9.5t26 4.5q19 0 38 -9v35l-262 85v113zM89 239l206 -67v166l-206 -68v-31z" />
    <glyph glyph-name="bn_k_ssa" horiz-adv-x="575" 
d="M-2 493h582v-56h-194v-108q7 1 13.5 1.5t13.5 0.5q66 0 121 -49l1 -1q23 -25 23 -56q-1 -15 -6.5 -30t-17.5 -27l-24 -24q-11 -11 -26 -17t-30 -6q-31 0 -56 23l-11 10l40 40l11 -10q6 -7 16 -7q9 0 16 7l24 24q7 7 7 16q0 12 -10 21.5t-24 16t-28.5 10t-24.5 3.5
q-13 0 -28 -3v-272h-56v33q-3 56 -55 74l-88 14q-5 1 -10 1.5t-10 0.5q-12 0 -25 -4.5t-24.5 -13.5t-19 -21.5t-7.5 -28.5q0 -4 2 -10l-55 -14q-3 12 -3 24q0 16 4 28l1 3q15 47 56 74l9 5q15 10 15 29v41q0 14 -10 24t-24 10l-53 8v42l53 7q14 0 24 10t10 24v41
q0 15 -10.5 25.5t-24.5 10.5h-87v56zM288 162q24 -6 42 -19v122h-12q-20 0 -37 7.5t-29.5 20t-20 29.5t-7.5 36v43q0 21 7 36h-61q7 -15 7 -36v-41q0 -37 -25 -62q25 -25 25 -63v-41q0 -9 -1 -14q6 -1 12 -1.5t13 -2.5zM330 321v116h-14q-15 0 -25.5 -10.5t-10.5 -25.5v-43
q0 -15 11 -26t27 -11h12z" />
    <glyph glyph-name="bn_k_ss_nna" horiz-adv-x="575" 
d="M-1 493h579v-56h-191v-89q7 1 13.5 1.5t13.5 0.5q65 0 120 -44l2 -1q11 -11 17 -24t6 -27q-1 -14 -6.5 -29t-18.5 -26l-24 -21q-23 -20 -55 -20q-30 0 -55 20l-13 10v-268h-56v82q-5 17 -26.5 30t-47.5 13q-30 0 -53 -15.5t-23 -38.5q0 -15 12.5 -28t35.5 -22l-30 -43
q-32 14 -51.5 38t-19.5 56q0 21 10 40t27.5 33t40.5 22.5t50 8.5q39 0 75 -19v8q-5 44 -54 61l-89 12q-5 1 -9 1h-9q-18 0 -36 -5l-9 -4q-13 -8 -23 -21t-10 -26q0 -4 4 -12l-56 -12q-4 11 -4 24q0 14 4 25l2 5q15 42 56 66l9 4q14 9 14 23v36q0 10 -9.5 18.5t-24.5 8.5
l-53 7v43l53 6q15 0 24.5 8.5t9.5 18.5v37q0 11 -10 19.5t-25 8.5h-87v56zM288 200q11 -2 22 -7t21 -10v102h-12q-19 0 -36 6.5t-30 18.5t-20.5 27.5t-7.5 33.5v38q0 16 5 28h-57q5 -12 5 -28v-37q0 -34 -23 -54q23 -21 23 -56v-46l24 -3zM428 228l10 -8q7 -6 17 -6
q11 0 16 5l24 21q7 6 7 13q0 10 -10 17.5t-24.5 12.5t-29.5 8t-24 3q-7 0 -13.5 -0.5t-13.5 -1.5v-100zM331 341v96h-14q-16 0 -26 -8.5t-10 -19.5v-38q0 -11 10.5 -20.5t27.5 -9.5h12z" />
    <glyph glyph-name="bn_k_ss_ba" horiz-adv-x="575" 
d="M387 -98h-56v16l-205 68v104l159 53q-4 1 -8 3l-89 12q-5 1 -9 1h-9q-18 0 -36 -5l-9 -4q-13 -8 -23 -21t-10 -26q0 -4 4 -12l-56 -12q-4 11 -4 24q0 14 4 25l2 5q15 42 56 66l9 4q14 9 14 23v36q0 10 -9.5 18.5t-24.5 8.5l-53 7v43l53 6q15 0 24.5 8.5t9.5 18.5v37
q0 11 -10 19.5t-25 8.5h-87v56h580v-56h-192v-89q7 1 13.5 1.5t13.5 0.5q65 0 120 -44l2 -1q11 -11 17 -24t6 -27q-1 -14 -6.5 -29t-18.5 -26l-24 -21q-23 -20 -55 -20q-30 0 -55 20l-13 10v-286zM288 200q11 -2 22 -7t21 -10v102h-12q-19 0 -36 6.5t-30 18.5t-20.5 27.5
t-7.5 33.5v38q0 16 5 28h-57q5 -12 5 -28v-37q0 -34 -23 -54q23 -21 23 -56v-46l24 -3zM182 27l149 -50v106q-1 8 -3 15l-146 -49v-22zM428 228l10 -8q7 -6 17 -6q11 0 16 5l24 21q7 6 7 13q0 10 -10 17.5t-24.5 12.5t-29.5 8t-24 3q-7 0 -13.5 -0.5t-13.5 -1.5v-100z
M331 341v96h-14q-16 0 -26 -8.5t-10 -19.5v-38q0 -11 10.5 -20.5t27.5 -9.5h12z" />
    <glyph glyph-name="bn_k_ss_ma" horiz-adv-x="674" 
d="M-1 493h676v-56h-34v-520h-56q-2 57 -54 75l-192 29q-11 3 -21 3q-14 0 -27 -5.5t-23.5 -15t-17 -22t-6.5 -25.5q0 -8 1 -11l-55 -13q-3 12 -3 24q0 15 4 27l1 1v2q6 17 16 33.5t25 29.5t33.5 21t40.5 8q10 0 24 -1v6q-3 46 -54 63l-89 12q-5 1 -9 1h-9q-18 0 -36 -5
l-9 -4q-13 -8 -23 -21t-10 -26q0 -4 4 -12l-56 -12q-4 11 -4 24q0 14 4 25l2 5q15 42 56 66l9 4q14 9 14 23v36q0 10 -9.5 18.5t-24.5 8.5l-53 7v43l53 6q15 0 24.5 8.5t9.5 18.5v37q0 11 -10 19.5t-25 8.5h-87v56zM387 348q7 1 13.5 1.5t13.5 0.5q65 0 120 -44l2 -1
q11 -11 17 -24t6 -27q-1 -14 -6.5 -29t-18.5 -26l-24 -21q-23 -20 -55 -20q-30 0 -55 20l-13 10v-117q60 -8 157 -24q11 -4 21.5 -8.5t19.5 -11.5v410h-198v-89zM288 200q11 -2 22 -7t21 -10v102h-12q-19 0 -36 6.5t-30 18.5t-20.5 27.5t-7.5 33.5v38q0 16 5 28h-57
q5 -12 5 -28v-37q0 -34 -23 -54q23 -21 23 -56v-46l24 -3zM428 228l10 -8q7 -6 17 -6q11 0 16 5l24 21q7 6 7 13q0 10 -10 17.5t-24.5 12.5t-29.5 8t-24 3q-7 0 -13.5 -0.5t-13.5 -1.5v-100zM331 341v96h-14q-16 0 -26 -8.5t-10 -19.5v-38q0 -11 10.5 -20.5t27.5 -9.5h12z
" />
    <glyph glyph-name="bn_k_ss_ra" horiz-adv-x="576" 
d="M200 69l131 -29v43q-3 46 -54 63l-89 12q-5 1 -9 1h-9q-18 0 -36 -5l-9 -4q-13 -8 -23 -21t-10 -26q0 -4 4 -12l-56 -12q-4 11 -4 24q0 14 4 25l2 5q15 42 56 66l9 4q14 9 14 23v36q0 10 -9.5 18.5t-24.5 8.5l-53 7v43l53 6q15 0 24.5 8.5t9.5 18.5v37q0 11 -10 19.5
t-25 8.5h-87v56h580v-56h-192v-89q7 1 13 1.5t13 0.5q21 0 46 -6t47.5 -18t37.5 -30t15 -42q-1 -14 -6.5 -29t-18.5 -26l-24 -21q-23 -20 -55 -20q-30 0 -55 20l-13 10v-224h-57v18l-161 38q-26 11 -41 35.5t-15 51.5q0 5 0.5 10t1.5 10l4 10h53l-2 -21q-1 -3 -1 -8
q0 -12 7 -22.5t18 -15.5zM288 200q11 -2 22 -7t21 -10v102h-12q-19 0 -36 6.5t-30 18.5t-20.5 27.5t-7.5 33.5v38q0 16 5 28h-57q5 -12 5 -28v-37q0 -34 -23 -54q23 -21 23 -56v-46l24 -3zM428 228l10 -8q7 -6 17 -6q11 0 16 5l24 21q7 6 7 13q0 10 -10 17.5t-24.5 12.5
t-29.5 8t-24 3q-7 0 -13.5 -0.5t-13.5 -1.5v-100zM331 341v96h-14q-16 0 -26 -8.5t-10 -19.5v-38q0 -11 10.5 -20.5t27.5 -9.5h12z" />
    <glyph glyph-name="bn_k_sa" horiz-adv-x="625" 
d="M-3 493h630v-56h-35v-494h-56v21l-388 49v-1l-8 1q-38 5 -61 32.5t-23 65.5v8l10 26h43l3 -33q0 -16 8.5 -28.5t25.5 -14.5l5 -1v1l142 -18v42l-260 85v128l260 86v45h-296v56zM89 219l204 -67v181l-204 -68v-46zM536 21v416h-187v-28q7 1 14 1.5t14 0.5q62 0 110 -45
l1 -1h1q21 -24 21 -53q-1 -14 -6 -28t-16 -25l-22 -21q-23 -22 -52 -22q-14 0 -28 5t-25 17l-9 9l40 40l9 -9q6 -6 13 -6t13 6l21 21q6 6 6 13q0 10 -9 18t-21 13t-25 8t-21 3q-14 0 -29 -3v-307z" />
    <glyph glyph-name="bn_kh_ba" horiz-adv-x="440" 
d="M407 -83h-57v15l-205 68v94l32 10l-81 24v56q55 6 90 41.5t35 84.5v14q0 7 -2 15q-47 -45 -110 -48h-2q-32 2 -54.5 22t-22.5 51v29q0 31 23 51.5t54 20.5l82 -6v-45l-82 -6q-10 0 -15.5 -5t-5.5 -10v-29q0 -5 6 -11t16 -6q28 0 50 11.5t39 31.5l30 35q50 -59 50 -131
q0 -38 -21 -71.5t-51 -56.5l-11 -7l78 -23l78 27v384h57v-54h36v-56h-36v-520zM201 41l149 -50v112l-149 -50v-12z" />
    <glyph glyph-name="bn_kh_ra" horiz-adv-x="440" 
d="M86 115l-1 -19q-1 -3 -1 -8q0 -14 8.5 -25.5t22.5 -13.5l5 -1l229 -50v57l-253 73v56q55 6 90 41.5t35 84.5v14q0 7 -2 15q-47 -45 -110 -48h-2q-32 2 -54.5 22t-22.5 51v29q0 31 23 51.5t54 20.5l82 -6v-45l-82 -6q-10 0 -15.5 -5t-5.5 -10v-29q0 -5 6 -11t16 -6
q28 0 50 11.5t39 31.5l30 35q50 -59 50 -131q0 -38 -21 -71.5t-51 -56.5l-11 -7l155 -45v3h1v430h57v-54h36v-56h-36v-520h-59v23l-245 54q-32 7 -53.5 32.5t-21.5 60.5q0 5 0.5 10t1.5 10l3 8h53z" />
    <glyph glyph-name="bn_ga_ukaar" horiz-adv-x="529" 
d="M451 243q45 -33 45 -86v-50q0 -42 -28.5 -72t-70.5 -34h-192q-33 2 -61 16t-48 36.5t-31 51.5t-11 62h42q0 -23 10 -43t26 -35t37 -23.5t44 -8.5h176q21 0 35.5 14.5t14.5 35.5v50q0 20 -14 34t-34 14h-11l-53 7v43l53 6q12 0 20 8.5t8 19.5v12q0 86 -85 126l-20 -115v-8
h-56q0 25 -10 48.5t-27 41.5t-41 28.5t-51 10.5q-12 0 -20.5 -8.5t-8.5 -20.5v-2q0 -11 8.5 -19.5t20.5 -8.5q18 0 33 -7t26.5 -18.5t18 -27t6.5 -32.5v-2q0 -35 -25 -59.5t-60 -24.5l-72 7v42l72 7q12 0 20 8t8 20v2q0 12 -8.5 20.5t-20.5 8.5h-1q-35 2 -58.5 26t-23.5 58
v2q0 34 24.5 60t61.5 26h1q92 -5 144 -73l10 76q38 0 71.5 -14.5t59.5 -39.5t42 -59t18 -74v-17q0 -24 -14 -46z" />
    <glyph glyph-name="bn_g_ga" horiz-adv-x="336" 
d="M138 -55l-33 4v46q22 3 32.5 5.5t14.5 5t4 5.5v7q0 32 -18 32q-31 2 -51.5 22.5t-20.5 49.5v14q0 23 13.5 43t35.5 26l-33 5v46l35 5q11 0 19.5 8.5t8.5 19.5v11q-1 11 -10 17q-10 6 -24 10t-29 9t-25 16q-18 18 -23 45l-1 20h1q3 32 26.5 53t57.5 23q76 -3 129 -53v111
h56v-58h35v-56h-35v-487h-56v35q-14 115 -37 139q-28 28 -71 30q-7 0 -12.5 -5t-5.5 -13v-14q0 -6 5.5 -11.5t12.5 -5.5q31 -2 51.5 -23t20.5 -51v-13q0 -30 -21 -51.5t-52 -21.5zM186 241q-15 -22 -41 -31q58 -5 102 -45v142q0 25 -10 48.5t-27 41.5t-41 28.5t-51 10.5
q-11 0 -20 -8t-9 -19t8.5 -19t19.5 -8q36 -2 59.5 -26t24.5 -57v-10q0 -26 -15 -48z" />
    <glyph glyph-name="bn_g_da" horiz-adv-x="518" 
d="M520 493v-56h-218v-199l126 61v13h57v-317h-57v241l-182 -88v173q-4 23 -14 44q-11 22 -28 37.5t-39 24.5t-47 9q-12 0 -20.5 -8.5t-8.5 -20.5v-17q0 -11 8.5 -19.5t19.5 -8.5q18 0 33.5 -7.5t26.5 -19.5t17.5 -27.5t6.5 -31.5v-16q0 -35 -24.5 -60t-59.5 -25l-35 5v46
l35 5q11 0 19.5 8.5t8.5 20.5v16q0 12 -8.5 21t-20.5 9h-1q-35 2 -58.5 26t-23.5 58v17q0 35 24 59.5t60 26.5h2q74 -3 127 -52v52h1v58h55v-58h218z" />
    <glyph glyph-name="bn_g_dha" horiz-adv-x="476" 
d="M477 437h-176v-249l86 29v22h56v-269h-56v188l-86 -29v-202h-56v12l-176 58v114l176 59v140q0 27 -9.5 50t-27 40t-40.5 27.5t-50 11.5q-13 -1 -21 -9.5t-8 -19.5v-37q0 -12 8 -20t20 -8q35 -2 59 -26t24 -59v-37q0 -35 -24.5 -59.5t-59.5 -24.5l-47 7v42l47 7
q12 0 20 8.5t8 19.5v37q0 12 -8.5 20.5t-20.5 8.5h-1q-34 2 -57.5 26t-23.5 58v37q0 17 6.5 32t17.5 26.5t26 18.5t33 8h3q74 -3 126 -53v108h56v-57h176v-56zM245 -2v113l-120 -40v-33z" />
    <glyph glyph-name="bn_g_na" horiz-adv-x="336" 
d="M82 226l35 5q11 0 19.5 8.5t8.5 20.5v16q0 12 -8.5 21t-20.5 9h-1q-35 2 -58.5 26t-23.5 58v17q0 35 24 59.5t60 26.5h2q75 -3 128 -53v111h56v-58h39v-56h-39v-468h-56v100q-5 17 -26.5 30t-47.5 13q-30 0 -53 -15.5t-23 -38.5q0 -15 12.5 -28t35.5 -22l-30 -43
q-32 14 -51.5 38t-19.5 56q0 21 10 40t27.5 33t40.5 22.5t50 8.5q39 0 75 -19v163q0 25 -10 48.5t-27 41.5t-41 28.5t-51 10.5q-12 0 -20.5 -8.5t-8.5 -20.5v-17q0 -11 8.5 -19.5t19.5 -8.5q18 0 33.5 -7.5t26.5 -19.5t17.5 -27.5t6.5 -31.5v-16q0 -35 -24.5 -60t-59.5 -25
l-35 5v46z" />
    <glyph glyph-name="bn_g_ba" horiz-adv-x="336" 
d="M303 -51h-56v16l-205 68v94l205 69v111q0 25 -10 48.5t-27 41.5t-41 28.5t-51 10.5q-12 0 -20.5 -8.5t-8.5 -20.5v-17q0 -11 8.5 -19.5t19.5 -8.5q18 0 33.5 -7.5t26.5 -19.5t17.5 -27.5t6.5 -31.5v-16q0 -35 -24.5 -60t-59.5 -25l-35 5v46l35 5q11 0 19.5 8.5t8.5 20.5
v16q0 12 -8.5 21t-20.5 9h-1q-35 2 -58.5 26t-23.5 58v17q0 35 24 59.5t60 26.5h2q75 -3 128 -53v111h56v-58h35v-56h-35v-488zM98 74l149 -50v112l-149 -50v-12z" />
    <glyph glyph-name="bn_g_ma" horiz-adv-x="484" 
d="M302 493h184v-56h-35v-430h-56q-2 57 -54 75l-87 14q-11 3 -21 3q-14 0 -27 -5.5t-23.5 -15t-17 -22t-6.5 -25.5q0 -8 1 -11l-55 -13q-3 12 -3 24q0 15 4 27l1 1v2q11 34 36 58t63 33h40v158q0 26 -10 49.5t-27.5 40.5t-40.5 27.5t-50 11.5q-12 -1 -20 -9.5t-8 -19.5v-29
q0 -12 8 -20t19 -8q36 -2 60 -26t24 -59v-23q0 -35 -24.5 -59.5t-59.5 -24.5l-47 7v42l47 7q12 0 20 8.5t8 19.5v23q0 12 -8.5 20.5t-20.5 8.5h-1q-35 2 -58.5 26t-23.5 58v29q0 17 6.5 32t18 26.5t26.5 18.5t33 8h3q74 -3 126 -53v108h56v-57zM354 137q11 -4 21.5 -8.5
t19.5 -11.5v320h-93v-292z" />
    <glyph glyph-name="bn_g_ra" horiz-adv-x="336" 
d="M82 186l35 5q11 0 19.5 8.5t8.5 20.5v36q0 12 -8.5 21t-20.5 9h-1q-35 2 -58.5 26t-23.5 58v37q0 35 24 59.5t60 26.5h2q75 -3 128 -53v111h56v-58h35v-56h-35v-468h-56v20l-163 35l-8 3q-32 6 -53.5 32.5t-21.5 60.5q0 5 0.5 10t1.5 10l16 44h43l-4 -55q-1 -3 -1 -8
q0 -14 8.5 -25.5t22.5 -13.5l5 -1l154 -34v260q0 25 -10 48.5t-27 41.5t-41 28.5t-51 10.5q-12 0 -20.5 -8.5t-8.5 -20.5v-37q0 -11 8.5 -19.5t19.5 -8.5q18 0 33.5 -7.5t26.5 -19.5t17.5 -27.5t6.5 -31.5v-36q0 -35 -24.5 -60t-59.5 -25l-35 5v46z" />
    <glyph glyph-name="bn_g_la" horiz-adv-x="336" 
d="M82 226l35 5q11 0 19.5 8.5t8.5 20.5v16q0 12 -8.5 21t-20.5 9h-1q-35 2 -58.5 26t-23.5 58v17q0 35 24 59.5t60 26.5h2q75 -3 128 -53v111h56v-58h35v-56h-35v-468h-56v82q-15 22 -21 28q-7 7 -15 7q-11 0 -19.5 -7.5t-8.5 -20.5q0 -2 0.5 -3.5t0.5 -3.5l-43 -7
q-1 11 -3 21t-6.5 18t-12.5 13t-22 5q-16 0 -26.5 -11.5t-10.5 -25.5v-22q0 -10 10 -10l41 -6v-40l-41 -6q-26 0 -44 18t-18 44v28q3 35 28.5 59t60.5 24q29 0 54 -17l15 -13q5 5 17 9.5t26 4.5q10 0 20 -2q9 -2 18 -7v179q0 25 -10 48.5t-27 41.5t-41 28.5t-51 10.5
q-12 0 -20.5 -8.5t-8.5 -20.5v-17q0 -11 8.5 -19.5t19.5 -8.5q18 0 33.5 -7.5t26.5 -19.5t17.5 -27.5t6.5 -31.5v-16q0 -35 -24.5 -60t-59.5 -25l-35 5v46z" />
    <glyph glyph-name="bn_gh_na" horiz-adv-x="398" 
d="M309 68v18l-245 73v62l60 49q-16 4 -32 13.5t-29 24t-21 33t-8 39.5q0 39 15 57h-54v56h405v-56h-35v-526h-56v82q-5 17 -26.5 30t-47.5 13q-30 0 -53 -15.5t-23 -38.5q0 -15 12.5 -28t35.5 -22l-30 -43q-32 14 -51.5 38t-19.5 56q0 21 10 40t27.5 33t40.5 22.5t50 8.5
q39 0 75 -19zM309 437h-144q-33 0 -54 -18t-21 -39t21 -39t54 -18h8q2 0 4 -0.5t4 -0.5q5 0 10 1t10 3l25 -42l-105 -81l188 -56v290z" />
    <glyph glyph-name="bn_gh_ba" horiz-adv-x="398" 
d="M365 -51h-56v16l-205 68v92l35 12l-75 22v62l60 49q-16 4 -32 13.5t-29 24t-21 33t-8 39.5q0 39 15 57h-54v56h405v-56h-35v-488zM309 193v244h-144q-33 0 -54 -18t-21 -39t21 -39t54 -18h8q2 0 4 -0.5t4 -0.5q5 0 10 1t10 3l25 -42l-105 -81l116 -34zM160 74l149 -50
v110l-75 -25l-74 -25v-10z" />
    <glyph glyph-name="bn_gh_ra" horiz-adv-x="398" 
d="M72 148l-1 -11q-1 -3 -1 -8q0 -14 8.5 -25.5t22.5 -13.5l5 -1l203 -44v42l-245 72v62l60 49q-16 4 -32 13.5t-29 24t-21 33t-8 39.5q0 39 15 57h-54v56h405v-56h-35v-468h-57v18l-219 48q-32 7 -53.5 33t-21.5 60q0 5 0.5 10t1.5 10h56zM309 148v289h-144q-33 0 -54 -18
t-21 -39t21 -39t54 -18h8q2 0 4 -0.5t4 -0.5q5 0 10 1t10 3l25 -42l-105 -81z" />
    <glyph glyph-name="bn_ng_ka" horiz-adv-x="498" 
d="M501 437h-12l-83 -83q-11 -11 -24.5 -16.5t-27.5 -5.5q-29 0 -51 22l-21 20q-12 11 -16.5 25t-5.5 28q0 6 1 10h-267v56h507v-56zM366 393l44 44h-90q-4 -8 -4 -11q0 -6 6 -12l20 -21q5 -5 12 -5t12 5zM465 141q0 -31 -22 -53l-22 -21q-23 -22 -52 -22q-30 0 -53 22l-5 5
l33 45l12 -11q5 -5 13 -5t13 5l21 22q6 6 6 13q0 10 -9 18t-21.5 13t-25.5 8t-21 3q-13 0 -28 -3l1 -182v-53h-57v12l-215 70h1v112l214 80v21q0 23 -9 43.5t-25 35.5t-36.5 23.5t-43.5 8.5q-10 0 -16.5 -7t-6.5 -17v-33q0 -9 6.5 -16t16.5 -7l85 -7v-42l-85 -7
q-33 0 -56 23t-23 56v33q0 33 22.5 56t55.5 24h3q35 -1 65.5 -14.5t53 -36t35.5 -53.5t14 -66q18 3 35 3q28 0 51.5 -10.5t40 -25.5t25.5 -32t9 -31zM90 68l158 -51v142l-158 -60v-31z" />
    <glyph glyph-name="bn_ng_k_ra" horiz-adv-x="498" 
d="M117 -16l131 -29v66l-215 60v105l215 69v15q-1 18 -10 34.5t-24 29.5t-35.5 20.5t-44.5 7.5q-11 0 -17 -5.5t-6 -11.5v-28q0 -5 6 -11t17 -6l85 -6v-44l-85 -6q-32 0 -55.5 20.5t-23.5 52.5v28q0 32 23 52.5t55 20.5h3q35 -1 65.5 -12.5t53 -31t35.5 -46t14 -57.5
q7 1 14 1.5t14 0.5q60 0 109 -38h2v-1q22 -21 22 -50q-1 -14 -6 -27t-17 -23l-23 -19q-23 -18 -50 -18q-29 0 -51 18l-10 8l36 43l10 -8q5 -5 15 -5q9 0 15 5l20 19q5 5 5 7q0 8 -9 14t-21.5 10.5t-25.5 6.5t-20 2q-14 0 -29 -3v-335h-57v18l-161 38q-26 11 -41 35.5
t-15 51.5q0 5 0.5 10t1.5 10l4 10h53l-2 -21q-1 -3 -1 -8q0 -12 7 -22.5t18 -15.5zM500 437h-12l-84 -73q-11 -9 -24 -13.5t-26 -4.5q-27 0 -49 18l-22 18q-23 23 -23 49v6h-266v56h506v-56zM90 124l158 -44v116l-158 -52v-20zM368 407l34 30h-83q-3 -3 -3 -6t5 -6l19 -18
q5 -5 14 -5q8 0 14 5z" />
    <glyph glyph-name="bn_ng_kha" horiz-adv-x="479" 
d="M482 437h-36v-586h-56v14l-244 81l17 53q37 3 65 27.5t36 58.5q-33 -24 -74 -27h-5q-28 0 -48.5 19t-22.5 47l5 28l42 4q-26 2 -47 11q-25 12 -43 31.5t-28 45.5t-10 54v13q0 7 2 15l43 1q-1 -3 -1 -7v-6q0 -19 7.5 -37t20 -32.5t30 -23t37.5 -8.5q18 0 34 7.5t28 19.5
t19 28t7 34v6q0 4 -1 8q-20 -16 -48 -16h-17q-33 0 -56.5 23.5t-24.5 57.5q-40 16 -58 56h-57v56h103v-12q0 -25 21 -41q29 62 97 66h2q24 -1 40 -17.5t16 -39.5v-19q0 -29 -25 -47h41l13 -27q6 -13 8.5 -27.5t2.5 -28.5q0 -23 -7.5 -44t-20.5 -39q34 -47 34 -103
q0 -80 -62 -133l-14 -10l143 -47v634h56v-65h36v-56zM170 128q0 -5 4 -10t9 -5q23 0 43 13.5t32 33.5q-5 12 -10 18q-35 -22 -76 -22h-11zM211 356q20 0 25 20q-10 -2 -15 -2h-51q7 -18 24 -18h17zM220 450q-25 -1 -40 -20h41v19z" />
    <glyph glyph-name="bn_ng_ga" horiz-adv-x="433" 
d="M439 493v-56h-12l-82 -83q-24 -21 -51 -21q-14 1 -27.5 5.5t-24.5 15.5l-21 21q-11 11 -15 24t-5 27q0 7 1 11h-203v56h440zM306 394l43 43h-89q-3 -5 -3 -11q0 -7 4 -11l21 -21q4 -5 11 -5q8 0 13 5zM402 30q0 -13 13 -13v-49q-32 0 -50.5 16.5t-18.5 45.5v198
l-105 -111q-19 -20 -34.5 -31.5t-29.5 -17.5t-27.5 -7.5t-28.5 -1.5q-28 0 -54 14t-48 37l28 27q28 -25 67 -25q31 0 61 19t39 53l2 9q1 7 1.5 12t0.5 7q0 41 -27.5 68.5t-68.5 28.5q-7 0 -11.5 -5t-4.5 -12v-30q0 -7 4.5 -12t11.5 -5l75 -7v-41l-75 -7q-30 0 -51.5 21
t-21.5 51v30q0 30 21 50.5t51 22.5h1q58 -2 99.5 -35.5t52.5 -102.5v-3l94 94l34 -32v-256z" />
    <glyph glyph-name="bn_ng_ma" horiz-adv-x="464" 
d="M172 156q-32 0 -57.5 11.5t-43.5 31t-28 45.5t-10 54v13q0 7 2 15l43 1q-1 -3 -1 -7v-6q0 -19 7.5 -37t20 -32.5t30 -23t37.5 -8.5q18 0 34 7.5t28 19.5t19 28t7 34v6q0 4 -1 8q-20 -16 -48 -16h-17q-33 0 -56.5 23.5t-24.5 57.5q-40 16 -58 56h-57v56h103v-12
q0 -25 21 -41q29 62 97 66h2q20 -1 35 -13h210v-56h-35v-450h-56q-2 57 -54 75l-87 14q-11 3 -21 3q-14 0 -27 -5.5t-23.5 -15t-17 -22t-6.5 -25.5q0 -8 1 -11l-55 -13q-3 12 -3 24q0 15 4 27l1 1v2q11 34 36 58t63 33h40v34q-26 -10 -54 -10zM252 383h41l13 -27
q6 -13 8.5 -27.5t2.5 -28.5q0 -38 -19 -70q-7 -11 -16 -22v-83l52 -8q11 -4 21.5 -8.5t19.5 -11.5v340h-98v-7q0 -29 -25 -47zM211 356q20 0 25 20q-10 -2 -15 -2h-51q7 -18 24 -18h17zM220 450q-25 -1 -40 -20h41v19z" />
    <glyph glyph-name="bn_c_nya" horiz-adv-x="723" 
d="M-4 437v56h731v-56h-638v-32l123 -39q23 -8 41 -22.5t29 -34.5q19 15 46 15l3 1v-1q122 -8 169 -116q46 48 113 49h2q32 -1 53.5 -23t21.5 -52v-31q0 -26 -17 -46q17 -20 17 -47v-30q0 -31 -21.5 -53t-53.5 -23h-1q-58 1 -101 38v-77h-56v11l-261 56l-6 1q-31 8 -49 30.5
t-18 52.5q0 5 0.5 8.5t1.5 8.5l12 24h44l-1 -36q-1 -2 -1 -6q0 -22 22 -27l11 -2l245 -52v160q-1 27 -11 50t-27 40t-39.5 26.5t-49.5 9.5q-13 0 -21 -8.5t-8 -20.5v-36q0 -12 8 -20t20 -8l93 -7v-42l-93 -7q-45 0 -72 40q-20 -19 -45 -26l-179 -56v360h-37zM615 201
q-42 -1 -70.5 -27.5t-31.5 -68.5q3 -42 31 -68.5t70 -28.5q20 2 20 20v30q0 19 -19 19l-39 7v42l39 7q8 0 13.5 5.5t5.5 12.5v31q0 19 -19 19zM195 312l-106 35v-194l106 33q46 19 46 63t-46 63z" />
    <glyph glyph-name="bn_c_ra" horiz-adv-x="367" 
d="M68 -3l-8 2q-32 6 -53.5 32.5t-21.5 60.5q0 5 0.5 10t1.5 10l16 44h43l-4 -55q-1 -3 -1 -8q0 -14 8.5 -25.5t22.5 -13.5l5 -1l158 -34v106l-167 -52v364h-70v56h371v-56h-244v-33l123 -40q39 -13 62.5 -45t23.5 -72q0 -42 -24 -74q-8 -12 -19 -21v-209h-57v18zM231 310
l-106 34v-194l106 33q46 19 46 64q0 44 -46 63z" />
    <glyph glyph-name="bn_ch_ba" horiz-adv-x="364" 
d="M157 176q15 -7 34 -7q37 4 59.5 23t22.5 54q0 19 -8 45q-11 -55 -63 -71l-134 -43v260h-71v56h370v-56h-243v-15l82 -27l39 -14q17 -6 30 -17t24 -23l1 -1q17 -23 24 -43.5t7 -44.5q0 -42 -22.5 -75.5t-59.5 -50.5l57 -32l3 -1q4 0 8 4l50 -26q-23 -35 -57 -35h-1v-129
h-53v14l-170 57v79l107 35l-65 37l-12 6zM185 343l-69 20l8 -109l61 19q25 10 25 35t-25 35zM139 16l117 -40v81l-1 1l-116 -40v-2z" />
    <glyph glyph-name="bn_ch_ra" horiz-adv-x="364" 
d="M157 176q15 -7 34 -7q37 4 59.5 23t22.5 54q0 19 -8 45q-11 -55 -63 -71l-134 -43v260h-71v56h370v-56h-243v-15l82 -27l39 -14q17 -6 30 -17t24 -23l1 -1q17 -23 24 -43.5t7 -44.5q0 -42 -22.5 -75.5t-59.5 -50.5l57 -32l3 -1q4 0 8 4l50 -26q-20 -31 -48 -35v-67h-57
v18l-174 38q-32 7 -53.5 33t-21.5 60q0 5 0.5 10t1.5 10l7 19h50l-2 -30q-1 -3 -1 -8q0 -14 8.5 -25.5t22.5 -13.5l5 -1l158 -34v8l-135 76l-12 6zM185 343l-69 20l8 -109l61 19q25 10 25 35t-25 35z" />
    <glyph glyph-name="bn_j_ja" horiz-adv-x="793" 
d="M277 69q-33 -14 -70 -14q-34 0 -65.5 13t-55.5 35.5t-38.5 53.5t-14.5 68q0 17 5 42l42 -1q-1 -5 -1 -9v-8q0 -26 10 -51t27 -44.5t40.5 -31.5t49.5 -12t49 10t40.5 27.5t27.5 40t10 48.5q0 9 -1.5 16.5t-3.5 15.5q-26 -26 -69 -26h-21q-20 0 -37.5 7.5t-31 20.5
t-21.5 30.5t-8 37.5v99h-142v56h797v-56h-598v-30q19 11 45 11h83q26 0 49.5 -9t41.5 -25q7 -6 13 -12q17 13 35 24q22 13 50 13h93q31 0 59 -12t49 -33t33 -49t12 -59v-184q0 -5 2 -8t10 -5v-55q-29 0 -49 20t-20 50v182q0 42 -28 69.5t-68 27.5h-93q-19 0 -33.5 -12
t-19.5 -29q1 -3 2 -7q5 -12 15 -21q13 -10 31 -10h24q21 0 36 15t15 36l56 1l2 1l18 -46q7 -18 11 -35t4 -36q0 -42 -16 -78.5t-43 -63.5t-63.5 -42.5t-77.5 -15.5q-51 0 -92 21q-39 21 -67 60q-18 -13 -39 -22zM376 344q-23 18 -51 18h-83q-16 0 -28 -10t-16 -25
q4 -12 14.5 -21t25.5 -9h21q18 0 30.5 12.5t12.5 30.5v4h52l4 2l17 -44q6 -17 10 -33.5t4 -33.5q0 -38 -15 -71q-7 -17 -18 -32q16 -25 40 -42q35 -25 80 -25q27 0 53 11t45.5 30t31.5 44.5t12 54.5q0 25 -7 46q-32 -32 -78 -32h-24q-21 0 -40.5 8t-34 22.5t-23.5 33.5
q-5 11 -7 24q-8 22 -28 37z" />
    <glyph glyph-name="bn_j_j_ba" horiz-adv-x="793" 
d="M760 256v-399h-53v14l-170 57v79l166 55v194q0 42 -28 69.5t-68 27.5h-93q-19 0 -33.5 -12t-19.5 -29q1 -3 2 -7q5 -12 15 -21q13 -10 31 -10h24q21 0 36 15t15 36l56 1l2 1l18 -46q7 -18 11 -35t4 -36q0 -42 -16 -78.5t-43 -63.5t-63.5 -42.5t-77.5 -15.5q-51 0 -92 21
q-39 21 -67 60q-18 -13 -39 -22q-33 -14 -70 -14q-34 0 -65.5 13t-55.5 35.5t-38.5 53.5t-14.5 68q0 17 5 42l42 -1q-1 -5 -1 -9v-8q0 -26 10 -51t27 -44.5t40.5 -31.5t49.5 -12t49 10t40.5 27.5t27.5 40t10 48.5q0 9 -1.5 16.5t-3.5 15.5q-26 -26 -69 -26h-21
q-20 0 -37.5 7.5t-31 20.5t-21.5 30.5t-8 37.5v99h-142v56h797v-56h-598v-30q19 11 45 11h83q26 0 49.5 -9t41.5 -25q7 -6 13 -12q17 13 35 24q22 13 50 13h93q31 0 59 -12t49 -33t33 -49t12 -59zM376 344q-23 18 -51 18h-83q-16 0 -28 -10t-16 -25q4 -12 14.5 -21t25.5 -9
h21q18 0 30.5 12.5t12.5 30.5v4h52l4 2l17 -44q6 -17 10 -33.5t4 -33.5q0 -38 -15 -71q-7 -17 -18 -32q16 -25 40 -42q35 -25 80 -25q27 0 53 11t45.5 30t31.5 44.5t12 54.5q0 25 -7 46q-32 -32 -78 -32h-24q-21 0 -40.5 8t-34 22.5t-23.5 33.5q-5 11 -7 24q-8 22 -28 37z
M590 -34l117 -40v82l-117 -40v-2z" />
    <glyph glyph-name="bn_j_jha" horiz-adv-x="642" 
d="M454 297q0 29 -27 50.5t-69 21.5h-93q-21 0 -35 -9.5t-17 -18.5q3 -7 15 -15.5t32 -8.5h24q23 0 37 11.5t14 23.5v7h57l18 -37q8 -16 12 -30.5t4 -31.5q0 -35 -16 -65t-43 -52.5t-63.5 -35.5t-77.5 -13q-39 0 -73.5 12t-61 32.5t-42 49t-15.5 61.5q0 20 6 41l41 -1
q-1 -5 -1.5 -9.5t-0.5 -9.5q0 -24 12 -46t32.5 -38.5t47 -26.5t55.5 -10q27 0 53 8.5t46 23.5t32 35t12 42q0 16 -6 31q-35 -27 -79 -27h-24q-20 0 -39 6.5t-34 18t-24 28t-9 36.5v86h-159v56h556v66h58v-66h35v-56h-35v-481h-58v42l-40 29v-96h-53v14l-170 57v79l166 55
v161zM511 297v-201l40 -29v370h-340v-24q25 13 54 13h93q30 0 57.5 -10t49 -27t34 -40.5t12.5 -51.5zM341 40l117 -40v82l-117 -40v-2z" />
    <glyph glyph-name="bn_j_nya" horiz-adv-x="640" 
d="M-3 493h645v-56h-314l44 -81q14 -20 35 -24q44 54 123 59h2q32 -2 53.5 -23.5t21.5 -53.5v-30q0 -28 -17 -48q17 -20 17 -48v-30q0 -32 -22 -53.5t-53 -23.5h-1q-74 3 -119 53l-4 -7q-60 -112 -181 -115q-43 0 -78.5 15.5t-60.5 42t-39 61.5t-14 73q0 45 19 89h38
q-12 -29 -12 -60q0 -35 12 -65t32 -52.5t47 -35.5t57 -13q28 0 54 11t45 30t30.5 45.5t11.5 56.5v7q-25 -16 -54 -16q-15 0 -30 3l-22 7q-35 11 -56.5 36.5t-21.5 63.5q0 17 4 30l26 96h-218v56zM531 335q-43 -1 -72 -28.5t-33 -70.5q4 -42 32 -70.5t73 -29.5q9 0 14.5 6.5
t5.5 15.5v30q0 20 -19 20l-42 7v41l42 7q8 0 13.5 6.5t5.5 14.5v30q0 9 -5.5 15t-14.5 6zM361 290q-23 15 -36 38l-56 97l-28 -100q-1 -4 -1 -12q-1 -17 10.5 -30.5t26.5 -18.5l23 -7q10 -2 15 -2q33 0 46 35z" />
    <glyph glyph-name="bn_j_ba" horiz-adv-x="544" 
d="M511 297v-366h-53v14l-170 57v79l166 55v161q0 29 -27 50.5t-69 21.5h-93q-21 0 -35 -9.5t-17 -18.5q3 -7 15 -15.5t32 -8.5h24q23 0 37 11.5t14 23.5v7h57l18 -37q8 -16 12 -30.5t4 -31.5q0 -35 -16 -65t-43 -52.5t-63.5 -35.5t-77.5 -13q-39 0 -73.5 12t-61 32.5
t-42 49t-15.5 61.5q0 20 6 41l41 -1q-1 -5 -1.5 -9.5t-0.5 -9.5q0 -24 12 -46t32.5 -38.5t47 -26.5t55.5 -10q27 0 53 8.5t46 23.5t32 35t12 42q0 16 -6 31q-35 -27 -79 -27h-24q-20 0 -39 6.5t-34 18t-24 28t-9 36.5v86h-159v56h552v-56h-336v-24q25 13 54 13h93
q30 0 57.5 -10t49 -27t34 -40.5t12.5 -51.5zM341 40l117 -40v82l-117 -40v-2z" />
    <glyph glyph-name="bn_j_ra" horiz-adv-x="544" 
d="M41 154l-1 -22q-1 -3 -1 -8q0 -14 8.5 -25.5t22.5 -13.5l5 -1l379 -68v281q0 29 -27 50.5t-69 21.5h-93q-21 0 -35 -9.5t-17 -18.5q3 -7 15 -15.5t32 -8.5h24q23 0 37 11.5t14 23.5v7h57l18 -37q8 -16 12 -30.5t4 -31.5q0 -35 -16 -65t-43 -52.5t-63.5 -35.5t-77.5 -13
q-48 0 -86 15.5t-66 44.5l-6 6q-34 40 -34 89q0 20 6 41l41 -1q-1 -5 -1.5 -9.5t-0.5 -9.5q0 -24 12 -46t32.5 -38.5t47 -26.5t55.5 -10q27 0 53 8.5t46 23.5t32 35t12 42q0 16 -6 31q-35 -27 -79 -27h-24q-20 0 -39 6.5t-34 18t-24 28t-9 36.5v86h-159v56h554v-56h-338v-24
q25 13 54 13h93q30 0 57.5 -10t49 -27t34 -40.5t12.5 -51.5v-358h-57v20l-396 71q-33 6 -54.5 33t-21.5 60q0 5 0.5 10t1.5 10l4 11h53z" />
    <glyph glyph-name="bn_ny_ca" horiz-adv-x="590" 
d="M557 348v-36q0 -34 -22 -56q22 -23 22 -56v-37q0 -35 -24 -59.5t-60 -25.5h-2q-77 3 -127 52v-169h-56v21l-243 79v112l243 91v13q-2 31 -15 59t-34 49t-49 33.5t-61 12.5q-17 0 -28.5 -11.5t-11.5 -28.5v-44q0 -16 11.5 -27.5t28.5 -11.5l112 -7v-42l-112 -7
q-20 0 -37.5 7.5t-30.5 20.5t-20.5 30t-7.5 37v44q0 39 27.5 67t67.5 30h3q96 -5 157 -71v76h56v-112q52 51 127 52h2q36 -1 60 -25.5t24 -59.5zM101 102l187 -61v163l-187 -71v-31zM500 163v37q0 11 -8 19.5t-19 8.5l-48 7v42l48 7q11 0 19 8t8 20v36q0 12 -8 20.5t-20 8.5
q-26 0 -48.5 -9.5t-39.5 -26t-27.5 -38.5t-12.5 -47q2 -26 12.5 -48t27.5 -38t39.5 -25.5t48.5 -10.5q12 0 20 8.5t8 20.5z" />
    <glyph glyph-name="bn_ny_cha" horiz-adv-x="471" 
d="M438 447v-26q0 -23 -13 -40q13 -16 13 -40v-26q0 -28 -19.5 -47.5t-48.5 -20.5h-1q-70 3 -110 55l-4 -14l49 -35l15 -14l1 1q41 -43 41 -98q0 -38 -21 -73t-61 -54l57 -32h3q5 0 8 4l50 -27q-22 -34 -57 -34q-17 0 -30 7l-2 1l-7 4l-144 80q-20 10 -34 25l40 40
q25 -24 58 -24q26 0 50.5 17t30.5 48q-18 -12 -43 -14h-119l83 266q-10 36 -40 60.5t-70 24.5q-10 0 -17 -7.5t-7 -16.5v-34q0 -9 7 -16t16 -7l86 -7v-42l-86 -7q-32 0 -55.5 23t-23.5 56v34q0 33 22.5 56t56.5 24h2q87 -4 136 -70q40 63 118 68h2q29 -1 48.5 -20.5
t19.5 -47.5zM280 182q1 3 1 8q0 10 -10 17l-34 24l-20 -64h41q16 1 22 15zM381 315v26q0 12 -11 12l-34 7v42l34 7q11 0 11 12v26q0 12 -12 12q-33 -1 -56 -23t-26 -55q3 -33 25.5 -55t56.5 -23q12 0 12 12z" />
    <glyph glyph-name="bn_ny_ja" horiz-adv-x="523" 
d="M490 42q0 -13 13 -13v-56q-28 1 -47.5 19.5t-21.5 45.5v171q-8 -4 -19 -4h-1q-84 4 -131 69l-11 -45q-2 -8 -2 -11q0 -11 6.5 -20.5t15.5 -11.5l18 -5q6 -2 8 -2q11 0 21.5 8.5t14.5 20.5v1l53 -15v-2q3 -17 3 -33q0 -40 -15.5 -73.5t-41 -58t-59.5 -38.5t-71 -14
q-35 0 -66.5 14t-55.5 38t-38 55.5t-14 66.5q0 33 14 70h47q-5 -11 -6.5 -24.5t-1.5 -27.5q0 -61 35.5 -99t91.5 -38q21 0 41.5 8t37.5 21.5t28.5 32t15.5 39.5q-15 -7 -34 -7q-11 0 -23 3l-16 5q-29 9 -47 32t-18 55q0 11 3 23l31 115q-9 48 -44 78t-86 32q-13 -1 -21.5 -9
t-8.5 -20v-39q0 -12 8.5 -20.5t21.5 -8.5l96 -7v-42l-96 -7q-36 0 -60.5 25t-24.5 60v39q0 35 24 60t60 26h3q102 -4 156 -86q44 75 137 80h2q32 -2 53.5 -24t21.5 -53v-31q0 -29 -17 -49q17 -20 17 -48v-30q0 -5 -0.5 -10t-1.5 -10q1 -7 1.5 -13t0.5 -13v-195zM414 261
q9 0 14.5 6.5t5.5 15.5v30q0 20 -19 20l-42 8v41l42 7q19 0 19 21v31q0 19 -20 19q-39 -1 -66 -22t-37 -57l-3 -20q4 -42 32.5 -70.5t73.5 -29.5z" />
    <glyph glyph-name="bn_ny_jha" horiz-adv-x="622" 
d="M114 227l229 -49v146q-3 49 -35.5 81t-80.5 34q-11 -1 -18 -8t-7 -17v-34q0 -9 7 -16t17 -7l87 -7v-42l-87 -7q-33 0 -56.5 23t-23.5 56v34q0 33 23 56.5t57 24.5h2q104 -6 152 -94q48 60 129 63h2q34 -1 56 -24t22 -55v-33q0 -29 -18 -50q18 -23 18 -51v-33
q0 -30 -19.5 -52t-49.5 -26v-233h-56v41l-65 48v-141h-56v16l-205 68v114l204 68l-239 51l-6 1q-26 6 -45 27.5t-19 51.5q0 6 2 16l14 33h44l-3 -45q0 -2 -0.5 -2.5t-0.5 -2.5q0 -8 5.5 -14.5t13.5 -8.5zM533 218v33q0 10 -6.5 16.5t-15.5 6.5l-42 7v42l42 7q9 0 15.5 6.5
t6.5 15.5v33q0 9 -6.5 16t-16.5 7q-23 0 -42.5 -8.5t-34 -22.5t-24 -33.5t-10.5 -41.5q3 -46 34.5 -75.5t76.5 -31.5q10 1 16.5 7.5t6.5 15.5zM194 -20l149 -50v132l-149 -50v-32zM399 65l65 -53v134q-36 10 -65 36v-117z" />
    <glyph glyph-name="bn_tt_tta" horiz-adv-x="350" 
d="M124 437v-327l106 33q47 20 47 64q0 21 -11 36t-33 26l-1 1h-1q-11 5 -23.5 8.5t-23.5 3.5q-2 0 -4.5 -0.5t-4.5 -0.5v41q22 5 38 5q9 0 17.5 -1t17.5 -3h1q21 -4 36.5 -17t26 -29.5t16 -35t5.5 -34.5q0 -40 -21 -71q18 -26 18 -59v-50q0 -42 -28.5 -72t-70.5 -34h-92
q-33 2 -61 16t-48 36.5t-31 51.5t-11 62h42q0 -23 10 -43t26 -35t37 -23.5t44 -8.5h76q21 0 35.5 14.5t14.5 35.5v50q0 11 -5 20q-10 -5 -21 -8l-179 -56v404h-71v56h299v2q0 11 -7.5 18.5t-18.5 7.5h-159q-31 0 -53 22t-22 53t22 49.5t53 18.5v-42q-8 0 -13.5 -9t-5.5 -17
q0 -7 5.5 -12.5t13.5 -5.5h159q34 0 58.5 -24.5t24.5 -58.5v-2h16v-56h-245z" />
    <glyph glyph-name="bn_tt_ba" horiz-adv-x="350" 
d="M276 -107h-56v16l-205 68v94l204 68v21l-151 -47v324h-71v56h299v2q0 11 -7.5 18.5t-18.5 7.5h-159q-31 0 -53 22t-22 53t22 49.5t53 18.5v-42q-8 0 -13.5 -9t-5.5 -17q0 -7 5.5 -12.5t13.5 -5.5h159q34 0 58.5 -24.5t24.5 -58.5v-2h16v-56h-245v-247l106 33q47 20 47 64
q0 21 -11 36t-33 26l-1 1h-1q-11 5 -23.5 8.5t-23.5 3.5q-2 0 -4.5 -0.5t-4.5 -0.5v41q22 5 38 5q9 0 17.5 -1t17.5 -3h1q21 -4 36.5 -17t26 -29.5t16 -35t5.5 -34.5q0 -42 -24 -74q-14 -19 -33 -31v-289zM71 18l149 -50v112l-149 -50v-12z" />
    <glyph glyph-name="bn_tt_ma" horiz-adv-x="484" 
d="M68 437h-71v56h299v2q0 11 -7.5 18.5t-18.5 7.5h-159q-31 0 -53 22t-22 53t22 49.5t53 18.5v-42q-8 0 -13.5 -9t-5.5 -17q0 -7 5.5 -12.5t13.5 -5.5h159q34 0 58.5 -24.5t24.5 -58.5v-2h133v-56h-35v-480h-56q-2 57 -54 75l-87 14q-11 3 -21 3q-14 0 -27 -5.5t-23.5 -15
t-17 -22t-6.5 -25.5q0 -8 1 -11l-55 -13q-3 12 -3 24q0 15 4 27l1 1v2q11 34 36 58t63 33h40v46l-178 -55v344zM124 437v-267l106 33q47 20 47 64q0 21 -11 36t-33 26l-1 1h-1q-11 5 -23.5 8.5t-23.5 3.5q-2 0 -4.5 -0.5t-4.5 -0.5v41q22 5 38 5q9 0 17.5 -1t17.5 -3h1
q21 -4 36.5 -17t26 -29.5t16 -35t5.5 -34.5q0 -42 -24 -74q-3 -5 -7 -9v-89l52 -8q11 -4 21.5 -8.5t19.5 -11.5v370h-271z" />
    <glyph glyph-name="bn_tt_ra" horiz-adv-x="350" 
d="M76 -53l-8 2q-32 6 -53.5 32.5t-21.5 60.5q0 5 0.5 10t1.5 10l16 44h43l-4 -55q-1 -3 -1 -8q0 -14 8.5 -25.5t22.5 -13.5l5 -1l156 -34v118l-173 -54v404h-71v56h299v2q0 11 -7.5 18.5t-18.5 7.5h-159q-31 0 -53 22t-22 53t22 49.5t53 18.5v-42q-8 0 -13.5 -9t-5.5 -17
q0 -7 5.5 -12.5t13.5 -5.5h159q34 0 58.5 -24.5t24.5 -58.5v-2h16v-56h-245v-327l106 33q47 20 47 64q0 21 -11 36t-33 26l-1 1h-1q-11 5 -23.5 8.5t-23.5 3.5q-2 0 -4.5 -0.5t-4.5 -0.5v41q22 5 38 5q9 0 17.5 -1t17.5 -3h1q21 -4 36.5 -17t26 -29.5t16 -35t5.5 -34.5
q0 -42 -24 -74q-5 -8 -12 -15v-225h-57v18z" />
    <glyph glyph-name="bn_tth_ra" horiz-adv-x="431" 
d="M39 73l-2 -34q-1 -3 -1 -8q0 -14 8.5 -25.5t22.5 -13.5l5 -1l229 -50v88l-14 -8q-34 -18 -75 -18q-38 1 -70.5 15t-56.5 37.5t-38 55.5t-14 69v57h68q21 0 35.5 15t14.5 35v150h-154v56h157q-3 12 -3 24v47q0 39 27 66t66 27l69 -7v-42l-69 -7q-15 0 -26 -11t-11 -26v-47
q0 -13 11 -24h216v-56h-122q19 -20 35 -45.5t27 -54.5t17.5 -59.5t6.5 -58.5q0 -42 -14 -81q-10 -30 -27 -55v-218h-57v18l-245 54q-32 7 -53.5 32.5t-21.5 60.5q0 5 0.5 10t1.5 10l8 23h49zM319 126q23 43 23 92q0 38 -10.5 72.5t-27.5 63t-39 49t-45 29.5l-13 3v-148
q0 -45 -30.5 -75.5t-75.5 -30.5l-12 -1q0 -24 9.5 -46t26.5 -38.5t39 -26.5t48 -10q33 0 61.5 20t45.5 47z" />
    <glyph glyph-name="bn_dd_dda" horiz-adv-x="708" 
d="M460 321q6 -26 18.5 -36.5t30.5 -10.5h24q21 0 36 15t15 36l56 1l2 1l18 -46q7 -18 11 -35t4 -36q0 -42 -16 -78.5t-43 -63.5t-63.5 -42.5t-77.5 -15.5q-51 0 -92 21q-39 21 -67 60q-18 -13 -39 -22q-33 -14 -70 -14q-34 0 -65.5 13t-55.5 35.5t-38.5 53.5t-14.5 68
q0 17 5 42l42 -1q-1 -5 -1 -9v-8q0 -26 10 -51t27 -44.5t40.5 -31.5t49.5 -12t49 10t40.5 27.5t27.5 40t10 48.5q0 9 -1.5 16.5t-3.5 15.5q-26 -26 -69 -26h-21q-20 0 -37.5 7.5t-31 20.5t-21.5 30.5t-8 37.5v99h-142v56h714v-56h-252v-116zM197 328q5 -13 15.5 -22t25.5 -9
h21q18 0 30.5 12.5t12.5 30.5v4h52l4 2l17 -44q6 -17 10 -33.5t4 -33.5q0 -38 -15 -71q-7 -17 -18 -32q16 -25 40 -42q35 -25 80 -25q27 0 53 11t45.5 30t31.5 44.5t12 54.5q0 25 -7 46q-32 -32 -78 -32h-24q-42 0 -73 29.5t-33 72.5v116h-206v-109z" />
    <glyph glyph-name="bn_dd_ra" horiz-adv-x="455" 
d="M385 -93h-55v24l-272 49q-33 6 -54.5 33t-21.5 60q0 5 0.5 10t1.5 10l4 11h53l-1 -22q-1 -3 -1 -8q0 -14 8.5 -25.5t22.5 -13.5l5 -1l255 -45v73q-15 -10 -32 -17q-36 -15 -74 -15q-42 0 -77.5 16t-60.5 43t-39 62t-14 73q0 18 3 38h36q-1 -5 -1 -11v-10q0 -30 12.5 -58
t33.5 -49.5t48.5 -34.5t57.5 -13q29 0 55 11t45.5 30.5t31 45.5t11.5 56q0 11 -2 22t-5 22q-32 -33 -79 -33h-23q-45 0 -75 30t-30 75v92h-155v56h461v-56h-251v-92q0 -21 14.5 -35.5t35.5 -14.5h23q22 0 37 15t15 37l58 1l17 -46q7 -19 11 -37t4 -37q0 -42 -17 -78
q-8 -19 -20 -36v-207z" />
    <glyph glyph-name="bn_ddh_ra" horiz-adv-x="350" 
d="M76 -53l-8 2q-32 6 -53.5 32.5t-21.5 60.5q0 5 0.5 10t1.5 10l16 44h43l-4 -55q-1 -3 -1 -8q0 -14 8.5 -25.5t22.5 -13.5l5 -1l156 -34v118l-173 -54v404h-71v56h358v-56h-231v-327l106 33q47 20 47 64q0 21 -11 36t-33 26l-1 1h-1q-11 5 -23.5 8.5t-23.5 3.5
q-2 0 -4.5 -0.5t-4.5 -0.5v41q22 5 38 5q9 0 17.5 -1t17.5 -3h1q21 -4 36.5 -17t26 -29.5t16 -35t5.5 -34.5q0 -42 -24 -74q-5 -8 -12 -15v-225h-57v18z" />
    <glyph glyph-name="bn_nn_tta" horiz-adv-x="517" 
d="M291 437v-367l106 33q47 20 47 64q0 21 -11 36t-33 26l-1 1h-1q-11 5 -23.5 8.5t-23.5 3.5q-2 0 -4.5 -0.5t-4.5 -0.5v41q22 5 38 5q9 0 17.5 -1t17.5 -3h1q21 -4 36.5 -17t26 -29.5t16 -35t5.5 -34.5q0 -42 -23.5 -74t-62.5 -44l-179 -56v394q-8 23 -28 38t-44 15
q-30 0 -52.5 -22t-22.5 -53q0 -27 16 -46t39 -27l-24 -47q-38 12 -62 43t-24 76q0 26 10.5 49.5t28 41.5t41 28.5t50.5 10.5q30 0 59 -13l13 -8v20h228v2q0 11 -7.5 18.5t-18.5 7.5h-159q-31 0 -53 22t-22 53t22 49.5t53 18.5v-42q-8 0 -13.5 -9t-5.5 -17q0 -7 5.5 -12.5
t13.5 -5.5h159q34 0 58.5 -24.5t24.5 -58.5v-2h5v-56h-234z" />
    <glyph glyph-name="bn_nn_ttha" horiz-adv-x="512" 
d="M514 437h-121q19 -20 35 -45.5t27 -54.5t17.5 -59.5t6.5 -58.5q0 -66 -30 -121l-1 -1q-23 -37 -56.5 -61t-78.5 -31l-20 -3q-38 1 -69 16.5t-53 38t-33.5 48t-11.5 46.5v57h68q21 0 29.5 15t8.5 35l-1 130q-8 22 -27 37q-20 15 -44 15q-30 0 -52.5 -22t-22.5 -53
q0 -27 16 -46t39 -27l-24 -47q-38 12 -62 43t-24 76q0 26 10.5 49.5t28 41.5t41 28.5t50.5 10.5q30 0 59 -13l12 -7v19q1 6 1 12v59q0 39 27 66t66 27l69 -7v-42l-69 -7q-15 0 -26 -11t-11 -26v-47q0 -13 11 -24h215v-56zM400 126q23 43 23 92q0 38 -10.5 72.5t-27.5 63
t-39 49t-45 29.5l-13 3v-177q0 -22 -9 -41t-22.5 -33.5t-30 -23t-32.5 -8.5l-12 -1q0 -9 7.5 -24.5t21.5 -30.5t35 -26t47 -11q33 0 61.5 20t45.5 47z" />
    <glyph glyph-name="bn_nn_dda" horiz-adv-x="510" 
d="M432 244q45 -33 45 -86v-49q0 -42 -28 -72t-70 -34h-192q-33 2 -60.5 16t-47.5 36t-31 51t-11 62h42q0 -23 10 -43t26 -34.5t37 -23t44 -8.5h175q20 0 34.5 14.5t14.5 35.5v49q0 20 -14 34t-34 14h-10l-53 7v42l53 7q11 0 19.5 8t8.5 20v12q0 85 -85 124l-20 -115l-55 10
l4 26q-5 26 -25.5 42.5t-45.5 16.5q-29 0 -51.5 -21t-22.5 -51q0 -23 11 -39.5t28 -26.5l-26 -49q-32 17 -50.5 47t-18.5 69q0 26 10.5 49t28.5 40.5t41 27.5t49 10q9 0 21.5 -2t25 -6t23 -10t16.5 -15l8 63q38 0 71.5 -14.5t59 -39t41.5 -58.5t18 -73v-17q0 -26 -14 -46z
" />
    <glyph glyph-name="bn_nn_dd_ra" horiz-adv-x="510" 
d="M385 -133h-55v24l-272 49q-33 6 -54.5 33t-21.5 60q0 5 0.5 10t1.5 10l4 11h53l-1 -22q-1 -3 -1 -8q0 -14 8.5 -25.5t22.5 -13.5l5 -1l255 -45v54h-143q-33 2 -60.5 16t-47.5 36t-31 51t-11 62h42q0 -23 10 -43t26 -34.5t37 -23t44 -8.5h175q20 0 34.5 14.5t14.5 35.5v49
q0 20 -14 34t-34 14h-10l-53 7v42l53 7q11 0 19.5 8t8.5 20v12q0 85 -85 124l-20 -115l-55 10l4 26q-5 26 -25.5 42.5t-45.5 16.5q-29 0 -51.5 -21t-22.5 -51q0 -23 11 -39.5t28 -26.5l-26 -49q-32 17 -50.5 47t-18.5 69q0 26 10.5 49t28.5 40.5t41 27.5t49 10q9 0 21.5 -2
t25 -6t23 -10t16.5 -15l8 63q38 0 71.5 -14.5t59 -39t41.5 -58.5t18 -73v-17q0 -26 -14 -46q45 -33 45 -86v-49q0 -42 -28 -72q-26 -28 -64 -34v-136z" />
    <glyph glyph-name="bn_nn_ddha" horiz-adv-x="517" 
d="M291 437v-367l106 33q47 20 47 64q0 21 -11 36t-33 26l-1 1h-1q-11 5 -23.5 8.5t-23.5 3.5q-2 0 -4.5 -0.5t-4.5 -0.5v41q22 5 38 5q9 0 17.5 -1t17.5 -3h1q21 -4 36.5 -17t26 -29.5t16 -35t5.5 -34.5q0 -42 -23.5 -74t-62.5 -44l-179 -56v394q-8 23 -28 38t-44 15
q-30 0 -52.5 -22t-22.5 -53q0 -27 16 -46t39 -27l-24 -47q-38 12 -62 43t-24 76q0 26 10.5 49.5t28 41.5t41 28.5t50.5 10.5q30 0 59 -13l13 -8v20h284v-56h-228z" />
    <glyph glyph-name="bn_nn_nna" horiz-adv-x="345" 
d="M346 493v-56h-34v-442h-56l-1 133q-8 23 -28 38t-44 15q-30 0 -52.5 -22t-22.5 -53q0 -27 16 -46t39 -27l-24 -47q-38 12 -62 43t-24 76q0 26 10.5 49.5t28 41.5t41 28.5t50.5 10.5q30 0 59 -13l13 -8v164q-8 25 -31 41.5t-49 16.5q-18 0 -33.5 -7t-27.5 -18.5t-18.5 -27
t-6.5 -33.5q0 -29 17 -51t43 -30l-25 -48q-42 13 -67 48t-25 83q0 30 11.5 55.5t31.5 44.5t46 30t55 11q40 0 80 -26v82h56v-56h34z" />
    <glyph glyph-name="bn_nn_ba" horiz-adv-x="345" 
d="M312 -17h-56v16l-205 68v114l204 68v129q-8 25 -31 41.5t-49 16.5q-18 0 -33.5 -7t-27.5 -18.5t-18.5 -27t-6.5 -33.5q0 -29 17 -51t43 -30l-25 -48q-42 13 -67 48t-25 83q0 30 11.5 55.5t31.5 44.5t46 30t55 11q40 0 80 -26v82h56v-56h34v-56h-34v-454zM107 108l149 -50
l-1 132l-148 -50v-32z" />
    <glyph glyph-name="bn_nn_ma" horiz-adv-x="494" 
d="M224 419q-23 17 -49 17q-18 0 -33.5 -7t-27.5 -18.5t-18.5 -27t-6.5 -33.5q0 -29 17 -51t43 -30l-25 -48q-42 13 -67 48t-25 83q0 30 11.5 55.5t31.5 44.5t46 30t55 11q40 0 80 -26v82h56v-56h184v-56h-35v-430h-56q-2 57 -54 75l-87 14q-11 3 -21 3q-14 0 -27 -5.5
t-23.5 -15t-17 -22t-6.5 -25.5q0 -8 1 -11l-55 -13q-3 12 -3 24q0 15 4 27l1 1v2q14 42 47 67.5t88 25.5h4l-1 224q-8 25 -31 41zM312 437v-288q10 -1 20 -3q21 -4 40 -11.5t33 -17.5v320h-93z" />
    <glyph glyph-name="bn_nn_ra" horiz-adv-x="345" 
d="M346 493v-56h-34v-442h-56v18l-172 37l-8 3q-32 6 -53.5 32.5t-21.5 60.5q0 5 0.5 10t1.5 10l16 44h43l-4 -55q-1 -3 -1 -8q0 -14 8.5 -25.5t22.5 -13.5l5 -1l163 -36l-1 307q-8 25 -31 41.5t-49 16.5q-18 0 -33.5 -7t-27.5 -18.5t-18.5 -27t-6.5 -33.5q0 -29 17 -51
t43 -30l-25 -48q-42 13 -67 48t-25 83q0 30 11.5 55.5t31.5 44.5t46 30t55 11q40 0 80 -26v82h56v-56h34z" />
    <glyph glyph-name="bn_t_ta" horiz-adv-x="437" 
d="M-2 493h443v-56h-443v56zM364 171q40 -31 40 -80v-46q0 -20 -8 -38.5t-21.5 -32.5t-31.5 -22t-39 -7l-31 1q-53 3 -97 24t-76 55.5t-49.5 80t-17.5 97.5h42q0 -42 17.5 -79t46 -64.5t66 -43t78.5 -15.5h21q18 0 31 13t13 31v46q0 18 -12.5 30t-29.5 12h-10l-49 7v42l49 7
q10 0 17 7t7 17v11q0 24 -9.5 46t-25.5 38.5t-38.5 26.5t-47.5 10q-11 0 -18.5 -7.5t-7.5 -18.5v-35q0 -10 7.5 -17.5t17.5 -7.5l90 -7v-42l-90 -7q-33 0 -57 23.5t-24 57.5v35q0 34 23.5 57.5t57.5 25.5h2q37 -2 68 -15.5t54.5 -36.5t37.5 -54.5t16 -67.5v-15
q0 -24 -12 -42z" />
    <glyph glyph-name="bn_t_t_ba" horiz-adv-x="437" 
d="M364 171q40 -31 40 -80v-46q0 -20 -8 -39l-1 -2v-204h-56v16l-205 68v94l17 6q-29 17 -51 41q-32 35 -49.5 80.5t-17.5 97.5h42q0 -42 17.5 -79t46 -64.5t66 -43t78.5 -15.5h21q18 0 31 13t13 31v46q0 18 -12.5 30t-29.5 12h-10l-49 7v42l49 7q10 0 17 7t7 17v11
q0 24 -9.5 46t-25.5 38.5t-38.5 26.5t-47.5 10q-11 0 -18.5 -7.5t-7.5 -18.5v-35q0 -10 7.5 -17.5t17.5 -7.5l90 -7v-42l-90 -7q-33 0 -57 23.5t-24 57.5v35q0 34 23.5 57.5t57.5 25.5h2q37 -2 68 -15.5t54.5 -36.5t37.5 -54.5t16 -67.5v-15q0 -24 -12 -42zM-2 493h443v-56
h-443v56zM190 -75l149 -50v76q-16 -7 -35 -6l-31 1q-21 1 -40 6l-43 -15v-12z" />
    <glyph glyph-name="bn_t_tha" horiz-adv-x="527" 
d="M529 437h-35v-437h-57v14l-336 120q-1 0 -2 1l-8 2l19 53l12 -4q9 -3 21 -4.5t23 -1.5q25 0 51 9t46.5 25.5t33.5 39.5t13 52q0 9 -3.5 23.5t-9.5 28.5t-15.5 24t-21.5 10q-10 0 -16 -7l-10 -11q18 -32 18 -69h-57q0 35 -24.5 60t-60.5 26q-9 0 -14.5 -6t-5.5 -14v-31
q0 -20 19 -20l43 -7v-42l-43 -7q-31 0 -53.5 22t-22.5 54v31q0 31 22 53t54 23l1 1v-1q49 -2 87 -30l5 6q26 26 58 26q29 0 52 -20l2 -1q27 -27 39.5 -58.5t12.5 -67.5q0 -59 -42 -107l-1 -2v1q-32 -35 -73 -54l187 -66v477h57v-58h35v-56z" />
    <glyph glyph-name="bn_t_na" horiz-adv-x="440" 
d="M252 57v43q-18 -2 -36 -2q-39 0 -72 11t-58 31.5t-39 48.5t-14 61h46q0 -21 11.5 -39t30 -31.5t43.5 -21t52 -7.5t50 8t40.5 21t27.5 30.5t10 36.5t-9.5 36.5t-26.5 30.5t-40.5 21t-50.5 8q-13 0 -20 -6t-7 -12v-28q0 -6 7 -11.5t19 -5.5l96 -6v-41l-96 -6
q-35 0 -61.5 19.5t-26.5 50.5v28q0 33 27 52t68 19q17 0 33 -2.5t32 -7.5q54 -18 86.5 -54.5t32.5 -84.5q0 -31 -15.5 -58t-41.5 -48q-19 -15 -42 -25v-216h-56v82q-5 17 -26.5 30t-47.5 13q-30 0 -53 -15.5t-23 -38.5q0 -15 12.5 -28t35.5 -22l-30 -43q-32 14 -51.5 38
t-19.5 56q0 21 10 40t27.5 33t40.5 22.5t50 8.5q39 0 75 -19zM-4 493h445v-56h-445v56z" />
    <glyph glyph-name="bn_t_ba" horiz-adv-x="440" 
d="M288 386q54 -18 86.5 -54.5t32.5 -84.5q0 -31 -15.5 -58t-41.5 -48q-4 -3 -7 -5v-218h-56v16l-205 68v94l50 17q-26 10 -46 27q-25 21 -39 49t-14 61h46q0 -21 11.5 -39t30 -31.5t43.5 -21t52 -7.5t50 8t40.5 21t27.5 30.5t10 36.5t-9.5 36.5t-26.5 30.5t-40.5 21
t-50.5 8q-13 0 -20 -6t-7 -12v-28q0 -6 7 -11.5t19 -5.5l96 -6v-41l-96 -6q-35 0 -61.5 19.5t-26.5 50.5v28q0 33 27 52t68 19q17 0 33 -2.5t32 -7.5zM-4 493h445v-56h-445v56zM138 43l149 -50v112l-149 -50v-12z" />
    <glyph glyph-name="bn_t_la" horiz-adv-x="440" 
d="M288 386q54 -18 86.5 -54.5t32.5 -84.5q0 -31 -15.5 -58t-41.5 -48q-1 -1 -2 -1v-211h-56v52q-15 22 -21 28q-7 7 -15 7q-11 0 -19.5 -7.5t-8.5 -20.5q0 -2 0.5 -3.5t0.5 -3.5l-43 -7q-1 11 -3 21t-6.5 18t-12.5 13t-22 5q-16 0 -26.5 -11.5t-10.5 -25.5v-22
q0 -10 10 -10l41 -6v-40l-41 -6q-26 0 -44 18t-18 44v28q3 35 28.5 59t60.5 24q29 0 54 -17l15 -13q5 5 17 9.5t26 4.5q19 0 38 -9v52q-2 0 -3 -1q-34 -11 -73 -11t-72 11t-58 31.5t-39 48.5t-14 61h46q0 -21 11.5 -39t30 -31.5t43.5 -21t52 -7.5t50 8t40.5 21t27.5 30.5
t10 36.5t-9.5 36.5t-26.5 30.5t-40.5 21t-50.5 8q-13 0 -20 -6t-7 -12v-28q0 -6 7 -11.5t19 -5.5l96 -6v-41l-96 -6q-35 0 -61.5 19.5t-26.5 50.5v28q0 33 27 52t68 19q17 0 33 -2.5t32 -7.5zM-4 493h445v-56h-445v56z" />
    <glyph glyph-name="bn_t_ma" horiz-adv-x="574" 
d="M-4 493h581v-56h-36v-520h-56q-2 57 -54 75l-87 14q-11 3 -21 3q-14 0 -27 -5.5t-23.5 -15t-17 -22t-6.5 -25.5q0 -8 1 -11l-55 -13q-3 12 -3 24q0 15 4 27l1 1v2q13 39 45 66q26 21 64 26v52q-8 -3 -17 -6q-34 -11 -73 -11t-72 11t-58 31.5t-39 48.5t-14 61h46
q0 -21 11.5 -39t30 -31.5t43.5 -21t52 -7.5t50 8t40.5 21t27.5 30.5t10 36.5t-9.5 36.5t-26.5 30.5t-40.5 21t-50.5 8q-13 0 -20 -6t-7 -12v-28q0 -6 7 -11.5t19 -5.5l96 -6v-41l-96 -6q-35 0 -61.5 19.5t-26.5 50.5v28q0 33 27 52t68 19q17 0 33 -2.5t32 -7.5
q54 -18 86.5 -54.5t32.5 -84.5q0 -31 -16 -58q-12 -21 -29 -38v-91l82 -13q11 -4 21.5 -8.5t19.5 -11.5v410h-489v56z" />
    <glyph glyph-name="bn_t_ra" horiz-adv-x="468" 
d="M-2 493h474v-56h-474v56zM109 38l-7 2q-31 7 -49 30t-18 53q0 5 0.5 9t1.5 9l15 37h44l-5 -48q0 -2 -0.5 -3t-0.5 -3q0 -11 6.5 -19t17.5 -10l11 -3v1l254 -55v167q-2 57 -38.5 93t-93.5 38q-13 0 -22 -9t-9 -22v-37q0 -13 9 -21.5t21 -8.5l97 -7v-42l-97 -7
q-18 0 -33.5 6.5t-27 18.5t-18.5 27.5t-7 33.5v37q0 36 24.5 61t61.5 26h2q39 -2 73.5 -17t59.5 -40.5t39.5 -59t14.5 -72.5v-235h-56v13l-182 39v-1z" />
    <glyph glyph-name="bn_th_ba" horiz-adv-x="422" 
d="M333 167v373h56v-47h38v-56h-38v-536h-56v16l-205 68v114l52 17l-99 27v56q32 3 57.5 14.5t43.5 29t28 39.5t11 46q-2 37 -32 63t-78 28q-22 -1 -22 -15v-28q0 -5 6 -9.5t15 -4.5l45 -6v-45l-45 -6q-31 0 -54 20t-23 51v28q0 30 22.5 50t55.5 21q34 -1 64 -12t52.5 -30.5
t35.5 -46t14 -57.5q-2 -91 -80 -147l-14 -9l92 -25zM333 -24v132l-149 -50v-32z" />
    <glyph glyph-name="bn_th_ra" horiz-adv-x="422" 
d="M333 -37v9l-239 52l-8 3q-32 6 -53.5 32.5t-21.5 60.5q0 5 0.5 10t1.5 10l3 7h53l-1 -22q-1 1 -1 -4q0 -14 8.5 -25.5t22.5 -13.5l5 -1l230 -51v45l-252 68v56q32 3 57.5 14.5t43.5 29t28 39.5t11 46q-2 37 -32 63t-78 28q-22 -1 -22 -15v-28q0 -5 6 -9.5t15 -4.5l45 -6
v-45l-45 -6q-31 0 -54 20t-23 51v28q0 30 22.5 50t55.5 21q34 -1 64 -12t52.5 -30.5t35.5 -46t14 -57.5q-2 -91 -80 -147l-14 -9l150 -41v408h56v-47h38v-56h-38v-474h-56z" />
    <glyph glyph-name="bn_th_la" horiz-adv-x="422" 
d="M333 -87v58q-15 23 -21 29q-7 6 -15 6q-11 0 -19.5 -7.5t-8.5 -20.5q0 -2 0.5 -3.5t0.5 -3.5l-43 -7q-1 11 -3 21t-6.5 18t-12.5 13t-22 5q-16 0 -26.5 -11.5t-10.5 -25.5v-22q0 -10 10 -10l41 -6v-40l-41 -6q-26 0 -44 18t-18 44v28q3 35 28.5 59t60.5 24q29 0 54 -17
l15 -13q5 5 17 9.5t26 4.5q19 0 38 -9v27l-252 68v56q32 3 57.5 14.5t43.5 29t28 39.5t11 46q-2 37 -32 63t-78 28q-22 -1 -22 -15v-28q0 -5 6 -9.5t15 -4.5l45 -6v-45l-45 -6q-31 0 -54 20t-23 51v28q0 30 22.5 50t55.5 21q34 -1 64 -12t52.5 -30.5t35.5 -46t14 -57.5
q-2 -91 -80 -147l-14 -9l150 -41v408h56v-47h38v-56h-38v-524h-56z" />
    <glyph glyph-name="bn_d_da" horiz-adv-x="446" 
d="M212 119v149l-144 -70v239h-72v56h452v-56h-324v-149l88 43v13h56v-135l88 42v13h57v-269h-57v193z" />
    <glyph glyph-name="bn_d_d_ba" horiz-adv-x="446" 
d="M208 130l148 49v52l-144 -69v149l-144 -70v196h-72v56h454v-56h-326v-106l88 43v13h56v-135l88 42v13h57v-334h-57v16l-148 49v92zM264 89v-10l92 -31v72z" />
    <glyph glyph-name="bn_d_dha" horiz-adv-x="481" 
d="M-4 493h487v-56h-359v-139l126 61v13h57v-124l85 29v22h56v-269h-56v188l-86 -29v-202h-56v12l-176 58v114l176 59v66l-182 -88v229h-72v56zM250 58v113l-120 -40v-33z" />
    <glyph glyph-name="bn_d_dh_ba" horiz-adv-x="481" 
d="M98 79l26 8l-50 17v94l176 59v66l-182 -88v202h-72v56h488v-56h-360v-112l126 61v13h57v-124l85 29v22h56v-269l-56 20v168l-86 -29v-291h-56v14l-152 50v90zM250 198l-120 -40v-13l84 -28l36 12l-1 9h1v60zM154 38v-8l96 -32v72z" />
    <glyph glyph-name="bn_d_na" horiz-adv-x="340" 
d="M-4 493h346v-56h-218v-139l126 61v13h57v-377h-57v107q-5 17 -26.5 30t-47.5 13q-30 0 -53 -15.5t-23 -38.5q0 -15 12.5 -28t35.5 -22l-30 -43q-32 14 -51.5 38t-19.5 56q0 21 10 40t27.5 33t40.5 22.5t50 8.5q39 0 75 -19v119l-182 -88v229h-72v56z" />
    <glyph glyph-name="bn_d_ba" horiz-adv-x="340" 
d="M307 -48h-56v16l-205 68v104l204 68v88l-182 -88v229h-72v56h346v-56h-218v-139l126 61v13h57v-420zM102 77l148 -50v121l-148 -49v-22z" />
    <glyph glyph-name="bn_d_bha" horiz-adv-x="356" 
d="M360 437h-234v-136l126 61v12h57v-179l-99 -10q-6 0 -10.5 -4t-4.5 -10v-28q0 -16 16 -16h17q12 0 21 8.5t9 21.5l49 1l8 3l13 -34q11 -30 11 -56q0 -32 -12 -60t-32.5 -49t-48.5 -33t-60 -12q-34 0 -62 13t-48.5 34.5t-31.5 49.5t-11 58q0 6 0.5 12t1.5 12l14 43h43
l-2 -52q-1 -5 -1 -15q0 -19 7 -37t19.5 -31.5t30.5 -21.5t41 -8q19 0 36 7.5t30.5 20t21.5 30t8 37.5q0 5 -0.5 10t-1.5 10q-22 -19 -53 -19h-17q-31 0 -52 22t-21 51v28q0 29 21 50t51 21l42 -5v62l-182 -88v226h-73v56h363v-56z" />
    <glyph glyph-name="bn_d_bh_ra" horiz-adv-x="331" 
d="M108 437v-136l126 60v13h56v-178l-99 -10q-6 0 -10.5 -4.5t-4.5 -10.5v-28q0 -7 5 -11.5t11 -4.5v-1l18 1q12 1 21 9t9 21l56 1q10 -20 14 -37.5t4 -36.5v-165h-57v13l-155 33q-32 8 -50.5 32t-18.5 56v7q0 4 1 9l16 38h44l-5 -50q0 -2 -0.5 -3t-0.5 -3q0 -11 7 -20
t18 -11l144 -31v96q-22 -14 -47 -14h-18q-31 0 -51.5 21.5t-20.5 50.5v28q0 29 21 50t50 21l43 -4v61l-182 -88v226h-54v56h335v-56h-225z" />
    <glyph glyph-name="bn_d_ma" horiz-adv-x="472" 
d="M234 238l-182 -88v287h-54v56h476v-56h-35v-437h-56v7q-2 56 -54 74l-87 14q-11 3 -21 3q-14 0 -27 -5.5t-23.5 -15t-17 -22t-6.5 -25.5q0 -8 1 -11l-55 -13q-3 12 -3 24q0 15 4 27l1 1v2q13 38 44 65.5t80 27.5q7 0 15 -1v86zM108 437v-197l126 60v13h56v-170l52 -9
q23 -5 41 -18v321h-275z" />
    <glyph glyph-name="bn_d_ra" horiz-adv-x="340" 
d="M78 55l-19 5q-32 6 -53.5 32.5t-21.5 60.5q0 5 0.5 10t1.5 10l16 44h43l-4 -55q-1 -3 -1 -8q0 -14 8.5 -25.5t22.5 -13.5l5 -1l174 -38v200l-182 -88v249h-72v56h351v-56h-223v-159l126 61v13h57v-352h-57v18z" />
    <glyph glyph-name="bn_dh_na" horiz-adv-x="368" 
d="M372 437h-37v-537h-57v95q-6 15 -27 26q-21 12 -45 12q-30 0 -53 -15.5t-23 -38.5q0 -15 12.5 -28t35.5 -22l-30 -43q-32 14 -51.5 38t-19.5 56q0 21 10 40t28 33.5t41.5 22.5t50.5 8q39 0 72 -18v19l-246 82v115l84 28q-19 11 -33 25l-1 1q-23 25 -23 55q0 32 24 56
l23 23q12 12 26.5 17.5t28.5 5.5q29 0 55 -23l10 -17v-63l-50 40q-9 7 -15 7q-8 0 -15 -7l-24 -23q-6 -8 -6 -16q0 -12 9.5 -21t23 -15t27.5 -9t23 -3q16 0 31 4l48 16v130h93v-56zM89 207l190 -62v159l-30 -10l-1 -1l-159 -52v-34z" />
    <glyph glyph-name="bn_dh_ma" horiz-adv-x="517" 
d="M33 282l84 28q-19 11 -33 25l-1 1q-23 25 -23 55q0 32 24 56l23 23q12 12 26.5 17.5t28.5 5.5q29 0 55 -23l10 -17v-63l-50 40q-9 7 -15 7q-8 0 -15 -7l-24 -23q-6 -8 -6 -16q0 -12 9.5 -21t23 -15t27.5 -9t23 -3q16 0 31 4l48 16v130h239v-56h-34v-480h-56q-2 57 -54 75
l-87 14q-11 3 -21 3q-14 0 -27 -5.5t-23.5 -15t-17 -22t-6.5 -25.5q0 -8 1 -11l-55 -13q-3 12 -3 24q0 15 4 27l1 1v2q11 34 36 58q23 22 57 31l-200 67v115zM428 437h-93v-342l52 -8q11 -4 21.5 -8.5t19.5 -11.5v370zM89 207l190 -62v159l-30 -10l-1 -1l-159 -52v-34z" />
    <glyph glyph-name="bn_dh_ra" horiz-adv-x="368" 
d="M59 137l-1 -18q-1 -3 -1 -8q0 -14 8.5 -25.5t22.5 -13.5l5 -1l186 -41v55l-246 82v115l84 28q-19 11 -33 25l-1 1q-23 25 -23 55q0 32 24 56l23 23q12 12 26.5 17.5t28.5 5.5q29 0 55 -23l10 -17v-63l-50 40q-9 7 -15 7q-8 0 -15 -7l-24 -23q-6 -8 -6 -16q0 -12 9.5 -21
t23 -15t27.5 -9t23 -3q16 0 31 4l48 16v130h93v-56h-37v-479h-56v14l-195 42l-8 3q-32 6 -53.5 32.5t-21.5 60.5q0 5 0.5 10t1.5 10l3 7h53zM89 207l190 -62v159l-30 -10l-1 -1l-159 -52v-34z" />
    <glyph glyph-name="bn_n_jha" horiz-adv-x="623" 
d="M139 102q-10 14 -16 31t-10 36l38 16q9 -30 25.5 -52.5t37.5 -37.5t44.5 -22.5t47.5 -7.5q31 0 57.5 12.5t45.5 32.5t29.5 45t10.5 51q0 21 -8 45q-32 -32 -78 -32h-24q-21 0 -40.5 8t-34 22.5t-23.5 33.5q-7 16 -8 34q-7 14 -26 24q-21 12 -45 12q-30 0 -53 -15.5
t-23 -38.5q0 -15 12.5 -28t35.5 -22l-30 -43q-32 14 -51.5 38t-19.5 56q0 21 10 40t28 33.5t41.5 22.5t50.5 8q37 0 70 -17v50h-240v56h632v-56h-335v-43q24 15 54 15h93q31 0 59 -12t49 -33t33 -49t12 -59v-184q0 -9 12 -13v-55q-29 0 -49 20t-20 50v182q0 42 -28 69.5
t-68 27.5h-93q-19 0 -33.5 -12t-19.5 -30q12 -37 48 -37h24q21 0 36 15t15 37l58 1l18 -46q7 -18 11 -35.5t4 -36.5q0 -42 -16 -78t-43.5 -63t-64 -42.5t-76.5 -15.5q-101 0 -160 83z" />
    <glyph glyph-name="bn_n_ttha" horiz-adv-x="512" 
d="M513 437h-120q19 -20 35 -45.5t27 -54.5t17.5 -59.5t6.5 -58.5q0 -66 -30 -121l-1 -1q-23 -37 -56.5 -61t-78.5 -31l-20 -3q-38 1 -69 16.5t-53 38t-33.5 48t-11.5 46.5v57h68q21 0 29.5 15t8.5 35l-1 72q-7 12 -24 21q-21 12 -45 12q-30 0 -53 -15.5t-23 -38.5
q0 -15 12.5 -28t35.5 -22l-30 -43q-32 14 -51.5 38t-19.5 56q0 21 10 40t28 33.5t41.5 22.5t50.5 8q36 0 68 -16v39h-233v56h233q1 6 1 12v59q0 39 27 66t66 27l69 -7v-42l-69 -7q-15 0 -26 -11t-11 -26v-47q0 -13 11 -24h214v-56zM400 126q23 43 23 92q0 38 -10.5 72.5
t-27.5 63t-39 49t-45 29.5l-13 3v-177q0 -22 -9 -41t-22.5 -33.5t-30 -23t-32.5 -8.5l-12 -1q0 -9 7.5 -24.5t21.5 -30.5t35 -26t47 -11q33 0 61.5 20t45.5 47z" />
    <glyph glyph-name="bn_n_dda" horiz-adv-x="585" 
d="M282 308q-10 26 -36.5 41t-56.5 15q-19 0 -37 -5t-31.5 -14.5t-22 -22.5t-8.5 -28q0 -43 55 -65l-31 -44q-35 16 -57.5 43t-22.5 64q0 26 12 48.5t33 39t48.5 26t58.5 9.5q51 0 93 -24l3 -1v47h-284v56h590v-56h-251v-112q0 -21 14.5 -35.5t35.5 -14.5h23q22 0 37 15
t15 37l58 1l17 -46q7 -19 11 -37t4 -37q0 -42 -16.5 -78t-44 -63t-63.5 -42t-74 -15q-42 0 -77.5 16t-60.5 43t-39 62t-14 73q0 18 3 38h36q-1 -5 -1 -11v-10q0 -30 12.5 -58t33.5 -49.5t48.5 -34.5t57.5 -13q29 0 55 11t45.5 30.5t31 45.5t11.5 56q0 11 -2 22t-5 22
q-32 -33 -79 -33h-23q-45 0 -75 30q-28 27 -30 58z" />
    <glyph glyph-name="bn_n_dd_ra" horiz-adv-x="585" 
d="M282 308q-10 26 -36.5 41t-56.5 15q-19 0 -37 -5t-31.5 -14.5t-22 -22.5t-8.5 -28q0 -43 55 -65l-31 -44q-35 16 -57.5 43t-22.5 64q0 26 12 48.5t33 39t48.5 26t58.5 9.5q51 0 93 -24l3 -1v47h-284v56h590v-56h-251v-112q0 -21 14.5 -35.5t35.5 -14.5h23q22 0 37 15
t15 37l58 1l17 -46q7 -19 11 -37t4 -37q0 -42 -16.5 -78t-44.5 -63q-8 -8 -16 -15v-175h-55v24l-272 49q-33 6 -54.5 33t-21.5 60q0 5 0.5 10t1.5 10l4 11h53l-1 -22q-1 -3 -1 -8q0 -14 8.5 -25.5t22.5 -13.5l5 -1l255 -45v62q-33 -11 -66 -11q-42 0 -77.5 16t-60.5 43
t-39 62t-14 73q0 18 3 38h36q-1 -5 -1 -11v-10q0 -30 12.5 -58t33.5 -49.5t48.5 -34.5t57.5 -13q29 0 55 11t45.5 30.5t31 45.5t11.5 56q0 11 -2 22t-5 22q-32 -33 -79 -33h-23q-45 0 -75 30q-28 27 -30 58z" />
    <glyph glyph-name="bn_n_ta" horiz-adv-x="477" 
d="M479 437h-62q13 -28 13 -56q0 -42 -25.5 -74.5t-67.5 -43.5q48 -21 77.5 -63.5t29.5 -96.5q0 -36 -14 -67.5t-38 -55t-55.5 -37t-65.5 -13.5q-36 0 -66 13.5t-52.5 37t-35 55t-12.5 67.5h42q0 -24 10 -45.5t27 -37.5t39.5 -25t47.5 -9q24 0 45 9.5t37 25t25 37t9 45.5
t-9 45t-24.5 36.5t-36.5 25t-45 10.5q-11 -1 -18 -8t-7 -17v-34q0 -9 7 -16t17 -7l87 -7v-42l-87 -7q-33 0 -56.5 23t-23.5 56v34q0 28 17 49.5t44 28.5l-4 2q-2 1 -4 3l-56 32q-16 8 -33 8q-29 0 -47.5 -19.5t-18.5 -46.5q0 -20 9.5 -34t25.5 -23l-26 -50q-29 16 -47 43.5
t-18 63.5q0 24 9 46t25 39t38 27.5t49 10.5q16 -1 31 -4t29 -11l64 -38q14 -7 29 -7q27 0 47 19.5t20 46.5q0 37 -30 56h-348v56h483v-56z" />
    <glyph glyph-name="bn_n_t_ba" horiz-adv-x="477" 
d="M481 437h-64q13 -28 13 -56q0 -42 -25.5 -74.5t-67.5 -43.5q48 -21 77.5 -63.5t29.5 -96.5q0 -36 -14 -68q-13 -28 -33 -49v-221h-56v16l-205 68v94l43 15q-14 10 -27 23q-22 23 -34.5 54.5t-12.5 67.5h42q0 -24 10 -45.5t27 -37.5t39.5 -25t47.5 -9q24 0 45 9.5t37 25
t25 37t9 45.5t-9 45t-24.5 36.5t-36.5 25t-45 10.5q-11 -1 -18 -8t-7 -17v-34q0 -9 7 -16t17 -7l87 -7v-42l-87 -7q-33 0 -56.5 23t-23.5 56v34q0 28 17 49.5t44 28.5l-4 2q-2 1 -4 3l-56 32q-16 8 -33 8q-29 0 -47.5 -19.5t-18.5 -46.5q0 -20 9.5 -34t25.5 -23l-26 -50
q-29 16 -47 43.5t-18 63.5q0 24 9 46t25 39t38 27.5t49 10.5q16 -1 31 -4t29 -11l64 -38q14 -7 29 -7q27 0 47 19.5t20 46.5q0 37 -30 56h-348v56h485v-56zM192 -110l149 -50v106q-2 -1 -5 -2q-29 -13 -61 -14l-83 -28v-12z" />
    <glyph glyph-name="bn_n_t_ra" horiz-adv-x="464" 
d="M153 49l3 -1v1l219 -47v114q-2 48 -33.5 79t-79.5 32q-9 0 -16 -6.5t-7 -16.5v-33q0 -10 7 -16.5t16 -6.5l85 -7v-42l-85 -7q-33 0 -56 23t-23 56v33q0 53 56 76l-51 30q-16 8 -34 8q-29 0 -47.5 -19.5t-18.5 -46.5q0 -20 10.5 -34t25.5 -23l-27 -50q-29 16 -46.5 43.5
t-17.5 63.5q0 24 9 46t24.5 39.5t38 27.5t49.5 10q32 0 59 -15l65 -38q13 -7 29 -7q27 0 46.5 19.5t19.5 46.5q0 37 -30 56h-346v56h470v-56h-51q13 -28 13 -58q0 -20 -6.5 -38.5t-18.5 -34t-28 -26.5t-35 -16q90 -53 90 -150v-178h-56v8l-234 50l-6 2q-26 6 -44 27t-18 48
v9q0 4 2 9l14 32h43l-2 -44q0 -2 -0.5 -2.5t-0.5 -2.5q0 -8 5 -14t13 -8z" />
    <glyph glyph-name="bn_n_tha" horiz-adv-x="446" 
d="M449 437h-33q14 -25 14 -54q0 -45 -28 -79t-73 -43q33 -17 55 -47t27 -61l2 -13q0 -4 0.5 -7.5t0.5 -7.5q0 -52 -30 -90t-72 -54l76 -38q4 -3 12 -3t11 5l37 -21q-8 -16 -19.5 -27.5t-34.5 -11.5q-15 0 -33 8l-9 5l-149 89q-25 14 -46 35l28 27q14 -13 31 -19t35 -6
t37 6.5t34 19t25 31.5t10 44q0 41 -28 68t-68 29q-7 -1 -12 -6t-5 -12v-29q0 -7 5 -12t11 -5l75 -7v-42l-75 -7q-30 0 -51 21.5t-21 51.5v29q0 27 16.5 46.5t41.5 25.5l-1 1q-1 0 -2 1l-55 32q-16 8 -34 8q-29 0 -47.5 -19.5t-18.5 -46.5q0 -20 10.5 -34t25.5 -23l-27 -50
q-29 16 -46.5 43.5t-17.5 63.5q0 24 9 46t25 39t38 27.5t49 10.5q16 -1 31 -4t29 -11l64 -38q13 -7 29 -7q26 0 46.5 19.5t20.5 45.5q0 18 -8.5 32.5t-22.5 24.5h-347v56h453v-56z" />
    <glyph glyph-name="bn_n_dha" horiz-adv-x="474" 
d="M243 387v50h-247v56h480v-56h-177v-207l86 29v22h56v-269h-56v188l-86 -29v-202h-56v12l-176 58v114l176 59v100q-5 17 -27 30t-49 13q-32 0 -55 -15.5t-23 -38.5q0 -31 49 -50l-31 -43q-33 14 -53 38t-20 56q0 21 10.5 40t28.5 33.5t42 22.5t51 8q41 0 77 -19zM243 40
v113l-120 -40v-33z" />
    <glyph glyph-name="bn_n_dh_ra" horiz-adv-x="474" 
d="M175 -3l68 -15v39l-176 58v94l176 59v80q-5 17 -27 30t-49 13q-32 0 -55 -15.5t-23 -38.5q0 -31 49 -50l-31 -43q-33 14 -53 38t-20 56q0 21 10.5 40t28.5 33.5t42 22.5t51 8q41 0 77 -19v50h-247v56h481v-56h-178v-187l86 29v22h56v-269h-56v188l-86 -29v-285h-57v18
l-159 35l-8 2q-32 6 -53.5 32.5t-21.5 60.5q0 5 0.5 10t1.5 10h56l-1 -11q-1 -3 -1 -8q0 -14 8.5 -25.5t22.5 -13.5l5 -1zM243 80v93l-120 -40v-13z" />
    <glyph glyph-name="bn_n_na" horiz-adv-x="371" 
d="M282 181v117q-8 24 -35 40.5t-59 16.5q-19 0 -37 -5t-31.5 -14.5t-22 -22.5t-8.5 -28q0 -43 55 -65l-31 -44q-35 16 -57.5 43t-22.5 64q0 26 12 48.5t33 39t48.5 26t58.5 9.5q51 0 93 -24q2 0 2 -0.5t2 -0.5v56h-285v56h377v-56h-36v-437h-56v106q-5 17 -26.5 30
t-47.5 13q-30 0 -53 -15.5t-23 -38.5q0 -15 12.5 -28t35.5 -22l-30 -43q-32 14 -51.5 38t-19.5 56q0 21 10 40t27.5 33t40.5 22.5t50 8.5q39 0 75 -19z" />
    <glyph glyph-name="bn_n_ba" horiz-adv-x="371" 
d="M338 -47h-56v16l-205 68v104l204 68v9h1v80q-8 24 -35 40.5t-59 16.5q-19 0 -37 -5t-31.5 -14.5t-22 -22.5t-8.5 -28q0 -43 55 -65l-31 -44q-35 16 -57.5 43t-22.5 64q0 26 12 48.5t33 39t48.5 26t58.5 9.5q51 0 93 -24q2 0 2 -0.5t2 -0.5v56h-285v56h378v-56h-37v-484z
M133 78l149 -50v122l-149 -50v-22z" />
    <glyph glyph-name="bn_n_ma" horiz-adv-x="520" 
d="M282 298q-8 24 -35 40.5t-59 16.5q-19 0 -37 -5t-31.5 -14.5t-22 -22.5t-8.5 -28q0 -43 55 -65l-31 -44q-35 16 -57.5 43t-22.5 64q0 26 12 48.5t33 39t48.5 26t58.5 9.5q51 0 93 -24q2 0 2 -0.5t2 -0.5v56h-285v56h524v-56h-34v-430h-55q-3 57 -55 75l-87 14
q-11 3 -21 3q-14 0 -27 -5.5t-23.5 -15t-17 -22t-6.5 -25.5q0 -8 1 -11l-55 -13q-3 12 -3 24q0 15 4 27l1 1v2q13 39 44.5 65.5t82.5 26.5q6 0 12 -1v146zM338 145l52 -8q11 -4 21.5 -8.5t19.5 -11.5v320h-93v-292z" />
    <glyph glyph-name="bn_n_ra" horiz-adv-x="371" 
d="M59 137l-1 -18q-1 -3 -1 -8q0 -14 8.5 -25.5t22.5 -13.5l5 -1l189 -42v229q-7 34 -34 56t-62 22q-41 0 -69 -28.5t-28 -69.5q0 -29 14 -51t38 -35l-27 -50q-37 20 -59 55.5t-22 81.5q0 31 12 58.5t32.5 48.5t48.5 33.5t60 12.5q52 0 93 -31l1 -1q0 -1 2 -1v78h-285v56
h375v-56h-34v-478h-56v13l-198 42l-8 3q-32 6 -53.5 32.5t-21.5 60.5q0 5 0.5 10t1.5 10l3 7h53z" />
    <glyph glyph-name="bn_n_sa" horiz-adv-x="499" 
d="M408 -5v23q-6 27 -27 43.5t-47 16.5q-12 -1 -25 -5t-21 -12l-23 -22q-35 -33 -76 -33q-42 0 -78 33l-13 19l34 32l20 -11q16 -16 36 -16q9 1 19 4.5t19 11.5l25 24q11 8 17 13q6 6 9 21q1 63 1 97v8q-10 18 -31 31q-27 17 -59 17q-19 0 -37 -5t-31.5 -14.5t-22 -22.5
t-8.5 -28q0 -43 55 -65l-31 -44q-35 16 -57.5 43t-22.5 64q0 26 12 48.5t33 39t48.5 26t58.5 9.5q44 0 82 -19v1q-10 22 -26.5 38t-38.5 25t-46 9h-53v42h-106v56h505v-56h-36v-442h-58zM408 437h-181q53 -24 79 -67t28 -94v-142q41 0 74 -24v327z" />
    <glyph glyph-name="bn_p_tta" horiz-adv-x="539" 
d="M313 437v-367l106 33q47 20 47 64q0 21 -11 36t-33 26l-1 1h-1q-11 5 -23.5 8.5t-23.5 3.5q-2 0 -4.5 -0.5t-4.5 -0.5v41q22 5 38 5q9 0 17.5 -1t17.5 -3h1q21 -4 36.5 -17t26 -29.5t16 -35t5.5 -34.5q0 -42 -23.5 -74t-62.5 -44l-179 -56v276l-188 -88v49l29 15
q-7 20 -22 37t-35 24l1 1h-1q-8 26 -8 47q0 28 11 53.5t30.5 44.5t46 30.5t56.5 11.5q40 0 80 -26v42h56v-17h172v2q0 11 -7.5 18.5t-18.5 7.5h-159q-31 0 -53 22t-22 53t22 49.5t53 18.5v-42q-8 0 -13.5 -9t-5.5 -17q0 -7 5.5 -12.5t13.5 -5.5h159q34 0 58.5 -24.5
t24.5 -58.5v-2h16v-56h-245zM148 272l109 58l-1 49q-8 25 -30 41.5t-50 16.5q-39 0 -62.5 -25.5t-23.5 -58.5q0 -2 0.5 -4.5t0.5 -4.5q40 -26 57 -72z" />
    <glyph glyph-name="bn_p_ta" horiz-adv-x="525" 
d="M385 303q48 -21 77.5 -63.5t29.5 -96.5q0 -36 -13.5 -67.5t-37 -55t-55 -37t-67.5 -13.5t-66.5 13.5t-52.5 37t-34.5 55t-12.5 67.5h42q0 -24 10 -45.5t27 -37.5t39.5 -25t47.5 -9q24 0 45 9.5t37 25t25 37t9 45.5t-9 45t-24.5 36.5t-36.5 25t-45 10.5q-11 -1 -18 -8
t-7 -17v-34q0 -9 7 -16t17 -7l87 -7v-42l-87 -7q-33 0 -56.5 23t-23.5 56v34q0 14 4 27l-174 -81v49l29 15q-7 20 -22 37t-35 24l1 1h-1q-8 26 -8 47q0 28 11 53.5t30.5 44.5t46 30.5t56.5 11.5q40 0 80 -26v82h56v-57h214v-56h-214v-124q74 -8 72 -10zM148 272l109 58
l-1 49q-8 25 -30 41.5t-50 16.5q-39 0 -62.5 -25.5t-23.5 -58.5q0 -2 0.5 -4.5t0.5 -4.5q40 -26 57 -72z" />
    <glyph glyph-name="bn_p_t_ra" horiz-adv-x="528" 
d="M495 -22h-56v8l-234 50l-6 2q-26 6 -44 27t-18 48v9q0 4 2 9l14 32h43l-2 -44q0 -2 -0.5 -2.5t-0.5 -2.5q0 -8 5 -14t13 -8l9 -2v1l219 -47v102q-2 48 -33.5 79t-79.5 32q-9 0 -16 -6.5t-7 -16.5v-33q0 -10 7 -16.5t16 -6.5l85 -7v-42l-85 -7q-33 0 -56 23t-23 56v33
q0 18 7 33l-185 -86v49l29 15q-7 20 -22 37t-35 24l1 1h-1q-8 26 -8 47q0 28 11 53.5t30.5 44.5t46 30.5t56.5 11.5q40 0 80 -26v82h56v-57h219v-56h-219v-127q10 2 21 2q39 0 69 -15.5t50.5 -39.5t31 -54t10.5 -59v-166zM148 272l109 58l-1 49q-8 25 -30 41.5t-50 16.5
q-39 0 -62.5 -25.5t-23.5 -58.5q0 -2 0.5 -4.5t0.5 -4.5q40 -26 57 -72z" />
    <glyph glyph-name="bn_p_na" horiz-adv-x="346" 
d="M347 437h-34v-451h-56v103q-5 17 -26.5 30t-47.5 13q-30 0 -53 -15.5t-23 -38.5q0 -15 12.5 -28t35.5 -22l-30 -43q-32 14 -51.5 38t-19.5 56q0 21 10 40t27.5 33t40.5 22.5t50 8.5q39 0 75 -19v105l-188 -88v49l29 15q-7 20 -22 37t-35 24l1 1h-1q-8 26 -8 47
q0 28 11 53.5t30.5 44.5t46 30.5t56.5 11.5q40 0 80 -26v82h56v-57h34v-56zM148 272l109 58l-1 49q-8 25 -30 41.5t-50 16.5q-39 0 -62.5 -25.5t-23.5 -58.5q0 -2 0.5 -4.5t0.5 -4.5q40 -26 57 -72z" />
    <glyph glyph-name="bn_p_pa" horiz-adv-x="346" 
d="M347 437h-34v-451h-56v64l-188 -73v45l28 12q-5 11 -20 24.5t-42 21.5q-2 8 -3 15.5t-1 15.5q0 23 10 45t28 40v34l29 15q-7 20 -22 37t-35 24l1 1h-1q-8 26 -8 47q0 28 11 53.5t30.5 44.5t46 30.5t56.5 11.5q40 0 80 -26v82h56v-57h34v-56zM148 272l109 58l-1 49
q-8 25 -30 41.5t-50 16.5q-39 0 -62.5 -25.5t-23.5 -58.5q0 -2 0.5 -4.5t0.5 -4.5q40 -26 57 -72zM257 137q-8 20 -30.5 34t-50.5 14q-40 0 -63 -20.5t-23 -43.5q0 -2 0.5 -3t0.5 -3q39 -20 56 -59l110 47v34zM217 231q22 -4 40 -17v55l-71 -33q15 -1 31 -5z" />
    <glyph glyph-name="bn_p_ra" horiz-adv-x="346" 
d="M169 64l88 -19v224l-188 -88v49l29 15q-7 20 -22 37t-35 24l1 1h-1q-8 26 -8 47q0 28 11 53.5t30.5 44.5t46 30.5t56.5 11.5q40 0 80 -26v82h56v-57h35v-56h-35v-468h-57v18l-161 35l-19 5q-32 6 -53.5 32.5t-21.5 60.5q0 5 0.5 10t1.5 10l16 44h43l-4 -55q-1 -3 -1 -8
q0 -14 8.5 -25.5t22.5 -13.5l5 -1l63 -14zM148 272l109 58l-1 49q-8 25 -30 41.5t-50 16.5q-39 0 -62.5 -25.5t-23.5 -58.5q0 -2 0.5 -4.5t0.5 -4.5q40 -26 57 -72z" />
    <glyph glyph-name="bn_p_la" horiz-adv-x="346" 
d="M348 437h-35v-442h-56v67q-14 21 -20 27q-7 7 -15 7q-11 0 -19.5 -7.5t-8.5 -20.5q0 -2 0.5 -3.5t0.5 -3.5l-43 -7q-1 11 -3 21t-6.5 18t-12.5 13t-22 5q-16 0 -26.5 -11.5t-10.5 -25.5v-22q0 -10 10 -10l41 -6v-40l-41 -6q-26 0 -44 18t-18 44v28q3 35 28.5 59t60.5 24
q29 0 54 -17l15 -13q5 5 17 9.5t26 4.5q18 0 37 -9v131l-188 -88v49l29 15q-7 20 -22 37t-35 24l1 1h-1q-8 26 -8 47q0 28 11 53.5t30.5 44.5t46 30.5t56.5 11.5q40 0 80 -26v82h56v-57h35v-56zM148 272l109 58l-1 49q-8 25 -30 41.5t-50 16.5q-39 0 -62.5 -25.5
t-23.5 -58.5q0 -2 0.5 -4.5t0.5 -4.5q40 -26 57 -72z" />
    <glyph glyph-name="bn_p_sa" horiz-adv-x="497" 
d="M406 -5v23q-6 27 -27 43.5t-47 16.5q-12 -1 -25 -5t-21 -12l-23 -22q-35 -33 -76 -33q-42 0 -78 33l-13 19l34 32l20 -11q16 -16 36 -16q9 1 19 4.5t19 11.5l25 24q11 8 17.5 13.5t8.5 22.5v24l-204 -80v51l28 12q-5 11 -20 24.5t-42 21.5q-2 8 -3 15.5t-1 15.5
q0 23 10 45.5t28.5 40t45.5 28.5t60 11q31 0 61 -11q17 -6 29 -19q-1 2 -2 5q-10 22 -26.5 38t-38.5 25t-46 9h-53v42h-106v56h504v-56h-35v-442h-58zM406 110v327h-181q53 -24 79 -67t28 -94v-142q41 0 74 -24zM235 278q-26 19 -57 19q-40 0 -63 -20.5t-23 -43.5
q0 -2 0.5 -3t0.5 -3q39 -20 56 -59l127 55v7q-19 32 -41 48z" />
    <glyph glyph-name="bn_ph_tta" horiz-adv-x="566" 
d="M569 437h-463q68 -68 68 -160q0 -35 -10 -71t-33 -68l152 -65v266h51q17 4 39 4q67 0 119 -49l1 -1h1q22 -25 22 -56q-1 -15 -6 -30t-17 -27l-24 -24q-11 -11 -26 -17t-30 -6q-15 1 -30 6t-26 17l-10 11l39 39l11 -10q6 -6 16 -6q8 0 16 6l24 24q7 7 7 17q0 12 -10 21
t-23.5 15.5t-28.5 9.5t-24 3q-18 0 -34 -4l1 -144v-232l105 33q47 20 47 63q0 21 -11 36t-33 26l-2 1q-11 5 -23.5 8.5t-23.5 3.5q-2 0 -4 -0.5t-4 -0.5v41q19 4 40 4q17 0 32 -3l1 -1q21 -4 36.5 -16.5t26 -29t16 -35t5.5 -34.5q0 -40 -23.5 -72.5t-62.5 -44.5l-180 -56
v183l-206 88v61q20 23 31 52.5t11 59.5q0 57 -33.5 101.5t-85.5 62.5h-3v56h441v18q0 11 -7.5 19t-18.5 8h-158q-31 0 -53 22t-22 52q0 31 22 49.5t53 18.5v-42q-8 0 -13.5 -9t-5.5 -17q0 -7 5.5 -12.5t13.5 -5.5h158q34 0 58 -24t24 -59v-18h75v-56z" />
    <glyph glyph-name="bn_ph_ra" horiz-adv-x="542" 
d="M82 27l-8 2q-32 6 -53.5 32.5t-21.5 60.5q0 5 0.5 10t1.5 10l16 44h43l-4 -55q-1 -3 -1 -8q0 -14 8.5 -25.5t22.5 -13.5l5 -1l200 -44v38l-207 74v61q42 42 42 92q0 45 -34 81.5t-85 51.5h-11v56h553v-56h-426q60 -51 60 -126q0 -30 -11 -64.5t-29 -55.5l148 -53v225h51
q21 3 40 3q64 0 117 -39l5 -5q21 -20 21 -50q0 -32 -25 -53l-24 -20q-23 -19 -55 -19q-17 -1 -29.5 4.5t-24.5 14.5l-17 13l45 38l10 -9q5 -4 16 -4q12 0 17 4l24 21q7 6 7 10q0 9 -10.5 15.5t-24.5 11.5t-28.5 7.5t-22.5 2.5q-19 0 -35 -4v-342h-58v18z" />
    <glyph glyph-name="bn_ph_la" horiz-adv-x="542" 
d="M-4 493h553v-56h-426q60 -51 60 -126q0 -30 -11 -64.5t-29 -55.5l148 -53v225h51q21 3 40 3q64 0 117 -39l5 -5q21 -20 21 -50q0 -32 -25 -53l-24 -20q-23 -19 -55 -19q-17 -1 -29.5 4.5t-24.5 14.5l-17 13l45 38l10 -9q5 -4 16 -4q12 0 17 4l24 21q7 6 7 10
q0 9 -10.5 15.5t-24.5 11.5t-28.5 7.5t-22.5 2.5q-19 0 -35 -4v-358h-58v37q-13 20 -19 25q-7 7 -15 7q-11 0 -19.5 -7.5t-8.5 -20.5q0 -2 0.5 -3.5t0.5 -3.5l-43 -7q-1 11 -3 21t-6.5 18t-12.5 13t-22 5q-16 0 -26.5 -11.5t-10.5 -25.5v-22q0 -10 10 -10l41 -6v-40l-41 -6
q-26 0 -44 18t-18 44v28q3 35 28.5 59t60.5 24q29 0 54 -17l15 -13q5 5 17 9.5t26 4.5q18 0 36 -9v19l-206 74v61q42 42 42 92q0 45 -34 81.5t-85 51.5h-11v56z" />
    <glyph glyph-name="bn_b_ja" horiz-adv-x="625" 
d="M-3 493h634v-56h-339v-92q26 14 55 14h93q31 0 58.5 -12t48.5 -33t33 -48.5t12 -58.5v-207q0 -12 13 -12v-57q-29 2 -48 21t-21 49v206q0 40 -28 68t-68 28h-93q-20 0 -35.5 -13t-19.5 -33v-4q0 -21 14.5 -35.5t35.5 -14.5h24q21 0 36 15t15 36l56 1l2 1l18 -46
q14 -37 14 -74q0 -41 -16 -77.5t-43 -63.5t-63.5 -42.5t-76.5 -15.5q-39 0 -74.5 14.5t-62 40t-42 59.5t-15.5 74q0 11 1.5 22t3.5 23l42 -1q-1 -5 -1 -9v-9q0 -32 11 -60.5t31 -50t47 -34.5t59 -13q28 0 53.5 11t45.5 30t32 45.5t12 56.5q0 11 -2 22.5t-5 22.5
q-31 -34 -78 -34h-24q-61 0 -94 56l-215 70v92l192 72h-228v56zM90 314l146 -48v115l-146 -55v-12z" />
    <glyph glyph-name="bn_b_da" horiz-adv-x="457" 
d="M33 361l151 50v26h-185v56h465v-56h-223v-199l126 61v13h57v-317h-57v241l-182 -88v23l-152 50v140zM185 230v122l-96 -32v-58z" />
    <glyph glyph-name="bn_b_dha" horiz-adv-x="526" 
d="M532 437h-181v-249l86 29v22h56v-269h-56v188l-86 -29v-202h-56v12l-176 58v114l39 13l-125 41v133l262 87v52h-302v56h539v-56zM89 206l159 -52l47 16v155l-206 -68v-51zM295 -2v113l-120 -40v-33z" />
    <glyph glyph-name="bn_b_ra" horiz-adv-x="384" 
d="M58 148l-1 -11q-1 -3 -1 -8q0 -14 8.5 -25.5t22.5 -13.5l5 -1l203 -44v43l-262 86v156l262 87v20h-297v56h388v-56h-35v-468h-57v18l-219 48q-32 7 -53.5 33t-21.5 60q0 5 0.5 10t1.5 10h56zM295 147v210l-206 -68v-77z" />
    <glyph glyph-name="bn_b_la" horiz-adv-x="384" 
d="M351 -50h-57v37q-13 20 -19 25q-7 7 -15 7q-11 0 -19.5 -7.5t-8.5 -20.5q0 -2 0.5 -3.5t0.5 -3.5l-43 -7q-1 11 -3 21t-6.5 18t-12.5 13t-22 5q-16 0 -26.5 -11.5t-10.5 -25.5v-22q0 -10 10 -10l41 -6v-40l-41 -6q-26 0 -44 18t-18 44v28q3 35 28.5 59t60.5 24
q29 0 54 -17l15 -13q5 5 17 9.5t26 4.5q18 0 36 -9v27l-261 86v156l262 87v20h-297v56h388v-56h-35v-487zM295 147v210l-206 -68v-77z" />
    <glyph glyph-name="bn_bh_ra" horiz-adv-x="438" 
d="M391 262q6 -17 10.5 -33t3.5 -35v-193h-56v18l-242 52q-34 7 -55 33.5t-21 59.5q0 5 0.5 10t1.5 10l17 44h44l-6 -55q-1 -3 -1 -8q0 -15 9 -25t23 -14l230 -49v111q0 21 -6 42q-30 -31 -74 -31h-22q-36 0 -61 25t-25 60v37q0 34 25 59t59 25l90 -8v-42l-90 -7
q-11 0 -19 -8t-8 -19v-37q0 -12 8.5 -20t20.5 -8h22q20 0 33.5 13.5t13.5 33.5l55 1l4 1zM-5 493h446v-56h-446v56z" />
    <glyph glyph-name="bn_bh_la" horiz-adv-x="433" 
d="M343 358l-98 -8q-7 0 -12.5 -4t-5.5 -10v-28q0 -16 19 -16h21q14 0 25 8.5t11 21.5l59 1l9 3l16 -34q13 -27 13 -57q0 -32 -14.5 -60t-40.5 -49l-2 -2v-222h-54v61q-13 20 -19 26q-7 6 -15 6q-11 0 -19.5 -7.5t-8.5 -20.5q0 -2 0.5 -3.5t0.5 -3.5l-43 -7q-1 11 -3 21
t-6.5 18t-12.5 13t-22 5q-16 0 -26.5 -11.5t-10.5 -25.5v-22q0 -10 10 -10l41 -6v-40l-41 -6q-26 0 -44 18t-18 44v28q3 35 28.5 59t60.5 24q29 0 54 -17l15 -13q5 5 17 9.5t26 4.5q18 0 36 -9v58l-3 -1q-33 -12 -70 -12q-41 0 -74.5 13t-57.5 34.5t-37.5 49t-13.5 57.5
q0 6 0.5 12t1.5 13l8 18h60l-2 -27q-1 -4 -1 -8v-6q0 -20 8.5 -37.5t23.5 -31.5t36.5 -22t48.5 -8q21 0 42 7t37 19.5t26 29.5t10 37v11q0 6 -2 11q-26 -19 -63 -19h-21q-18 0 -34 6t-28 16t-18.5 23t-6.5 28v28q0 29 25 50t61 21l98 -9v-40zM-3 493h440v-56h-440v56z" />
    <glyph glyph-name="bn_m_na" horiz-adv-x="425" 
d="M288 -8v82q-5 17 -26.5 30t-47.5 13q-30 0 -53 -15.5t-23 -38.5q0 -15 12.5 -28t35.5 -22l-30 -43q-32 14 -51.5 38t-19.5 56q0 21 10 40t27.5 33t40.5 22.5t50 8.5q39 0 75 -19v143q-4 -1 -8 -1h-9q-15 0 -29 4t-27.5 9.5t-26 9.5t-23.5 4q-32 0 -53 -22t-23 -51v-21
q0 -5 3.5 -8t7.5 -3l38 -7v-42l-38 -7q-27 0 -47 19.5t-20 47.5v30q9 69 69 104q6 18 6 38q0 11 -2.5 21t-5.5 20h-102v56h430v-56h-3q-8 -86 -81 -128v-317h-56zM287 348q34 6 56 30.5t26 58.5h-211q4 -19 6 -41q0 -5 -0.5 -11t-1.5 -11q16 0 30 -4t27 -9.5t25.5 -9.5
t26.5 -4h8q4 0 8 1z" />
    <glyph glyph-name="bn_m_pha" horiz-adv-x="767" 
d="M271 291q-15 0 -29 4t-27.5 9.5t-26 9.5t-23.5 4q-32 0 -53 -22t-23 -51v-21q0 -5 3.5 -8t7.5 -3l38 -7v-42l-38 -7q-27 0 -47 19.5t-20 47.5v30q9 69 69 104q6 18 6 38q0 11 -2.5 21t-5.5 20h-102v56h772v-56h-345q-3 -48 -30 -84l-3 -2q16 -38 16 -81
q0 -35 -11.5 -69.5t-32.5 -63.5l153 -65v266h51q17 4 39 4q65 0 118 -48l2 -2q23 -25 23 -56q0 -32 -24 -56l-24 -24q-11 -11 -26 -17t-30 -6q-15 1 -29.5 6t-26.5 17l-10 10l40 40l10 -10q6 -7 16 -7t17 7l23 23q7 7 7 17q0 12 -10 21.5t-24 16t-28.5 9.5t-24.5 3
q-18 0 -33 -4v-284h-56v13l-206 88v61q20 25 31 53t11 60q0 12 -2 24q-1 7 -3 14q-35 -20 -77 -20zM287 348q34 6 56 30.5t26 58.5h-211q4 -19 6 -41q0 -5 -0.5 -11t-1.5 -11q16 0 30 -4t27 -9.5t25.5 -9.5t26.5 -4h8q4 0 8 1z" />
    <glyph glyph-name="bn_m_ba" horiz-adv-x="427" 
d="M428 437h-3q-8 -86 -81 -128v-358h-56v17l-202 65v99l202 77v83q-4 -1 -8 -1h-9q-15 0 -29 4t-27.5 9.5t-26 9.5t-23.5 4q-32 0 -53 -22t-23 -51v-21q0 -5 3.5 -8t7.5 -3l38 -7v-42l-38 -7q-27 0 -47 19.5t-20 47.5v30q9 69 69 104q6 18 6 38q0 11 -2.5 21t-5.5 20h-102
v56h430v-56zM287 348q34 6 56 30.5t26 58.5h-211q4 -19 6 -41q0 -5 -0.5 -11t-1.5 -11q16 0 30 -4t27 -9.5t25.5 -9.5t26.5 -4h8q4 0 8 1zM142 74l146 -47v122l-146 -56v-19z" />
    <glyph glyph-name="bn_m_b_ra" horiz-adv-x="425" 
d="M88 -78l-8 2q-32 6 -53.5 32.5t-21.5 60.5q0 5 0.5 10t1.5 10l16 44h43l-4 -55q-1 -3 -1 -8q0 -14 8.5 -25.5t22.5 -13.5l5 -1l191 -42v32l-202 65v99l202 77v83q-4 -1 -8 -1h-9q-15 0 -29 4t-27.5 9.5t-26 9.5t-23.5 4q-32 0 -53 -22t-23 -51v-21q0 -5 3.5 -8t7.5 -3
l38 -7v-42l-38 -7q-27 0 -47 19.5t-20 47.5v30q9 69 69 104q6 18 6 38q0 11 -2.5 21t-5.5 20h-102v56h430v-56h-3q-8 -86 -81 -128v-449h-57v18zM287 348q34 6 56 30.5t26 58.5h-211q4 -19 6 -41q0 -5 -0.5 -11t-1.5 -11q16 0 30 -4t27 -9.5t25.5 -9.5t26.5 -4h8q4 0 8 1z
M142 74l146 -47v122l-146 -56v-19z" />
    <glyph glyph-name="bn_m_bha" horiz-adv-x="440" 
d="M176 141l-1 -27q-1 -5 -1 -15q0 -19 7 -37t19.5 -31.5t30.5 -21.5t41 -8q19 0 36 7.5t30.5 20t21.5 30t8 37.5q0 5 -0.5 10t-1.5 10q-22 -19 -53 -19h-17q-31 0 -52 22t-21 51v28q0 29 21 50q18 18 44 21v23q-4 -1 -8 -1h-9q-15 0 -29 4t-27.5 9.5t-26 9.5t-23.5 4
q-32 0 -53 -22t-23 -51v-21q0 -5 3.5 -8t7.5 -3l38 -7v-42l-38 -7q-27 0 -47 19.5t-20 47.5v30q9 69 69 104q6 18 6 38q0 11 -2.5 21t-5.5 20h-102v56h444v-56h-17q-8 -86 -81 -128v-43l50 -8v-36l-99 -10q-6 0 -10.5 -4t-4.5 -10v-28q0 -16 16 -16h17q12 0 21 8.5t9 21.5
l49 1l8 3l13 -34q11 -30 11 -56q0 -32 -12 -60t-32.5 -49t-48.5 -33t-60 -12q-34 0 -62 13t-48.5 34.5t-31.5 49.5t-11 58q0 6 0.5 12t1.5 12l6 18h50zM287 348q34 6 56 30.5t26 58.5h-211q4 -19 6 -41q0 -5 -0.5 -11t-1.5 -11q16 0 30 -4t27 -9.5t25.5 -9.5t26.5 -4h8
q4 0 8 1z" />
    <glyph glyph-name="bn_m_bh_ra" horiz-adv-x="438" 
d="M381 264v-36l-99 -10q-6 0 -10.5 -4.5t-4.5 -10.5v-28q0 -7 5 -11.5t11 -4.5h18q12 0 21 9t9 21l56 1q10 -20 14 -37.5t4 -36.5v-165h-57v13l-155 33q-32 8 -50.5 32t-18.5 56v7q0 4 1 9l16 38h44l-5 -50q0 -2 -0.5 -3t-0.5 -3q0 -11 7 -20t18 -11l144 -31v96
q-22 -14 -47 -14h-18q-31 0 -51.5 21.5t-20.5 50.5v28q0 29 21 50t50 21l6 -1v19q-4 -1 -8 -1h-9q-15 0 -29 4t-27.5 9.5t-26 9.5t-23.5 4q-32 0 -53 -22t-23 -51v-21q0 -5 3.5 -8t7.5 -3l38 -7v-42l-38 -7q-27 0 -47 19.5t-20 47.5v30q9 69 69 104q6 18 6 38q0 11 -2.5 21
t-5.5 20h-102v56h443v-56h-16q-8 -86 -81 -128v-40zM287 348q34 6 56 30.5t26 58.5h-211q4 -19 6 -41q0 -5 -0.5 -11t-1.5 -11q16 0 30 -4t27 -9.5t25.5 -9.5t26.5 -4h8q4 0 8 1z" />
    <glyph glyph-name="bn_m_ma" horiz-adv-x="526" 
d="M288 292q-4 -1 -8 -1h-9q-15 0 -29 4t-27.5 9.5t-26 9.5t-23.5 4q-32 0 -53 -22t-23 -51v-21q0 -5 3.5 -8t7.5 -3l38 -7v-42l-38 -7q-27 0 -47 19.5t-20 47.5v30q9 69 69 104q6 18 6 38q0 11 -2.5 21t-5.5 20h-102v56h530v-56h-35v-430h-56q-2 57 -54 75l-87 14
q-11 3 -21 3q-14 0 -27 -5.5t-23.5 -15t-17 -22t-6.5 -25.5q0 -8 1 -11l-55 -13q-3 12 -3 24q0 15 4 27l1 1v2q11 34 36 58t63 33h40v140zM425 437q-8 -86 -81 -128v-164l52 -8q11 -4 21.5 -8.5t19.5 -11.5v320h-12zM287 348q34 6 56 30.5t26 58.5h-211q4 -19 6 -41
q0 -5 -0.5 -11t-1.5 -11q16 0 30 -4t27 -9.5t25.5 -9.5t26.5 -4h8q4 0 8 1z" />
    <glyph glyph-name="bn_m_ra" horiz-adv-x="441" 
d="M288 292q-4 -1 -8 -1h-9q-15 0 -29 4t-27.5 9.5t-26 9.5t-23.5 4q-32 0 -53 -22t-23 -51v-21q0 -5 3.5 -8t7.5 -3l38 -7v-42l-38 -7q-27 0 -47 19.5t-20 47.5v30q9 69 69 104q6 18 6 38q0 11 -2.5 21t-5.5 20h-102v56h445v-56h-18q-5 -51 -33 -89v-364h-57v11l-293 65
q-32 7 -53.5 32.5t-21.5 60.5q0 5 0.5 10t1.5 10l7 20h50l-2 -31q-1 -3 -1 -8q0 -14 8.5 -25.5t22.5 -13.5l5 -1l276 -60l1 251q-22 -9 -48 -13zM336 373h2q2 3 5 5q22 25 26 59h-211q4 -19 6 -41q0 -5 -0.5 -11t-1.5 -11q16 0 30 -4t27 -9.5t25.5 -9.5t26.5 -4h8q4 0 8 1
q29 5 49 23v2z" />
    <glyph glyph-name="bn_m_la" horiz-adv-x="426" 
d="M288 -6v53q-15 24 -22 30.5t-15 6.5q-11 0 -19.5 -7.5t-8.5 -20.5q0 -2 0.5 -3.5t0.5 -3.5l-43 -7q-1 11 -3 21t-6.5 18t-12.5 13t-22 5q-16 0 -26.5 -11.5t-10.5 -25.5v-22q0 -10 10 -10l41 -6v-40l-41 -6q-26 0 -44 18t-18 44v28q3 35 28.5 59t60.5 24q29 0 54 -17
l15 -13q5 5 17 9.5t26 4.5q19 0 39 -10v167q-4 -1 -8 -1h-9q-15 0 -29 4t-27.5 9.5t-26 9.5t-23.5 4q-32 0 -53 -22t-23 -51v-21q0 -5 3.5 -8t7.5 -3l38 -7v-42l-38 -7q-27 0 -47 19.5t-20 47.5v30q9 69 69 104q6 18 6 38q0 11 -2.5 21t-5.5 20h-102v56h430v-56h-3
q-8 -86 -81 -128v-315h-56zM287 348q34 6 56 30.5t26 58.5h-211q4 -19 6 -41q0 -5 -0.5 -11t-1.5 -11q16 0 30 -4t27 -9.5t25.5 -9.5t26.5 -4h8q4 0 8 1z" />
    <glyph glyph-name="bn_y_ra" horiz-adv-x="375" 
d="M49 98l-1 -11q-1 -3 -1 -8q0 -14 8.5 -25.5t22.5 -13.5l5 -1l203 -44v15l-208 88v61q42 51 42 112q0 57 -32.5 102t-86.5 64h-5v56h383v-56h-37v-518h-57v18l-219 48q-32 7 -53.5 33t-21.5 60q0 5 0.5 10t1.5 10h56zM286 71v366h-179q69 -71 69 -162q0 -36 -10.5 -71.5
t-33.5 -67.5z" />
    <glyph glyph-name="bn_l_ka" horiz-adv-x="632" 
d="M-3 493h639v-56h-210v-208l11 4q24 6 47 6q60 0 108 -44l2 -2q21 -23 21 -53q0 -28 -22 -52l-21 -22q-11 -11 -25 -16.5t-28 -5.5t-28 5t-25 17l-9 9l40 40l9 -9q6 -6 13 -6t13 6l21 21q6 6 6 14q0 10 -9 18t-21 13t-25 8t-21 3q-7 0 -14.5 -1t-15.5 -3l-27 -9v-253h-56
v13l-232 76v128l232 77v67q-5 17 -17.5 27.5t-29.5 10.5q-21 0 -36 -15t-15 -33v-5l-42 -7q-4 38 -21.5 61t-52.5 23q-28 0 -47.5 -20t-19.5 -46v-33q0 -11 7.5 -18.5t17.5 -7.5l51 -7v-42l-51 -7q-33 0 -57 24t-24 58v41q2 23 12 43.5t26.5 36t38 24.5t46.5 9
q28 0 55 -12.5t44 -37.5q29 27 69 27q22 0 46 -11v76h-373v56zM370 -11v163l-176 -58v-47z" />
    <glyph glyph-name="bn_l_ga" horiz-adv-x="459" 
d="M462 437h-36v-447h-56v102q-3 14 -9 26q-10 19 -27 33t-41 22.5t-51 9.5q-12 0 -20.5 -7t-8.5 -16v-6q0 -8 8.5 -14.5t19.5 -6.5q36 -2 60 -22t24 -49v-5q0 -29 -24.5 -49.5t-59.5 -20.5l-35 4v39l35 4q11 0 19.5 7t8.5 16v5q0 9 -8.5 16t-20.5 7h-1q-35 2 -58.5 21.5
t-23.5 47.5v6v5l-43 -6q-33 0 -57 24t-24 58v41q2 23 12 43.5t26.5 36t38 24.5t46.5 9q28 0 55 -12.5t44 -37.5q29 27 69 27q22 0 46 -11v76h-373v56h465v-56zM181 209q24 20 60 22h2q73 -1 127 -42v89q-5 17 -17.5 27.5t-29.5 10.5q-21 0 -36 -15t-15 -33v-5l-42 -7
q-4 38 -21.5 61t-52.5 23q-28 0 -47.5 -20t-19.5 -46v-33q0 -11 7.5 -18.5t17.5 -7.5l51 -7v-18q6 10 16 19z" />
    <glyph glyph-name="bn_l_dda" horiz-adv-x="579" 
d="M582 437h-251v-112q0 -21 14.5 -35.5t35.5 -14.5h23q22 0 37 15t15 37l58 1l17 -46q7 -19 11 -37t4 -37q0 -42 -16.5 -78t-44 -63t-63.5 -42t-74 -15q-42 0 -77.5 16t-60.5 43t-39 62t-14 73q0 18 3 38h36q-1 -5 -1 -11v-10q0 -30 12.5 -58t33.5 -49.5t48.5 -34.5
t57.5 -13q29 0 55 11t45.5 30.5t31 45.5t11.5 56q0 11 -2 22t-5 22q-32 -33 -79 -33h-23q-45 0 -75 30q-23 23 -29 54q-13 23 -22 30q-10 7 -19 7q-11 0 -19.5 -7.5t-8.5 -20.5q0 -2 0.5 -3.5t0.5 -3.5l-43 -7q-1 11 -3 21t-6.5 18t-12.5 13t-22 5q-16 0 -26.5 -11.5
t-10.5 -25.5v-22q0 -10 10 -10l41 -6v-40l-41 -6q-26 0 -44 18t-18 44v28q3 35 28.5 59t60.5 24q29 0 54 -17l15 -13q5 5 17 9.5t25 4.5q20 0 43 -12v57h-278v56h584v-56z" />
    <glyph glyph-name="bn_l_pa" horiz-adv-x="459" 
d="M462 437h-36v-447h-56v59l-188 -73v45l28 12q-5 11 -20 24.5t-42 21.5q-2 8 -3 15.5t-1 15.5q0 23 10 45l4 10l-44 -6q-33 0 -57 24t-24 58v41q2 23 12 43.5t26.5 36t38 24.5t46.5 9q28 0 55 -12.5t44 -37.5q29 27 69 27q22 0 46 -11v76h-373v56h465v-56zM370 278
q-5 17 -17.5 27.5t-29.5 10.5q-21 0 -36 -15t-15 -33v-5l-42 -7q-4 38 -21.5 61t-52.5 23q-28 0 -47.5 -20t-19.5 -46v-33q0 -11 7.5 -18.5t17.5 -7.5l51 -7v-33q7 11 17 20q19 18 46 29t60 11q21 0 42.5 -4.5t39.5 -17.5v65zM370 136q-8 20 -30.5 34t-50.5 14
q-40 0 -63 -20.5t-23 -43.5q0 -2 0.5 -3t0.5 -3q39 -20 56 -59l110 47v34z" />
    <glyph glyph-name="bn_l_pha" horiz-adv-x="688" 
d="M691 437h-362v-142q1 -10 1 -21q0 -36 -11.5 -71.5t-33.5 -65.5l153 -65v266h51q17 4 39 4q65 0 118 -48l2 -2q23 -25 23 -56q0 -32 -24 -56l-24 -24q-11 -11 -26 -17t-30 -6q-15 1 -29.5 6t-26.5 17l-10 10l40 40l10 -10q6 -7 16 -7t17 7l23 23q7 7 7 17q0 12 -10 21.5
t-24 16t-28.5 9.5t-24.5 3q-18 0 -33 -4v-284h-56v13l-206 88v61q20 25 31 53q7 19 10 39v38l-1 7q-1 7 -3 13q-12 20 -18 25q-7 7 -15 7q-11 0 -19.5 -7.5t-8.5 -20.5q0 -2 0.5 -3.5t0.5 -3.5l-43 -7q-1 11 -3 21t-6.5 18t-12.5 13t-22 5q-16 0 -26.5 -11.5t-10.5 -25.5
v-22q0 -10 10 -10l41 -6v-40l-41 -6q-26 0 -44 18t-18 44v28q3 35 28.5 59t60.5 24q29 0 54 -17l15 -13q5 5 17 9.5t26 4.5q19 0 39 -10v54h-277v56h695v-56z" />
    <glyph glyph-name="bn_l_ba" horiz-adv-x="459" 
d="M460 437h-34v-500h-56v13l-232 76v108l232 77v67q-5 17 -17.5 27.5t-29.5 10.5q-21 0 -36 -15t-15 -33v-5l-42 -7q-4 38 -21.5 61t-52.5 23q-28 0 -47.5 -20t-19.5 -46v-33q0 -11 7.5 -18.5t17.5 -7.5l51 -7v-42l-51 -7q-33 0 -57 24t-24 58v41q2 23 12 43.5t26.5 36
t38 24.5t46.5 9q28 0 55 -12.5t44 -37.5q29 27 69 27q22 0 46 -11v76h-373v56h463v-56zM370 9v143l-176 -58v-27z" />
    <glyph glyph-name="bn_l_ma" horiz-adv-x="608" 
d="M-3 493h612v-56h-34v-430h-56q-2 57 -54 75l-87 14q-11 3 -21 3q-14 0 -27 -5.5t-23.5 -15t-17 -22t-6.5 -25.5q0 -8 1 -11l-55 -13q-3 12 -3 24q0 15 4 27l1 1v2q11 34 36 58t63 33h40v126q-5 17 -17.5 27.5t-29.5 10.5q-21 0 -36 -15t-15 -33v-5l-42 -7q-4 38 -21.5 61
t-52.5 23q-28 0 -47.5 -20t-19.5 -46v-33q0 -11 7.5 -18.5t17.5 -7.5l51 -7v-42l-51 -7q-33 0 -57 24t-24 58v41q2 23 12 43.5t26.5 36t38 24.5t46.5 9q28 0 55 -12.5t44 -37.5q29 27 69 27q22 0 46 -11v76h-373v56zM426 437v-292l52 -8q11 -4 21.5 -8.5t19.5 -11.5v320h-93
z" />
    <glyph glyph-name="bn_l_ra" horiz-adv-x="459" 
d="M107 135l-1 -17q-1 -3 -1 -8q0 -14 8.5 -25.5t22.5 -13.5l5 -1l229 -50v258q-5 17 -17.5 27.5t-29.5 10.5q-21 0 -36 -15t-15 -33v-5l-42 -7q-4 38 -21.5 61t-52.5 23q-28 0 -47.5 -20t-19.5 -46v-33q0 -11 7.5 -18.5t17.5 -7.5l51 -7v-42l-51 -7q-33 0 -57 24t-24 58v41
q2 23 12 43.5t26.5 36t38 24.5t46.5 9q28 0 55 -12.5t44 -37.5q29 27 69 27q22 0 46 -11v76h-373v56h464v-56h-35v-493h-57v18l-245 54q-32 7 -53.5 32.5t-21.5 60.5q0 5 0.5 10t1.5 10l2 6h54z" />
    <glyph glyph-name="bn_l_la" horiz-adv-x="459" 
d="M460 437h-34v-442h-56v70q-15 24 -22 30.5t-15 6.5q-11 0 -19.5 -7.5t-8.5 -20.5q0 -2 0.5 -3.5t0.5 -3.5l-43 -7q-1 11 -3 21t-6.5 18t-12.5 13t-22 5q-16 0 -26.5 -11.5t-10.5 -25.5v-22q0 -10 10 -10l41 -6v-40l-41 -6q-26 0 -44 18t-18 44v28q3 35 28.5 59t60.5 24
q29 0 54 -17l15 -13q5 5 17 9.5t26 4.5q19 0 39 -10v135q-5 17 -17.5 27.5t-29.5 10.5q-21 0 -36 -15t-15 -33v-5l-42 -7q-4 38 -21.5 61t-52.5 23q-28 0 -47.5 -20t-19.5 -46v-33q0 -11 7.5 -18.5t17.5 -7.5l51 -7v-42l-51 -7q-33 0 -57 24t-24 58v41q2 23 12 43.5t26.5 36
t38 24.5t46.5 9q28 0 55 -12.5t44 -37.5q29 27 69 27q22 0 46 -11v76h-373v56h463v-56z" />
    <glyph glyph-name="bn_l_sa" horiz-adv-x="497" 
d="M276 204q-16 25 -23 31.5t-15 6.5q-11 0 -19.5 -7.5t-8.5 -20.5q0 -2 0.5 -3.5t0.5 -3.5l-43 -7q-1 11 -3 21t-6.5 18t-12.5 13t-22 5q-16 0 -26.5 -11.5t-10.5 -25.5v-22q0 -10 10 -10l41 -6v-40l-41 -6q-26 0 -44 18t-18 44v28q3 35 28.5 59t60.5 24q29 0 54 -17
l15 -13q5 5 17 9.5t26 4.5q20 0 39 -10q-2 21 -10 40q-10 22 -26.5 38t-38.5 25t-46 9h-53v42h-106v56h505v-56h-36v-442h-58v23q-6 27 -27 43.5t-47 16.5q-12 -1 -25 -5t-21 -12l-23 -22q-35 -33 -76 -33q-42 0 -78 33l-13 19l34 32l20 -11q16 -16 36 -16q9 1 19 4.5
t19 11.5l25 24q11 8 17.5 13.5t8.5 22.5q0 38 1 65zM406 110v327h-181q53 -24 79 -67t28 -94v-142q41 0 74 -24z" />
    <glyph glyph-name="bn_sha_ukaar" horiz-adv-x="531" 
d="M472 248q45 -32 45 -85v-50q0 -42 -28 -71.5t-70 -33.5h-191q-38 2 -70.5 17t-56 40t-37 57.5t-13.5 70.5l7 52h42l7 -52q0 -27 10.5 -50.5t28 -41.5t41 -28t49.5 -10h175q21 0 35.5 15t14.5 35v50q0 19 -14 33.5t-34 14.5h-2q-3 -1 -9 -1l-53 8v42l53 6q12 0 20 8t8 20
v12q0 80 -76 120l-5 -83q1 -4 1 -8v-8h-56q0 45 -29.5 76t-74.5 34h-1q-10 0 -17 -7t-7 -17v-59q0 -10 6.5 -16.5t16.5 -6.5l54 -7v-42l-54 -7q-29 0 -51 19q-22 -19 -51 -19l-54 7v42l54 7q9 0 16 6.5t7 16.5v59q0 10 -7 16.5t-16 7.5h-92v56h93q28 -1 50 -20q20 17 47 20
q65 0 112 -44v47q38 0 71.5 -14.5t59 -39.5t41.5 -58.5t18 -72.5v-17q0 -26 -14 -46z" />
    <glyph glyph-name="bn_sh_ca" horiz-adv-x="593" 
d="M595 437h-244v-113l123 -40q39 -13 62.5 -45t23.5 -72q0 -42 -23.5 -74t-62.5 -44l-180 -56v334q0 45 -29.5 76t-74.5 34h-1q-10 0 -16.5 -6.5t-7.5 -16.5v-62q1 -9 7.5 -15t15.5 -6l54 -7v-42l-54 -7q-29 0 -51 19q-22 -19 -51 -19l-54 7v42l54 7q9 0 15.5 6t7.5 15v62
q-1 10 -7.5 16t-15.5 7h-92v56h93q28 -1 50 -20q20 17 47 20q63 0 110 -42v42h301v-56zM457 230l-106 34v-194l106 33q46 19 46 64q0 44 -46 63z" />
    <glyph glyph-name="bn_sh_cha" horiz-adv-x="590" 
d="M294 493h300v-56h-244v-55l82 -27l39 -14q17 -6 30 -17t24 -23l1 -1q19 -23 24.5 -44t5.5 -44q0 -43 -22 -76t-59 -50l57 -32q2 -2 4 -2q4 0 7 5l50 -26q-23 -35 -57 -35q-14 0 -30 8l-152 85q-19 9 -35 25l40 40q25 -25 58 -25q39 5 60 25t23 47v21q0 14 -9 29
q-11 -55 -63 -71l-134 -43v196q-2 41 -30 70q-29 31 -74 34h-1q-10 0 -16.5 -6.5t-7.5 -16.5v-62q1 -9 7.5 -15t15.5 -6l54 -7v-42l-54 -7q-29 0 -51 19q-22 -19 -51 -19l-54 7v42l54 7q9 0 15.5 6t7.5 15v62q-1 10 -7.5 16t-15.5 7h-92v56h93q28 -1 50 -20q20 17 47 20
q63 0 110 -42v42zM411 303l-61 20v-109l61 19q25 10 25 35t-25 35z" />
    <glyph glyph-name="bn_sh_na" horiz-adv-x="426" 
d="M428 437h-35v-437h-57v92q-6 15 -26 27q-21 13 -47 13q-30 0 -53 -15.5t-23 -38.5q0 -15 12.5 -28t35.5 -22l-30 -43q-32 14 -51.5 38t-19.5 56q0 21 10 40t27.5 33t40.5 22.5t50 8.5q38 0 74 -19v143q0 27 -10 50.5t-27.5 41t-41 28t-51.5 10.5q-12 0 -20.5 -8t-9.5 -20
v-68q1 -12 9.5 -20t19.5 -8l60 -7v-42l-60 -7q-34 0 -56 22q-23 -22 -57 -22l-59 7v42l59 7q11 0 19.5 8t9.5 20v68q-1 12 -9 20t-21 8h-94v56h97q31 -1 55 -22q22 20 56 22h2q78 -3 129 -54v110h57v-56h35v-56z" />
    <glyph glyph-name="bn_sh_ba" horiz-adv-x="426" 
d="M393 0h-57v16l-205 68v114l204 68h1v41q0 27 -10 50.5t-27.5 41t-41 28t-51.5 10.5q-12 0 -20.5 -8t-9.5 -20v-68q1 -12 9.5 -20t19.5 -8l60 -7v-42l-60 -7q-34 0 -56 22q-23 -22 -57 -22l-59 7v42l59 7q11 0 19.5 8t9.5 20v68q-1 12 -9 20t-21 8h-94v56h97q31 -1 55 -22
q22 20 56 22h2q78 -3 129 -54v110h57v-56h36v-56h-36v-437zM187 125l149 -50v132l-149 -50v-32z" />
    <glyph glyph-name="bn_sh_ma" horiz-adv-x="574" 
d="M393 493h183v-56h-35v-437h-56v8q-2 56 -54 74l-87 14q-11 3 -21 3q-14 0 -27 -5.5t-23.5 -15t-17 -22t-6.5 -25.5q0 -8 1 -11l-55 -13q-3 12 -3 24q0 15 4 27l1 1v2q13 38 44.5 65.5t81.5 27.5q6 0 13 -1v154q0 27 -10 50.5t-27.5 41t-41 28t-51.5 10.5q-12 0 -20.5 -8
t-9.5 -20v-68q1 -12 9.5 -20t19.5 -8l60 -7v-42l-60 -7q-34 0 -56 22q-23 -22 -57 -22l-59 7v42l59 7q11 0 19.5 8t9.5 20v68q-1 12 -9 20t-21 8h-94v56h97q31 -1 55 -22q22 20 56 22h2q78 -3 129 -54v110h57v-56zM444 137q11 -4 21.5 -8.5t19.5 -11.5v320h-44v1h-48v-293z
" />
    <glyph glyph-name="bn_sh_ra" horiz-adv-x="426" 
d="M428 437h-35v-437h-57v18l-235 51l-19 5q-32 6 -53.5 32.5t-21.5 60.5q0 5 0.5 10t1.5 10l16 44h43l-4 -55q-1 -3 -1 -8q0 -14 8.5 -25.5t22.5 -13.5l5 -1l237 -52v231q0 27 -10 50.5t-27.5 41t-41 28t-51.5 10.5q-12 0 -20.5 -8t-9.5 -20v-68q1 -12 9.5 -20t19.5 -8
l60 -7v-42l-60 -7q-34 0 -56 22q-23 -22 -57 -22l-59 7v42l59 7q11 0 19.5 8t9.5 20v68q-1 12 -9 20t-21 8h-94v56h97q31 -1 55 -22q22 20 56 22h2q78 -3 129 -54v110h57v-56h35v-56z" />
    <glyph glyph-name="bn_sh_la" horiz-adv-x="426" 
d="M428 437h-35v-437h-57v110l-2 4q-5 13 -10 19t-11 7t-12 1q-14 0 -26 -11t-12 -28v-5l-43 -7q-2 27 -13.5 48.5t-44.5 21.5q-23 0 -38 -15t-15 -36v-27q0 -8 5 -13t12 -5l47 -6v-43l-47 -6q-29 0 -50.5 21.5t-21.5 51.5v34q4 41 33.5 70t74.5 29q22 0 45.5 -10t37.5 -30
q9 9 24.5 15t32.5 6q16 0 34 -7v118q0 27 -10 50.5t-27.5 41t-41 28t-51.5 10.5q-12 0 -20.5 -8t-9.5 -20v-68q1 -12 9.5 -20t19.5 -8l60 -7v-42l-60 -7q-34 0 -56 22q-23 -22 -57 -22l-59 7v42l59 7q11 0 19.5 8t9.5 20v68q-1 12 -9 20t-21 8h-94v56h97q31 -1 55 -22
q22 20 56 22h2q78 -3 129 -54v110h57v-56h35v-56z" />
    <glyph glyph-name="bn_ss_ka" horiz-adv-x="463" 
d="M-3 493h473v-56h-154q15 -26 15 -56v-64q0 -20 -6 -36q55 -4 98 -44l2 -2h-1q21 -23 21 -53q0 -31 -21 -52l-22 -22q-11 -11 -24.5 -16.5t-27.5 -5.5t-28 5t-25 17l-9 9l40 40l9 -9q6 -6 13 -6t13 6l21 21q6 6 6 13q0 10 -9 18t-21.5 13.5t-25.5 8.5t-21 3q-15 0 -27 -4
l-30 -10v-224h-56v27l-167 55v128l69 23q-58 34 -58 97v64q0 30 15 56h-62v56zM220 262q5 0 15 2l4 1q17 7 28 24l-167 71v-43q0 -23 16.5 -39t38.5 -16h65zM200 73v120l-111 -37v-46zM275 381q0 23 -16 39.5t-39 16.5h-65q-27 0 -43 -21l163 -69v34z" />
    <glyph glyph-name="bn_ss_k_ra" horiz-adv-x="692" 
d="M695 437h-390q12 -21 14 -51q11 4 25 4l1 1l1 -1q116 -8 158 -113q19 4 40 4t44 -7t42 -19.5t31.5 -31t12.5 -41.5q0 -31 -21 -52l-22 -22q-11 -11 -24.5 -16.5t-27.5 -5.5t-28 5t-25 17l-9 9l39 40l10 -9q6 -6 13 -6q6 0 12 6l22 21q6 8 6 14q0 10 -9 17.5t-21 13
t-25 8.5t-21 3q-17 0 -30 -4v-241h-56v8l-236 51q-27 6 -44 27.5t-18 49.5q0 6 2 16l14 33h43l-2 -45q0 -2 -0.5 -2.5t-0.5 -2.5q0 -8 5 -13.5t13 -7.5l224 -48v177q-2 48 -33.5 79t-79.5 32q-9 0 -16 -7t-7 -16v-33q0 -10 7 -16.5t16 -6.5l85 -7v-42l-85 -7q-40 0 -64 33
q-32 -26 -72 -26h-64q-23 0 -43 9t-35 24t-24 35t-9 43v64q0 30 15 56h-52v56h699v-56zM208 437h-64q-27 0 -43 -21l163 -69v34q0 23 -16.5 39.5t-39.5 16.5zM208 262q31 0 48 27l-167 71v-43q0 -23 16 -39t39 -16h64z" />
    <glyph glyph-name="bn_ss_tta" horiz-adv-x="331" 
d="M351 437h-43q14 -26 14 -57v-65q0 -29 -11.5 -51t-31 -37t-45.5 -22.5t-56 -7.5q-36 0 -61.5 -25.5t-25.5 -61.5v-165l104 32q45 19 45 62q0 38 -37 59l-5 2l-3 1q-11 5 -23 9t-23 4q-2 0 -4 -0.5t-4 -0.5v41q20 5 38 5q8 0 16.5 -1t17.5 -3v1q38 -14 61.5 -46t23.5 -71
q0 -40 -23.5 -72t-62.5 -44l-177 -56v249q4 64 51 105q-53 33 -53 94v65q0 31 15 57h-53v56h295v27q0 11 -8 19.5t-19 8.5h-160q-31 0 -53 21.5t-22 53.5q0 31 22 50t53 19v-43q-8 0 -13.5 -9t-5.5 -17q0 -7 5.5 -12.5t13.5 -5.5h160q17 0 32 -6.5t26.5 -18t18 -27
t6.5 -33.5v-27h5v-56zM209 259q24 9 40 32l-160 68v-44q0 -23 16.5 -39.5t40.5 -16.5h63zM267 380q0 23 -16.5 40t-39.5 17h-65q-29 0 -45 -21l166 -70v34z" />
    <glyph glyph-name="bn_ss_tt_ra" horiz-adv-x="328" 
d="M197 -123v101l-165 -47v224q4 61 47 93q-49 27 -49 84v58q0 30 12 47h-50v56h295v21q0 8 -7.5 15t-19.5 7h-160q-30 0 -52.5 19.5t-22.5 50.5q0 30 22.5 47t52.5 17v-44q-9 0 -14 -7.5t-5 -12.5q0 -4 5 -8.5t14 -4.5h160q33 0 58 -22.5t25 -56.5v-21h13v-56h-48
q11 -17 11 -47v-58q0 -27 -11.5 -47t-31 -33.5t-45.5 -20.5t-56 -7q-37 0 -62 -22t-25 -52v-144l105 29q44 17 44 52q0 31 -36 49l-6 2l-2 1q-12 5 -25.5 8t-25.5 3h-4v42q17 4 39 4q16 0 33 -3v1q37 -12 61 -41.5t24 -65.5q0 -38 -24 -67q-8 -9 -17 -16v-201h-57v16
l-191 46q-26 11 -41 35.5t-15 51.5q0 5 0.5 10t1.5 10l4 10h53l-2 -21q-1 -3 -1 -8q0 -12 7 -22.5t18 -15.5l6 -1zM206 285q27 8 37 24l-157 59v-36q0 -18 16 -32.5t41 -14.5h63zM264 390q0 18 -16 32.5t-40 14.5h-65q-28 0 -42 -14l163 -61v28z" />
    <glyph glyph-name="bn_ss_ttha" horiz-adv-x="542" 
d="M545 437h-113q18 -20 32 -45.5t24 -53t15.5 -56t5.5 -54.5q0 -63 -30 -118l-1 -1q-25 -40 -65.5 -67t-89.5 -27q-37 0 -69.5 14t-56.5 38t-38 56t-14 68l-1 15q-23 0 -43 9t-35 24t-24 35t-9 43v64q0 30 15 56h-53v56h275q-7 15 -7 33v48q0 19 7 36t19.5 29.5t29.5 19.5
t36 7l69 -7v-42l-69 -7q-15 0 -25.5 -10.5t-10.5 -25.5v-48q0 -25 26 -30l3 -1l5 -2h192v-56zM208 437h-64q-27 0 -43 -21l162 -69v41q-3 21 -18 35t-37 14zM89 317q0 -23 16 -39t39 -16h64q31 0 48 27l-167 71v-43zM435 324q-32 81 -92 113h-24v-46q1 -3 1 -10v-64
q0 -23 -8 -43.5t-22.5 -35.5t-34 -23.5t-42.5 -8.5h-12v-15q0 -24 9.5 -45.5t26 -37.5t39 -26t48.5 -11q3 1 11 1q54 11 86 54t32 103q0 44 -18 95z" />
    <glyph glyph-name="bn_ss_nna" horiz-adv-x="558" 
d="M133 136l153 -65v132l-109 47q-5 -31 -15.5 -59.5t-28.5 -54.5zM286 264v173h-178q53 -53 66 -125zM497 135v37q0 12 -8.5 20t-18.5 8l-48 7v42l48 7q10 0 18.5 8t8.5 20v36q0 12 -8.5 20t-19.5 9q-54 -2 -88 -36t-38 -86q2 -25 12 -47t26.5 -38t38.5 -25.5t49 -9.5
q11 0 19.5 8.5t8.5 19.5zM286 -5v15l-207 88v61q21 23 31.5 52.5t10.5 59.5q0 57 -32.5 102t-86.5 64h-5v56h346v-140q49 49 125 52h2q35 -1 59 -25.5t24 -59.5v-36q0 -33 -21 -57q21 -23 21 -55v-37q0 -34 -24 -58.5t-59 -25.5h-2q-74 1 -125 52v-108h-57z" />
    <glyph glyph-name="bn_ss_pha" horiz-adv-x="673" 
d="M210 261q30 0 48 27l-168 72v-43q0 -23 16 -39.5t39 -16.5h65zM265 381q0 23 -16 39.5t-39 16.5h-65q-27 0 -43 -21l163 -70v35zM307 437q15 -26 15 -56v-42q5 -16 7.5 -32t2.5 -33q0 -36 -11.5 -71.5t-33.5 -65.5l153 -65v266h51q17 4 39 4q65 0 118 -48l2 -2
q23 -25 23 -56q0 -32 -24 -56l-24 -24q-11 -11 -26 -17t-30 -6q-15 1 -29.5 6t-26.5 17l-10 10l40 40l10 -10q6 -7 16 -7t17 7l23 23q7 7 7 17q0 12 -10 21.5t-24 16t-28.5 9.5t-24.5 3q-18 0 -33 -4v-284h-56v13l-206 88v61q20 25 31 53q1 4 3 8q-7 -4 -15 -7
q-20 -9 -43 -9h-65q-23 0 -43.5 9t-35.5 24t-24 35.5t-9 43.5v64q0 30 15 56h-51v56h681v-56h-371z" />
    <glyph glyph-name="bn_ss_ba" horiz-adv-x="348" 
d="M350 437h-34q15 -26 15 -56v-64q0 -39 -11 -63.5t-34 -32.5l-30 -10v-224h-56v27l-167 55v128l69 23q-58 34 -58 97v64q0 30 15 56h-62v56h353v-56zM220 262q5 0 15 2l4 1q17 7 28 24l-167 71v-43q0 -23 16.5 -39t38.5 -16h65zM200 73v120l-111 -37v-46zM275 381
q0 23 -16 39.5t-39 16.5h-65q-27 0 -43 -21l163 -69v34z" />
    <glyph glyph-name="bn_ss_ma" horiz-adv-x="504" 
d="M-3 493h509v-56h-35v-437h-56v8q-2 56 -54 74l-87 14q-11 3 -21 3q-14 0 -27 -5.5t-23.5 -15t-17 -22t-6.5 -25.5q0 -8 1 -11l-55 -13q-3 12 -3 24q0 15 4 27l1 1v2q13 38 44 65q19 17 44 23v56h-5h-65q-23 0 -43.5 9t-35.5 24t-24 35.5t-9 43.5v64q0 30 15 56h-51v56z
M284 151l90 -14q11 -4 21.5 -8.5t19.5 -11.5v320h-108q15 -26 15 -56v-64q0 -23 -9 -43.5t-24 -35.5q-8 -8 -17 -14v-73h12zM210 261q30 0 48 27l-168 72v-43q0 -23 16 -39.5t39 -16.5h65zM265 381q0 23 -16 39.5t-39 16.5h-65q-27 0 -43 -21l163 -70v35z" />
    <glyph glyph-name="bn_ss_ra" horiz-adv-x="376" 
d="M49 98l-1 -11q-1 -3 -1 -8q0 -14 8.5 -25.5t22.5 -13.5l5 -1l203 -44v15l-207 88v61q21 23 31.5 52.5t10.5 59.5q0 57 -32.5 102t-86.5 64h-5v56h382v-56h-36v-518h-58v18l-219 48q-32 7 -53.5 33t-21.5 60q0 5 0.5 10t1.5 10h56zM286 264v173h-178q53 -53 66 -125z
M133 136l153 -65v132l-109 47q-5 -31 -15.5 -59.5t-28.5 -54.5z" />
    <glyph glyph-name="bn_s_ka" horiz-adv-x="634" 
d="M637 437h-162v-62q0 -15 -5.5 -30t-17.5 -27q-11 -11 -25 -18v-73l12 5q11 4 23.5 5t23.5 1q60 0 108 -44l2 -2q21 -23 21 -53q0 -28 -22 -52l-21 -22q-11 -11 -25 -16.5t-28 -5.5t-28 5t-25 17l-9 9l40 40l9 -9q6 -6 13 -6t13 6l21 21q6 6 6 14q0 10 -9 18t-21 13t-25 8
t-21 3q-7 0 -14.5 -1t-15.5 -3l-28 -10v-173h-56v16l-206 68v114l205 68v30h-6q-9 0 -17 2q-21 4 -41.5 14t-40.5 10q-12 -1 -25 -5t-21 -12l-23 -22q-17 -16 -36 -23.5t-39 -7.5q-42 0 -76 31l-13 19l34 33l18 -12q16 -15 36 -15q9 0 19 3.5t18 11.5l25 25q20 14 23 23.5
t3 27.5q0 22 -8 43h-205v56h642v-56zM263 373q14 0 27.5 -4t26.5 -8.5t26 -8.5t25 -4h24q11 0 19 7.5t8 19.5v62h-160q5 -22 5 -42v-11q0 -6 -1 -11zM221 120l149 -50v132l-149 -50v-32z" />
    <glyph glyph-name="bn_s_k_ra" horiz-adv-x="674" 
d="M475 -22h-56v8l-234 50l-6 2q-26 6 -44 27t-18 48v9q0 4 2 9l14 32h43l-2 -44q0 -2 -0.5 -2.5t-0.5 -2.5q0 -8 5 -14t13 -8l9 -2v1l219 -47v102q-2 48 -33.5 79t-79.5 32q-9 0 -16 -6.5t-7 -16.5v-33q0 -10 7 -16.5t16 -6.5l85 -7v-42l-85 -7q-33 0 -56 23t-23 56v33
q0 53 56 76l23 -4l-1 1q-20 10 -40 10q-12 -1 -25 -5t-21 -12l-23 -22q-17 -16 -36 -23.5t-39 -7.5q-42 0 -76 31l-13 19l34 33l18 -12q16 -15 36 -15q9 0 19 3.5t18 11.5l25 25q20 14 23 23.5t3 27.5q0 22 -8 43h-205v56h682v-56h-202v-62q0 -15 -5.5 -30t-17.5 -27
t-30 -20q-14 -6 -32 -7q45 -28 66 -68l23 9q24 6 47 6q60 0 108 -44l2 -2q21 -23 21 -53q0 -28 -22 -52l-21 -22q-11 -11 -25 -16.5t-28 -5.5t-28 5t-25 17l-9 9l40 40l9 -9q6 -6 13 -6t13 6l21 21q6 6 6 14q0 10 -9 18t-21 13t-25 8t-21 3q-7 0 -14.5 -1t-15.5 -3l-22 -8
q2 -12 2 -26v-166zM263 373q14 0 27.5 -4t26.5 -8.5t26 -8.5t25 -4h24q11 0 19 7.5t8 19.5v62h-160q5 -22 5 -42v-11q0 -6 -1 -11z" />
    <glyph glyph-name="bn_s_kha" horiz-adv-x="607" 
d="M609 437h-35v-583h-56v14l-242 79l-1 2l-10 52q33 7 58.5 24.5t43 40.5t26.5 50t9 53q0 35 -13 68q-28 -67 -94 -103l-2 -2q-20 -10 -42 -10q-25 0 -47.5 13.5t-35.5 37.5l-14 40l39 20l25 -34q5 -10 13.5 -15t18.5 -5t18 4q66 37 79 110q-21 4 -41.5 14t-40.5 10
q-12 -1 -25 -5t-21 -12l-23 -22q-17 -16 -36 -23.5t-39 -7.5q-42 0 -76 31l-13 19l34 33l18 -12q16 -15 36 -15q9 0 19 3.5t18 11.5l25 25q20 14 23 23.5t3 27.5q0 22 -8 43h-205v56h480v-118q0 -54 -55 -78q38 -59 38 -125q0 -56 -24 -106t-77 -86l161 -53v631h56v-65h35
v-56zM263 373q14 0 27.5 -4t26.5 -8.5t26 -8.5t25 -4h24q11 0 19 7.5t8 19.5v62h-160q5 -22 5 -42v-11q0 -6 -1 -11z" />
    <glyph glyph-name="bn_s_tta" horiz-adv-x="489" 
d="M491 437h-19v-61q0 -32 -12.5 -59t-33.5 -47t-49 -31.5t-58 -11.5q-21 0 -38.5 -7.5t-31 -21t-21 -31.5t-7.5 -39v-169l90 27q39 16 39 54q0 32 -33 50h-1q-3 3 -9.5 5.5t-14 4.5t-15 3t-11.5 1h-3v40q8 2 16.5 3t16.5 1t16 -1t16 -3v1q35 -11 55.5 -40.5t20.5 -64.5
q0 -37 -20.5 -66t-56.5 -39l-162 -52v254q3 31 16 57t33.5 45.5t47 30.5t57.5 11q27 0 47 13q-15 0 -28 3.5t-25.5 8t-24 8.5t-23.5 4q-13 0 -24.5 -4.5t-21.5 -11.5l-22 -23q-35 -30 -74 -30q-42 0 -75 30l-14 20l34 32l18 -12q9 -6 18 -10.5t19 -3.5q17 -1 34 14l27 25
q7 7 19 14q6 18 6 36q0 22 -8 43h-203v56h415v27q0 11 -7.5 19t-17.5 8h-157q-30 0 -52 21t-22 53q0 30 22 48.5t52 18.5v-42q-7 0 -12.5 -9t-5.5 -16t5.5 -12.5t12.5 -5.5h157q33 0 57 -24.5t24 -58.5v-27h22v-56zM417 437h-158q6 -20 6 -42v-11q0 -5 -1 -10q15 0 28 -4
t25.5 -8.5t25 -8.5t25.5 -4h23q11 0 18.5 7t7.5 24v57z" />
    <glyph glyph-name="bn_s_tt_ra" horiz-adv-x="490" 
d="M493 437h-20v-55q0 -31 -12.5 -57t-34 -45t-49 -29.5t-57.5 -10.5q-42 0 -70 -26.5t-28 -64.5v-156l91 26q38 15 38 48q0 28 -33 45q-5 4 -23 8.5t-28 4.5h-3v41q8 2 16.5 3t16.5 1t16 -1t16 -3v1q34 -10 55 -38t21 -62q0 -36 -21 -64q-5 -5 -10 -11v-203h-57v16l-251 60
q-26 11 -41 35.5t-15 51.5q0 5 0.5 10t1.5 10l4 10h53l-2 -21q-1 -3 -1 -8q0 -12 7 -22.5t18 -15.5l226 -52v101l-151 -46v240q3 30 16.5 55t34 43.5t47 28.5t56.5 10q25 0 41 8q-23 0 -46.5 11t-48.5 11q-24 0 -47 -15l-22 -21q-34 -28 -73 -28q-42 0 -74 28l-16 21l35 31
l17 -10q8 -8 18 -11t20 -3q18 -1 35 14l27 23q14 14 19 20.5t5 24.5q0 23 -7 38h-204v56h415v24q0 9 -7 16t-18 7h-157q-29 0 -51.5 20t-22.5 51q0 30 22.5 47.5t51.5 17.5v-43q-8 0 -13 -8t-5 -14q0 -5 5 -10t13 -5h157q16 0 30.5 -6t26 -17t18 -25.5t6.5 -30.5v-24h23v-56
zM418 437h-157q5 -17 5 -37q0 -13 -1 -18q15 0 28 -4t25.5 -8.5t25 -8t25.5 -3.5h23q11 0 18.5 6.5t7.5 21.5v51z" />
    <glyph glyph-name="bn_s_ta" horiz-adv-x="525" 
d="M529 437h-54v-62q0 -15 -5.5 -30t-17.5 -27t-30 -20q-8 -3 -18 -5q35 -20 58 -54q30 -42 30 -96q0 -36 -13.5 -67.5t-37 -55t-55 -37t-67.5 -13.5t-66.5 13.5t-52.5 37t-34.5 55t-12.5 67.5h42q0 -24 10 -45.5t27 -37.5t39.5 -25t47.5 -9q24 0 45 9.5t37 25t25 37t9 45.5
t-9 45t-24.5 36.5t-36.5 25t-45 10.5q-11 -1 -18 -8t-7 -17v-34q0 -9 7 -16t17 -7l87 -7v-42l-87 -7q-33 0 -56.5 23t-23.5 56v34q0 28 17 49q15 20 38 27q-15 6 -29 6q-12 -1 -25 -5t-21 -12l-23 -22q-17 -16 -36 -23.5t-39 -7.5q-42 0 -76 31l-13 19l34 33l18 -12
q16 -15 36 -15q9 0 19 3.5t18 11.5l25 25q20 14 23 23.5t3 27.5q0 22 -8 43h-205v56h534v-56zM263 373q14 0 27.5 -4t26.5 -8.5t26 -8.5t25 -4h24q11 0 19 7.5t8 19.5v62h-160q5 -22 5 -42v-11q0 -6 -1 -11z" />
    <glyph glyph-name="bn_s_t_ra" horiz-adv-x="528" 
d="M532 437h-57v-62q0 -15 -5.5 -30t-17.5 -27t-30 -20q-7 -3 -16 -5q89 -53 89 -149v-166h-56v8l-234 50l-6 2q-26 6 -44 27t-18 48v9q0 4 2 9l14 32h43l-2 -44q0 -2 -0.5 -2.5t-0.5 -2.5q0 -8 5 -14t13 -8l9 -2v1l219 -47v102q-2 48 -33.5 79t-79.5 32q-9 0 -16 -6.5
t-7 -16.5v-33q0 -10 7 -16.5t16 -6.5l85 -7v-42l-85 -7q-33 0 -56 23t-23 56v33q0 52 53 75q-18 8 -35 8q-12 -1 -25 -5t-21 -12l-23 -22q-17 -16 -36 -23.5t-39 -7.5q-42 0 -76 31l-13 19l34 33l18 -12q16 -15 36 -15q9 0 19 3.5t18 11.5l25 25q20 14 23 23.5t3 27.5
q0 22 -8 43h-205v56h537v-56zM263 373q14 0 27.5 -4t26.5 -8.5t26 -8.5t25 -4h24q11 0 19 7.5t8 19.5v62h-160q5 -22 5 -42v-11q0 -6 -1 -11z" />
    <glyph glyph-name="bn_s_tha" horiz-adv-x="528" 
d="M530 437h-55v-62q0 -15 -5.5 -30t-17.5 -27t-30 -20q-5 -2 -11 -4h4q-1 -1 -4 -1q79 -49 84 -121v-31q-2 -42 -27.5 -73.5t-73.5 -54.5l76 -38q4 -3 12 -3t11 5l37 -21q-8 -16 -19.5 -27.5t-34.5 -11.5q-15 0 -33 8l-9 5l-149 89q-25 14 -46 35l28 27q14 -13 31 -19
t35 -6q32 0 61 18.5t41 53.5l4 17v22q-5 37 -31.5 61t-64.5 26q-7 -1 -12 -6t-5 -12v-29q0 -7 5 -12t11 -5l75 -7v-42l-75 -7q-30 0 -51 21.5t-21 51.5v29q0 27 16 46q12 14 27 21l-8 4q-20 10 -40 10q-12 -1 -25 -5t-21 -12l-23 -22q-17 -16 -36 -23.5t-39 -7.5
q-42 0 -76 31l-13 19l34 33l18 -12q16 -15 36 -15q9 0 19 3.5t18 11.5l25 25q20 14 23 23.5t3 27.5q0 22 -8 43h-205v56h535v-56zM263 373q14 0 27.5 -4t26.5 -8.5t26 -8.5t25 -4h24q11 0 19 7.5t8 19.5v62h-160q5 -22 5 -42v-11q0 -6 -1 -11z" />
    <glyph glyph-name="bn_s_na" horiz-adv-x="508" 
d="M510 437h-35v-62q0 -15 -5.5 -30t-17.5 -27q-11 -11 -25 -18v-305h-57v120q-8 24 -35 40.5t-59 16.5q-19 0 -37 -5t-31.5 -14.5t-22 -22.5t-8.5 -28q0 -43 55 -65l-31 -44q-35 16 -57.5 43t-22.5 64q0 26 12 48.5t33 39t48.5 26t58.5 9.5q51 0 93 -24q2 0 2 -1h2v93h-6
q-9 0 -17 2q-21 4 -41.5 14t-40.5 10q-12 -1 -25 -5t-21 -12l-23 -22q-17 -16 -36 -23.5t-39 -7.5q-42 0 -76 31l-13 19l34 33l18 -12q16 -15 36 -15q9 0 19 3.5t18 11.5l25 25q20 14 23 23.5t3 27.5q0 22 -8 43h-205v56h515v-56zM263 373q14 0 27.5 -4t26.5 -8.5t26 -8.5
t25 -4h24q11 0 19 7.5t8 19.5v62h-160q5 -22 5 -42v-11q0 -6 -1 -11z" />
    <glyph glyph-name="bn_s_pha" horiz-adv-x="777" 
d="M475 437v-62q0 -15 -5.5 -30t-17.5 -27t-30 -20l-4 -2q1 -11 1 -22q0 -36 -11.5 -71.5t-33.5 -65.5l153 -65v266h51q17 4 39 4q65 0 118 -48l2 -2q23 -25 23 -56q0 -32 -24 -56l-24 -24q-11 -11 -26 -17t-30 -6q-15 1 -29.5 6t-26.5 17l-10 10l40 40l10 -10q6 -7 16 -7
t17 7l23 23q7 7 7 17q0 12 -10 21.5t-24 16t-28.5 9.5t-24.5 3q-18 0 -33 -4v-284h-56v13l-206 88v61q20 25 31 53t11 60q0 9 -1 18q-8 0 -15 2q-21 4 -41.5 14t-40.5 10q-12 -1 -25 -5t-21 -12l-23 -22q-17 -16 -36 -23.5t-39 -7.5q-42 0 -76 31l-13 19l34 33l18 -12
q16 -15 36 -15q9 0 19 3.5t18 11.5l25 25q20 14 23 23.5t3 27.5q0 22 -8 43h-205v56h788v-56h-308zM259 437q5 -22 5 -42v-11q0 -6 -1 -11q14 0 27.5 -4t26.5 -8.5t26 -8.5t25 -4h24q11 0 19 7.5t8 19.5v62h-160z" />
    <glyph glyph-name="bn_s_ba" horiz-adv-x="492" 
d="M496 437h-21v-62q0 -15 -5.5 -30t-17.5 -27q-11 -11 -25 -18v-305h-56v16l-206 68v114l205 68v30h-6q-9 0 -17 2q-21 4 -41.5 14t-40.5 10q-12 -1 -25 -5t-21 -12l-23 -22q-17 -16 -36 -23.5t-39 -7.5q-42 0 -76 31l-13 19l34 33l18 -12q16 -15 36 -15q9 0 19 3.5
t18 11.5l25 25q20 14 23 23.5t3 27.5q0 22 -8 43h-205v56h501v-56zM263 373q14 0 27.5 -4t26.5 -8.5t26 -8.5t25 -4h24q11 0 19 7.5t8 19.5v62h-160q5 -22 5 -42v-11q0 -6 -1 -11zM221 120l149 -50v132l-149 -50v-32z" />
    <glyph glyph-name="bn_s_ma" horiz-adv-x="608" 
d="M-5 493h615v-56h-35v-442h-56v23q0 28 -14 46.5t-40 27.5l-87 14q-11 3 -21 3q-14 0 -27 -5.5t-23.5 -15t-17 -22t-6.5 -25.5q0 -8 1 -11l-55 -13q-3 12 -3 24q0 15 4 27l1 1v2q13 38 44.5 65.5t81.5 27.5q6 0 13 -1v128h-6q-9 0 -17 2q-21 4 -41.5 14t-40.5 10
q-12 -1 -25 -5t-21 -12l-23 -22q-17 -16 -36 -23.5t-39 -7.5q-42 0 -76 31l-13 19l34 33l18 -12q16 -15 36 -15q9 0 19 3.5t18 11.5l25 25q20 14 23 23.5t3 27.5q0 22 -8 43h-205v56zM519 437h-44v-62q0 -15 -5.5 -30t-17.5 -27q-11 -11 -25 -18v-145l51 -8q11 -4 21.5 -8.5
t19.5 -11.5v310zM263 373q14 0 27.5 -4t26.5 -8.5t26 -8.5t25 -4h24q11 0 19 7.5t8 19.5v62h-160q5 -22 5 -42v-11q0 -6 -1 -11z" />
    <glyph glyph-name="bn_s_ra" horiz-adv-x="492" 
d="M496 437h-21v-62q0 -15 -6 -30q-4 -12 -12 -22v-347h-58v18l-245 54q-32 7 -53.5 32.5t-21.5 60.5q0 5 0.5 10t1.5 10l16 44h43l-4 -55q-1 -3 -1 -8q0 -14 8.5 -25.5t22.5 -13.5l5 -1l229 -50v240q-9 -1 -19 -1h-17q-9 0 -17 2q-21 4 -41.5 14t-40.5 10q-12 -1 -25 -5
t-21 -12l-23 -22q-17 -16 -36 -23.5t-39 -7.5q-42 0 -76 31l-13 19l34 33l18 -12q16 -15 36 -15q9 0 19 3.5t18 11.5l25 25q20 14 23 23.5t3 27.5q0 22 -8 43h-205v56h501v-56zM263 373q14 0 27.5 -4t26.5 -8.5t26 -8.5t25 -4h24q11 0 19 7.5t8 19.5v62h-160q5 -22 5 -42
v-11q0 -6 -1 -11z" />
    <glyph glyph-name="bn_s_la" horiz-adv-x="491" 
d="M494 437h-19v-62q0 -15 -5.5 -30t-17.5 -27q-11 -11 -26 -18v-305h-56v113q-5 17 -17.5 27.5t-29.5 10.5q-21 0 -36 -15t-15 -33v-5l-42 -7q-4 38 -21.5 61t-52.5 23q-28 0 -47.5 -20t-19.5 -46v-33q0 -11 7.5 -18.5t17.5 -7.5l51 -7v-42l-51 -7q-33 0 -57 24t-24 58v41
q2 23 12 43.5t26.5 36t38 24.5t46.5 9q28 0 55 -12.5t44 -37.5q29 27 69 27q22 0 46 -11v100h-6q-9 0 -17 2q-21 4 -41.5 14t-40.5 10q-12 -1 -25 -5t-21 -12l-23 -22q-17 -16 -36 -23.5t-39 -7.5q-42 0 -76 31l-13 19l34 33l18 -12q16 -15 36 -15q9 0 19 3.5t18 11.5l25 25
q20 14 23 23.5t3 27.5q0 22 -8 43h-205v56h499v-56zM263 373q14 0 27.5 -4t26.5 -8.5t26 -8.5t25 -4h24q11 0 19 7.5t8 19.5v62h-160q5 -22 5 -42v-11q0 -6 -1 -11z" />
    <glyph glyph-name="bn_ha_ukaar" horiz-adv-x="389" 
d="M330 59q4 -3 10 -3q10 0 13 5l38 -21q-8 -16 -20.5 -27.5t-34.5 -11.5q-15 0 -33 8l-159 94q-24 13 -45 36l27 27q28 -25 66 -25q21 0 40 7.5t34 21t24 32t9 40.5q0 10 -3.5 24t-10 26.5t-15.5 21t-21 8.5q-8 0 -12 -6l-8 -9q16 -28 16 -63h-57q0 31 -20.5 52.5
t-52.5 24.5q-11 -1 -18.5 -9t-7.5 -20v-36q0 -11 8 -19t19 -8l50 -7v-42l-50 -7q-34 0 -58.5 24.5t-24.5 58.5v36q0 34 22.5 58t55.5 27h7q43 -3 74 -27l3 4q22 24 57 24q21 0 39.5 -12.5t33 -32.5t23 -44t8.5 -47q0 -46 -27 -87.5t-75 -57.5zM-2 493h393v-56h-393v56z" />
    <glyph glyph-name="bn_ha_rikaar" horiz-adv-x="430" 
d="M247 64q4 -3 12 -3t11 5l37 -21q-8 -18 -20 -28t-34 -10q-17 0 -32 7l-157 93q-25 14 -45 34l28 28q28 -26 65 -26q19 0 37.5 7t33.5 20.5t24.5 32.5t9.5 44q0 19 -7.5 35.5t-20.5 29t-30.5 20t-36.5 7.5q-8 0 -12.5 -5t-4.5 -11v-30q0 -7 4.5 -12t11.5 -5l74 -7v-41
l-74 -7q-29 0 -50.5 21.5t-21.5 50.5v30q0 29 20.5 49.5t50.5 22.5h2q36 -2 63.5 -15t46.5 -33q16 -18 25 -39l84 41v12h56v-311h-56v236l-71 -35v-2q0 -23 -5 -45t-16.5 -42t-30 -36t-45.5 -25l65 -33zM436 493v-56h-439v56h439z" />
    <glyph glyph-name="bn_h_nna" horiz-adv-x="303" 
d="M270 66l37 -21l-1 -1h1v-160h-57v44q-7 15 -27 26q-21 11 -45 11q-30 0 -53 -15.5t-23 -38.5q0 -15 12.5 -28t35.5 -22l-30 -43q-32 14 -51.5 38t-19.5 56q0 21 10 40t28 33.5t41.5 22.5t50.5 8q39 0 72 -18v9q-16 0 -30 7l-157 93q-25 14 -45 34l28 28q28 -26 65 -26
q19 0 37.5 7t33.5 20.5t24.5 32.5t9.5 44q0 19 -7.5 35.5t-20.5 29t-30.5 20t-36.5 7.5q-8 0 -12.5 -5t-4.5 -11v-30q0 -7 4.5 -12t11.5 -5l74 -7v-41l-74 -7q-29 0 -50.5 21.5t-21.5 50.5v30q0 29 20.5 49.5t50.5 22.5h2q36 -2 63.5 -15t46.5 -33t28.5 -45.5t9.5 -52.5
q0 -23 -5 -45t-16.5 -42t-30 -36t-45.5 -25l65 -33q14 -7 22 -7q7 0 10 5zM306 493v-56h-309v56h309z" />
    <glyph glyph-name="bn_h_na" horiz-adv-x="453" 
d="M414 170l-22 -21q-22 -22 -52 -22q-16 -1 -28.5 5t-24.5 17l-10 9l40 40l10 -10q4 -5 12 -5q9 0 14 5l21 22q6 6 6 14q0 10 -9 18.5t-22 14.5t-26 9t-22 3q-15 0 -32 -4q1 -8 1 -16q0 -23 -5 -45t-16.5 -42t-30 -36t-45.5 -25l65 -33q14 -7 22 -7q7 0 10 5l37 -21
q-8 -18 -20 -28t-34 -10q-17 0 -32 7l-157 93q-25 14 -45 34l28 28q28 -26 65 -26q19 0 37.5 7t33.5 20.5t24.5 32.5t9.5 44q0 19 -7.5 35.5t-20.5 29t-30.5 20t-36.5 7.5q-8 0 -12.5 -5t-4.5 -11v-30q0 -7 4.5 -12t11.5 -5l74 -7v-41l-74 -7q-29 0 -50.5 21.5t-21.5 50.5
v30q0 29 20.5 49.5t50.5 22.5h2q36 -2 63.5 -15t46.5 -33q13 -14 22 -31q28 7 49 7q60 0 110 -45l2 -2q21 -23 21 -52q0 -32 -22 -54zM460 493v-56h-463v56h463z" />
    <glyph glyph-name="bn_h_ma" horiz-adv-x="553" 
d="M-2 493h559v-56h-171v-96l78 38v12h56v-311h-56v236l-78 -38v-278h-56v33q-3 56 -55 74l-88 14q-5 1 -10 1.5t-10 0.5q-12 0 -25 -4.5t-24.5 -13.5t-19 -21.5t-7.5 -28.5q0 -4 2 -10l-55 -14q-3 12 -3 24q0 16 4 28l1 3q15 47 56 74l9 5q15 10 15 29v41q0 14 -10 24
t-24 10l-53 8v42l53 7q14 0 24 10t10 24v41q0 15 -10.5 25.5t-24.5 10.5h-87v56zM288 162q24 -6 42 -19v122h-12q-20 0 -37 7.5t-29.5 20t-20 29.5t-7.5 36v43q0 21 7 36h-61q7 -15 7 -36v-41q0 -37 -25 -62q25 -25 25 -63v-41q0 -9 -1 -14q6 -1 12 -1.5t13 -2.5zM330 321
v116h-14q-15 0 -25.5 -10.5t-10.5 -25.5v-43q0 -15 11 -26t27 -11h12z" />
    <glyph glyph-name="bn_h_ra" horiz-adv-x="303" 
d="M120 4l131 -29v32q-16 0 -30 7l-157 93q-25 14 -45 34l28 28q28 -26 65 -26q19 0 37.5 7t33.5 20.5t24.5 32.5t9.5 44q0 19 -7.5 35.5t-20.5 29t-30.5 20t-36.5 7.5q-8 0 -12.5 -5t-4.5 -11v-30q0 -7 4.5 -12t11.5 -5l74 -7v-41l-74 -7q-29 0 -50.5 21.5t-21.5 50.5v30
q0 29 20.5 49.5t50.5 22.5h2q36 -2 63.5 -15t46.5 -33t28.5 -45.5t9.5 -52.5q0 -23 -5 -45t-16.5 -42t-30 -36t-45.5 -25l65 -33q14 -7 22 -7q7 0 10 5l37 -21v-146h-57v18l-161 38q-26 11 -41 35.5t-15 51.5q0 5 0.5 10t1.5 10l4 10h53l-2 -21q-1 -3 -1 -8q0 -12 7 -22.5
t18 -15.5zM313 493v-56h-316v56h316z" />
    <glyph glyph-name="bn_h_la" horiz-adv-x="303" 
d="M270 66l37 -21l-1 -1h1v-160h-57v37q-13 20 -19 26q-7 6 -15 6q-11 0 -19.5 -7.5t-8.5 -20.5q0 -2 0.5 -3.5t0.5 -3.5l-43 -7q-1 11 -3 21t-6.5 18t-12.5 13t-22 5q-16 0 -26.5 -11.5t-10.5 -25.5v-22q0 -10 10 -10l41 -6v-40l-41 -6q-26 0 -44 18t-18 44v28
q3 35 28.5 59t60.5 24q29 0 54 -17l15 -13q5 5 17 9.5t26 4.5q18 0 36 -8v11q-15 0 -29 7l-157 93q-25 14 -45 34l28 28q28 -26 65 -26q19 0 37.5 7t33.5 20.5t24.5 32.5t9.5 44q0 19 -7.5 35.5t-20.5 29t-30.5 20t-36.5 7.5q-8 0 -12.5 -5t-4.5 -11v-30q0 -7 4.5 -12
t11.5 -5l74 -7v-41l-74 -7q-29 0 -50.5 21.5t-21.5 50.5v30q0 29 20.5 49.5t50.5 22.5h2q36 -2 63.5 -15t46.5 -33t28.5 -45.5t9.5 -52.5q0 -23 -5 -45t-16.5 -42t-30 -36t-45.5 -25l65 -33q14 -7 22 -7q7 0 10 5zM313 493v-56h-316v56h316z" />
    <glyph glyph-name="bn_rra_ukar" horiz-adv-x="460" 
d="M-2 493h465v-56h-254v-121q0 -19 15 -33.5t36 -14.5h23q23 0 38 15t15 35l56 1l3 1l17 -45q7 -19 11 -36.5t4 -36.5q0 -42 -16 -79t-44 -65q-11 -10 -23 -19q20 -4 37 -12q31 -13 53.5 -36t35.5 -53.5t13 -65.5v-12q0 -6 -1 -13h-55v25q0 22 -7 40l-98 -61h-8
q-33 0 -56 23t-23 56v33q0 20 9 37q-9 -1 -18 -1q-43 0 -78.5 16t-61 43t-39.5 62.5t-14 74.5q0 19 3 39h36q-1 -5 -1 -10v-10q0 -32 12.5 -60.5t34 -50.5t50 -35t60.5 -13q29 0 55 11.5t45.5 31.5t30.5 46t11 56q0 22 -6 45q-33 -34 -81 -34h-23q-23 0 -42.5 8.5
t-33.5 22.5t-22.5 33.5t-8.5 40.5v121h-155v56zM132 -17l77 -17l-5 -57l-91 20zM307 -92l80 50q-15 13 -33.5 20.5t-39.5 7.5q-10 0 -16.5 -7t-6.5 -16v-33q0 -16 16 -22z" />
    <glyph glyph-name="bn_rra_uukar" horiz-adv-x="460" 
d="M377 -62l-71 -9q-9 2 -15.5 -4.5t-6.5 -15.5v-33q0 -10 6.5 -16.5t16.5 -7.5q43 3 74 33q45 -5 78 -29t53 -63l-41 -21q-26 41 -75 53q-41 -28 -88 -29h-2q-34 1 -56.5 24t-22.5 56v33q0 32 23.5 55.5t55.5 23.5l13 -1q-5 8 -12 15q-5 5 -11 10q-34 -13 -70 -13
q-43 0 -78.5 16t-61 43t-39.5 62.5t-14 74.5q0 19 3 39h36q-1 -5 -1 -10v-10q0 -32 12.5 -60.5t34 -50.5t50 -35t60.5 -13q29 0 55 11.5t45.5 31.5t30.5 46t11 56q0 22 -6 45q-33 -34 -81 -34h-23q-23 0 -42.5 8.5t-33.5 22.5t-22.5 33.5t-8.5 40.5v121h-155v56h465v-56
h-254v-121q0 -19 15 -33.5t36 -14.5h23q23 0 38 15t15 35l56 1l3 1l17 -45q7 -19 11 -36.5t4 -36.5q0 -42 -16 -79t-44 -65q-10 -9 -21 -18q22 -27 31 -59v-43zM132 -17l77 -17l-5 -57l-91 20z" />
    <glyph glyph-name="bn_rra_ga" horiz-adv-x="636" 
d="M642 437h-39v-442h-56v312q0 25 -10 48.5t-27 41.5t-41 28.5t-51 10.5q-12 0 -20.5 -8.5t-8.5 -20.5v-37q0 -11 8.5 -19.5t19.5 -8.5q18 0 33.5 -7.5t26.5 -19.5t17.5 -27.5t6.5 -31.5v-36q0 -35 -24.5 -60t-59.5 -25h-1l-5 -12q-16 -37 -44 -64.5t-64.5 -43.5t-76.5 -16
q-43 0 -78.5 16t-61 43t-39.5 62.5t-14 74.5q0 19 3 39h36q-1 -5 -1 -10v-10q0 -32 12.5 -60.5t34 -50.5t50 -35t60.5 -13q29 0 55 11.5t45.5 31.5t30.5 46q7 17 10 37v3q1 8 1 16q0 22 -6 45q-33 -34 -81 -34h-23q-23 0 -42.5 8.5t-33.5 22.5t-22.5 33.5t-8.5 40.5v121
h-155v56h301v-56h-90v-121q0 -19 15 -33.5t36 -14.5h23q23 0 38 15t15 35h15q-18 22 -18 52v37q0 35 24 59.5t60 26.5h2q75 -3 128 -53v111h56v-58h39v-56zM172 -36h79l7 -57h-93zM412 275q7 -19 11 -36.5t4 -36.5v-9q5 2 9 6q9 9 9 21v36q0 12 -8.5 21t-20.5 9h-1h-8z" />
    <glyph glyph-name="bn_rha_ukar" horiz-adv-x="350" 
d="M361 437h-236v-368l106 33q46 19 46 64q0 39 -38 60l-7 3h-1q-11 5 -23 8.5t-23 3.5q-2 0 -4.5 -0.5t-4.5 -0.5v42q9 2 18.5 3t18.5 1q30 0 52.5 -11t37.5 -28t23 -38.5t8 -42.5q0 -42 -24 -74q-4 -6 -9 -11q20 -4 38 -12q31 -13 53.5 -36t35.5 -53.5t13 -65.5v-12
q0 -6 -1 -13h-55v25q0 22 -7 40l-98 -61h-8q-33 0 -56 23t-23 56v33q0 14 4 27l-129 -40v445h-71v56h364v-56zM265 -50l80 50q-15 13 -33.5 20.5t-39.5 7.5q-10 0 -16.5 -7t-6.5 -16v-33q0 -16 16 -22zM72 -38l88 28l12 -55l-91 -14z" />
    <glyph glyph-name="bn_rha_uukar" horiz-adv-x="351" 
d="M341 -28l-71 -7q-9 0 -15.5 -6.5t-6.5 -15.5v-33q0 -10 6.5 -16.5t16.5 -7.5q43 3 74 33q45 -5 78 -29t53 -63l-41 -21q-26 41 -75 53q-41 -28 -88 -29h-2q-34 1 -56.5 24t-22.5 56v33q0 32 23.5 55.5t55.5 23.5l13 -1q-5 8 -12 15t-15 14h-1q-3 -1 -7 -2l-180 -56v445
h-71v56h364v-56h-236v-368l106 33q46 19 46 64q0 39 -38 60l-7 3h-1q-11 5 -23 8.5t-23 3.5q-2 0 -4.5 -0.5t-4.5 -0.5v42q9 2 18.5 3t18.5 1q30 0 52.5 -11t37.5 -28t23 -38.5t8 -42.5q0 -42 -24 -74q-3 -5 -7 -10q27 -31 38 -67v-43zM72 -38l88 28l12 -55l-91 -14z" />
    <glyph glyph-name="bn_reph" 
d="M-107 520l108 124h73l-119 -124h-62z" />
    <glyph glyph-name="bn_iikaar_reph" horiz-adv-x="144" 
d="M22 563h-62l38 44q-39 23 -92 23h-64q-11 0 -11 -12v-1q0 -11 11 -11h104v-57h-104q-28 0 -48 20t-20 48v1q0 28 20 48t48 20h72q71 -4 121 -36l33 38h73l-67 -70q30 -31 51 -76v-49h42v-56h-42v-437h-57v437h-73v56h73v37q-15 26 -33 46z" />
    <glyph glyph-name="bn_ukaar.alt" horiz-adv-x="163" 
d="M-50 493h224v-56h-224v56zM124 327q22 -22 22 -53q0 -4 -1.5 -12.5t-4 -17.5t-6.5 -16t-10 -7v-1h-1q-50 -45 -110 -45q-23 0 -62 9l-11 63q38 -19 71 -19q9 0 22.5 3t26 9t21.5 14.5t9 19.5q0 8 -6 13l-21 22q-7 5 -14 5t-12 -5l-10 -9l-40 40l10 9q23 22 53 22t52 -22z
" />
    <glyph glyph-name="bn_uukaar.alt" horiz-adv-x="150" 
d="M-50 295l111 54v12h56v-311h-56v236l-111 -54v63zM-50 493h203v-56h-203v56z" />
    <glyph glyph-name="bn_aumark_reph" horiz-adv-x="147" 
d="M7 539h-62l20 23h-26q-31 0 -53 22t-22 53h56q0 -8 6 -13.5t13 -5.5h74l40 46h73l-61 -64q9 -5 17 -13q14 -13 24.5 -30.5t18.5 -35.5v-28h72v-56h-72v-437h-57v437h-70v56h70v16q-8 17 -21 35q-9 11 -20 16z" />
    <glyph glyph-name="bn_ba_phala" 
d="M-238 -148l149 -50v132l-149 -50v-32zM-33 -273h-56v16l-205 68v114l205 68v9h56v-275z" />
    <glyph glyph-name="bn_ba_phala.alt" horiz-adv-x="264" 
d="M270 493v-56h-39v-442h-56v13l-262 86v206l262 87v50h-297v56h392zM-31 135l206 -68v260l-206 -68v-124z" />
    <glyph glyph-name="bn_ya_phala" horiz-adv-x="164" 
d="M183 437h-79q-7 -17 -14 -43t-7 -54q0 -17 4 -34t9 -30t9 -22l5 -8l5 -11q6 -10 12.5 -27.5t12 -39t5.5 -44.5q0 -24 -5 -46t-11 -39.5t-12 -28t-8 -10.5h-46q7 21 12 42q5 18 9 40t4 42q0 17 -4 34t-9 30t-10 21l-4 9q0 1 -5.5 11.5t-12 27t-12 38.5t-5.5 45q0 33 8 63
q5 19 10 34h-46v56h185v-56z" />
    <glyph glyph-name="bn_ra_phala" 
d="M-89 4h56v-195h-57v18l-245 54q-32 7 -53.5 32.5t-21.5 60.5q0 5 0.5 10t1.5 10l16 44h43l-4 -55q-1 -3 -1 -8q0 -14 8.5 -25.5t22.5 -13.5l5 -1l229 -50v119z" />
    <glyph glyph-name="dottedcircle" unicode="&#x25cc;" horiz-adv-x="461" 
d="M201 151q-16 -17 -31.5 -30.5t-28.5 -23.5t-21.5 -15.5t-9.5 -5.5l-36 59h-2q0 3 18.5 17.5t61.5 57.5q4 -18 17 -34t32 -25zM320 205q29 -38 50.5 -57.5t21.5 -21.5h-3l-38 -58q-4 2 -30.5 23t-55.5 58q18 6 33.5 22t21.5 34zM304 288q23 13 42.5 30t27.5 27l57 -51
q-10 -12 -37.5 -33.5t-70.5 -43.5q1 5 1 15q0 31 -20 56zM150 221q-25 13 -45 25.5t-34 22.5t-22 16l-8 7l55 54q33 -33 75 -55q-22 -25 -22 -59q0 -8 1 -11zM200 312v84h67l5 -84q-18 8 -36 8t-36 -8z" />
    <glyph glyph-name="zwnj" unicode="&#x200c;" 
 />
    <glyph glyph-name="zwj" unicode="&#x200d;" 
 />
    <glyph glyph-name="indianrupeesign" unicode="&#x20b9;" horiz-adv-x="363" 
d="M20 319h226q-17 51 -45 71.5t-65 23.5h-116v46h326v-46h-91l16 -22q4 -4 5 -7l14 -21l6 -13l4 -13l5 -19h41v-46h-39q-10 -54 -44 -94.5t-89 -56.5l107 -55q8 -2 14 -2q10 0 14 5l34 -20q-1 -3 -4 -8t-9.5 -10t-17 -8.5t-25.5 -3.5q-19 0 -37 8l-6 4l-181 108
q-26 13 -43 30l23 22q33 -30 77 -30q18 0 37 6t36.5 17.5t31 28.5t19.5 40l5 19h-229v46z" />
    <glyph glyph-name="bn_nga.half" horiz-adv-x="246" 
d="M248 178q-35 -22 -76 -22q-32 0 -57.5 11.5t-43.5 31t-28 45.5t-10 54v13q0 7 2 15l43 1q-1 -3 -1 -7v-6q0 -19 7.5 -37t20 -32.5t30 -23t37.5 -8.5q18 0 34 7.5t28 19.5t19 28t7 34v6q0 4 -1 8q-20 -16 -48 -16h-17q-33 0 -56.5 23.5t-24.5 57.5q-40 16 -58 56h-57v56
h103v-12q0 -25 21 -41q29 62 97 66h2q24 -1 40 -17.5t16 -39.5v-19q0 -29 -25 -47h41l13 -27q6 -13 8.5 -27.5t2.5 -28.5q0 -38 -19 -69.5t-50 -52.5zM211 356q20 0 25 20q-10 -2 -15 -2h-51q7 -18 24 -18h17zM220 450q-25 -1 -40 -20h41v19z" />
    <glyph glyph-name="bn_ca.half" horiz-adv-x="174" 
d="M176 437h-87v-32l123 -39q35 -12 57.5 -37.5t22.5 -68.5q0 -46 -20 -80t-60 -47l-179 -56v360h-37v56h180v-56zM89 153l106 33q46 19 46 63t-46 63l-106 35v-194z" />
    <glyph glyph-name="bn_nna.half" horiz-adv-x="137" 
d="M236 387h-4q-8 23 -28 38t-44 15q-30 0 -52.5 -22t-22.5 -53q0 -27 16 -46t39 -27l-24 -47q-38 12 -62 43t-24 76q0 26 10.5 49.5t28 41.5t41 28.5t50.5 10.5q30 0 59 -13l17 -10v-84z" />
    <glyph glyph-name="bn_da.half" horiz-adv-x="218" 
d="M226 437h-102v-199l126 61v13h57v-312h-57v236l-182 -88v289h-72v56h230v-56z" />
    <glyph glyph-name="bn_na.half" horiz-adv-x="191" 
d="M263 266q-14 39 -36.5 55.5t-50.5 16.5q-36 0 -62.5 -24.5t-26.5 -62.5q0 -27 13 -47.5t36 -33.5l-27 -49q-36 20 -57 52.5t-21 76.5q0 30 11.5 56t31 45.5t45.5 31t56 11.5q47 0 88 -30v-98zM279 437h-282v56h282v-56z" />
    <glyph glyph-name="bn_ma.half" horiz-adv-x="224" 
d="M325 437h-166q5 -22 5 -41v-12q0 -6 -1 -11q15 0 29 -4t27 -9t26 -9t27 -4h8q4 0 8 1l17 4v-58l-8 -2q-6 -1 -12 -1.5t-12 -0.5q-15 0 -29 4t-27.5 9.5t-26 9.5t-24.5 4q-32 0 -54 -21.5t-22 -51.5v-21q0 -12 11 -12l37 -7v-42l-37 -7q-28 0 -48 20t-20 48v29
q9 70 69 105q6 19 6 38q0 21 -8 42h-103v56h328v-56z" />
    <glyph glyph-name="bn_la.half" horiz-adv-x="277" 
d="M349 280q-14 24 -22.5 29.5t-21.5 5.5q-17 0 -30.5 -13t-13.5 -30v-5l-47 -9q-2 30 -15.5 54t-51.5 24q-25 0 -40.5 -16.5t-17.5 -39.5v-31q0 -9 6 -15t15 -6l51 -7v-46l-51 -7q-34 0 -57.5 23.5t-23.5 57.5v38q2 22 12 42t26 35t37 24t46 9q26 0 51.5 -12t40.5 -33
q11 11 27.5 17.5t36.5 6.5q23 0 43 -10v-86zM368 437h-371v56h371v-56z" />
    <glyph glyph-name="bn_ssa.half" horiz-adv-x="232" 
d="M-3 493h310v-56q15 -26 15 -56v-64q0 -23 -9 -43.5t-24 -35.5t-35.5 -24t-43.5 -9h-65q-23 0 -43.5 9t-35.5 24t-24 35.5t-9 43.5v64q0 30 15 56h-51v56zM210 261q30 0 48 27l-168 72v-43q0 -23 16 -39.5t39 -16.5h65zM265 381q0 23 -16 39.5t-39 16.5h-65q-27 0 -43 -21
l163 -70v35z" />
    <glyph glyph-name="bn_sa.half" horiz-adv-x="379" 
d="M479 493v-120q0 -34 -24.5 -58.5t-58.5 -24.5h-26q-14 0 -27 4t-26 8.5t-25 8.5t-23 4q-27 0 -49 -16l-22 -23q-34 -31 -77 -31q-42 0 -76 31l-13 19l34 34l19 -13q15 -15 36 -15q9 0 19 3.5t18 11.5l26 26q9 8 14.5 13.5t8 11t3 11.5t0.5 15q0 22 -8 44h-204v56h481z
M423 373v64h-162q5 -21 6 -43q0 -5 -0.5 -11t-1.5 -12h5q14 0 26.5 -4t25 -8.5t24.5 -8.5t25 -4h25q11 0 19 8t8 19z" />
    <glyph glyph-name="bnk_ssa.half" horiz-adv-x="575" 
d="M-2 493h579v-56h-191v-108q7 1 13.5 1.5t13.5 0.5q66 0 121 -49l1 -1q23 -25 23 -56q-1 -15 -6.5 -30t-17.5 -27l-24 -24q-11 -11 -26 -17t-30 -6q-31 0 -56 23l-11 10l40 40l11 -10q6 -7 16 -7q9 0 16 7l24 24q7 7 7 16q0 12 -10 21.5t-24 16t-28.5 10t-24.5 3.5
q-13 0 -28 -3v-272h-56v33q-3 56 -55 74l-88 14q-5 1 -10 1.5t-10 0.5q-12 0 -25 -4.5t-24.5 -13.5t-19 -21.5t-7.5 -28.5q0 -4 2 -10l-55 -14q-3 12 -3 24q0 16 4 28l1 3q15 47 56 74l9 5q15 10 15 29v41q0 14 -10 24t-24 10l-53 8v42l53 7q14 0 24 10t10 24v41
q0 15 -10.5 25.5t-24.5 10.5h-87v56zM288 162q24 -6 42 -19v122h-12q-20 0 -37 7.5t-29.5 20t-20 29.5t-7.5 36v43q0 21 7 36h-61q7 -15 7 -36v-41q0 -37 -25 -62q25 -25 25 -63v-41q0 -9 -1 -14q6 -1 12 -1.5t13 -2.5zM330 321v116h-14q-15 0 -25.5 -10.5t-10.5 -25.5v-43
q0 -15 11 -26t27 -11h12zM446 -143h82l-131 112h-71z" />
    <glyph glyph-name="dollar" unicode="$" horiz-adv-x="378" 
d="M359 124q0 -54 -39 -87.5t-96 -40.5v-82h-69v78q-28 0 -66 6t-70 21v81q45 -20 81.5 -28t54.5 -8v133q-66 21 -98 54t-32 85q0 27 11.5 48.5t29.5 37t41.5 25t47.5 11.5v65h69v-63q28 -1 59.5 -9t68.5 -22l-27 -68q-62 24 -101 27v-130q72 -23 103.5 -52.5t31.5 -81.5z
M276 120q0 20 -13 33t-39 22v-106q52 7 52 51zM109 337q0 -22 13 -35t33 -21v104q-17 -3 -31.5 -16t-14.5 -32z" />
    <glyph glyph-name="ampersand" unicode="&#x26;" horiz-adv-x="482" 
d="M463 7h-97l-41 39q-67 -46 -143 -46q-78 0 -121 34.5t-43 92.5q0 21 4 38.5t14.5 33t28.5 30.5t46 31q-31 36 -41.5 60t-10.5 53q0 45 35 73.5t96 28.5q58 0 91.5 -26t33.5 -69q0 -36 -21.5 -66.5t-80.5 -64.5l110 -108q15 25 26.5 51t19.5 53h85q-8 -31 -28.5 -72.5
t-51.5 -79.5zM105 137q0 -33 24 -52t60 -19q43 0 90 27l-123 122q-27 -20 -39 -37.5t-12 -40.5zM241 369q0 22 -15 34.5t-37 12.5q-25 0 -40.5 -13t-15.5 -37q0 -31 38 -75q36 20 53 37t17 41z" />
    <glyph glyph-name="zero" unicode="0" horiz-adv-x="386" 
d="M359 243q0 -130 -39 -189.5t-124 -59.5q-163 0 -163 249q0 130 39 190t124 60q163 0 163 -250zM111 243q0 -99 20.5 -141.5t64.5 -42.5q45 0 65 42.5t20 141.5q0 97 -20 140.5t-65 43.5q-44 0 -64.5 -42.5t-20.5 -141.5z" />
    <glyph glyph-name="one" unicode="1" horiz-adv-x="272" 
d="M230 1h-77v312q0 28 0.5 50t1.5 39l-18 -18l-74 -60l-39 49l141 112h65v-484z" />
    <glyph glyph-name="two" unicode="2" horiz-adv-x="370" 
d="M349 1h-325v59l124 125q34 37 55 60.5t32.5 41t15.5 32.5t4 36q0 33 -19.5 51.5t-54.5 18.5q-27 0 -53 -10t-60 -37l-42 51q40 34 78 48.5t81 14.5q67 0 107.5 -35t40.5 -95q0 -26 -6 -48.5t-20.5 -46t-39.5 -50.5t-62 -63l-84 -81v-4h228v-68z" />
    <glyph glyph-name="three" unicode="3" horiz-adv-x="368" 
d="M332 374q0 -46 -26.5 -77t-75.5 -41v-3q58 -7 87 -36t29 -77q0 -70 -48.5 -108t-139.5 -38q-74 0 -135 26v69q61 -31 131 -31q55 0 83 20t28 65q0 39 -30.5 57t-96.5 18h-42v64h43q115 0 115 80q0 31 -20 48t-59 17q-28 0 -53 -8t-60 -30l-38 54q64 49 154 49
q72 0 113 -31.5t41 -86.5z" />
    <glyph glyph-name="four" unicode="4" horiz-adv-x="404" 
d="M378 106h-64v-105h-76v105h-219v60l219 320h76v-315h64v-65zM238 171v121q0 32 1 59t3 48h-3q-4 -11 -11 -24t-18 -29l-119 -175h147z" />
    <glyph glyph-name="five" unicode="5" horiz-adv-x="368" 
d="M180 303q73 0 115.5 -38.5t42.5 -105.5q0 -78 -48.5 -121.5t-136.5 -43.5q-80 0 -127 26v71q27 -15 61.5 -23.5t63.5 -8.5q107 0 107 92q0 87 -110 87q-15 0 -37.5 -3t-39.5 -7l-35 20l19 237h249v-69h-181l-11 -120q11 2 27.5 4.5t40.5 2.5z" />
    <glyph glyph-name="six" unicode="6" horiz-adv-x="375" 
d="M25 207q0 284 229 284q19 0 34 -1.5t27 -3.5v-65q-18 7 -57 7q-78 0 -116.5 -41t-41.5 -135h4q15 27 43 42t66 15q66 0 102 -40.5t36 -109.5q0 -78 -42 -121.5t-115 -43.5q-78 0 -123.5 55t-45.5 158zM192 58q40 0 61.5 26t21.5 74q0 42 -19.5 65.5t-61.5 23.5
q-19 0 -35.5 -6.5t-29 -17t-19.5 -25t-7 -29.5q0 -48 25 -79.5t64 -31.5z" />
    <glyph glyph-name="seven" unicode="7" horiz-adv-x="381" 
d="M87 1l190 415h-250v68h332v-54l-189 -429h-83z" />
    <glyph glyph-name="eight" unicode="8" horiz-adv-x="376" 
d="M186 491q69 0 108.5 -31t39.5 -85q0 -75 -89 -119q57 -28 80.5 -59.5t23.5 -70.5q0 -60 -43.5 -96t-118.5 -36q-78 0 -121 33.5t-43 96.5q0 40 22.5 72.5t73.5 57.5q-45 26 -63 55.5t-18 66.5q0 54 41 84.5t107 30.5zM97 126q0 -34 23.5 -53t65.5 -19t65.5 19.5
t23.5 53.5q0 52 -87 90l-10 4q-43 -19 -62 -42t-19 -53zM185 431q-33 0 -53 -16.5t-20 -44.5q2 -14 5 -24t10.5 -19t21.5 -18t38 -21q40 18 56 37t16 45q0 28 -20 44.5t-54 16.5z" />
    <glyph glyph-name="nine" unicode="9" horiz-adv-x="369" 
d="M348 278q0 -284 -229 -284q-17 0 -33 1.5t-30 3.5v66q30 -9 59 -9q78 0 116.5 42.5t42.5 133.5h-4q-19 -30 -46.5 -43t-64.5 -13q-64 0 -100.5 40t-36.5 110q0 75 42.5 120t115.5 45q78 0 123 -55t45 -158zM181 427q-40 0 -61.5 -26.5t-21.5 -74.5q0 -42 20 -65.5
t60 -23.5q19 0 36 6.5t30 17.5t20 25.5t7 29.5q0 22 -7 42.5t-19 35.5t-28.5 24t-35.5 9z" />
    <glyph glyph-name="A" unicode="A" horiz-adv-x="487" 
d="M381 1l-48 134h-183l-47 -134h-83l180 486h85l180 -486h-84zM313 203l-59 173q-5 14 -7.5 25t-4.5 18q-5 -20 -11.5 -42.5t-14.5 -46.5l-43 -127h140z" />
    <glyph glyph-name="B" unicode="B" horiz-adv-x="403" 
d="M28 485h142q100 0 144 -29t44 -92q0 -43 -21 -71t-63 -35v-4q98 -18 98 -114q0 -66 -45 -102.5t-126 -36.5h-173v484zM106 285h76q49 0 71.5 15.5t22.5 53.5q0 34 -24 49.5t-78 15.5h-68v-134zM106 221v-154h84q49 0 74 18.5t25 60.5q0 75 -103 75h-80z" />
    <glyph glyph-name="C" unicode="C" horiz-adv-x="426" 
d="M263 424q-69 0 -107 -48.5t-38 -133.5q0 -180 145 -180q30 0 58.5 6t59.5 15v-67q-50 -22 -128 -22q-106 0 -162 64t-56 185q0 57 16 103t45.5 78.5t71.5 50t95 17.5q75 0 136 -31l-28 -66q-24 11 -51 20t-57 9z" />
    <glyph glyph-name="D" unicode="D" horiz-adv-x="472" 
d="M429 247q0 -121 -64 -183.5t-192 -62.5h-134v484h148q115 0 178.5 -61.5t63.5 -176.5zM346 245q0 174 -161 174h-68v-352h56q173 0 173 178z" />
    <glyph glyph-name="E" unicode="E" horiz-adv-x="323" 
d="M300 1h-271v484h271v-67h-193v-132h181v-66h-181v-152h193v-67z" />
    <glyph glyph-name="F" unicode="F" horiz-adv-x="317" 
d="M103 1h-78v484h271v-67h-193v-151h180v-68h-180v-198z" />
    <glyph glyph-name="G" unicode="G" horiz-adv-x="446" 
d="M242 263h177v-243q-45 -14 -83.5 -20t-86.5 -6q-109 0 -168 64t-59 185q0 118 66 183.5t184 65.5q70 0 143 -29l-28 -66q-59 27 -117 27q-76 0 -121 -48.5t-45 -133.5q0 -91 40.5 -136t115.5 -45q19 0 39.5 2.5t42.5 7.5v124h-100v68z" />
    <glyph glyph-name="H" unicode="H" horiz-adv-x="460" 
d="M403 1h-79v218h-221v-218h-79v484h79v-198h221v198h79v-484z" />
    <glyph glyph-name="I" unicode="I" horiz-adv-x="247" 
d="M220 1h-194v45l58 19v355l-58 20v45h194v-45l-57 -20v-355l57 -19v-45z" />
    <glyph glyph-name="J" unicode="J" horiz-adv-x="172" 
d="M-5 -134q-25 0 -54 8v66q22 -7 48 -7q64 0 64 83v469h79v-467q0 -75 -35 -113.5t-102 -38.5z" />
    <glyph glyph-name="K" unicode="K" horiz-adv-x="414" 
d="M386 1h-91l-151 219l-46 -38v-181h-79v484h79v-231q16 20 32 38.5t32 37.5l129 155h90q-63 -75 -108 -127.5t-73 -84.5z" />
    <glyph glyph-name="L" unicode="L" horiz-adv-x="332" 
d="M24 1v484h78v-416h204v-68h-282z" />
    <glyph glyph-name="M" unicode="M" horiz-adv-x="548" 
d="M232 1l-139 404h-3q6 -90 6 -169v-235h-72v484h111l135 -385l138 385h111v-484h-76v239q0 15 1 41t1.5 52.5t1.5 47t1 23.5h-2l-145 -403h-69z" />
    <glyph glyph-name="N" unicode="N" horiz-adv-x="456" 
d="M425 1h-97l-236 386h-2l1 -22q1 -25 3 -47t2 -44v-273h-72v484h96l235 -384h2q0 1 -0.5 17.5t-1.5 38t-1.5 42.5t-0.5 32v254h72v-484z" />
    <glyph glyph-name="O" unicode="O" horiz-adv-x="495" 
d="M469 243q0 -118 -58 -183.5t-167 -65.5t-167 64.5t-58 185.5t58.5 185t167.5 64t166.5 -64.5t57.5 -185.5zM103 243q0 -181 141 -181q142 0 142 181q0 182 -141 182q-142 0 -142 -182z" />
    <glyph glyph-name="P" unicode="P" horiz-adv-x="361" 
d="M335 339q0 -76 -49.5 -116.5t-140.5 -40.5h-50v-181h-78v484h138q180 0 180 -146zM95 248h42q61 0 89 21.5t28 66.5q0 42 -25 62.5t-79 20.5h-55v-171z" />
    <glyph glyph-name="Q" unicode="Q" horiz-adv-x="507" 
d="M479 243q0 -88 -33.5 -148t-96.5 -85l115 -125h-106l-91 109h-13q-109 0 -167 64.5t-58 185.5t58.5 185t167.5 64t166.5 -64.5t57.5 -185.5zM113 243q0 -181 141 -181q142 0 142 181q0 182 -141 182q-142 0 -142 -182z" />
    <glyph glyph-name="R" unicode="R" horiz-adv-x="408" 
d="M99 260h55q54 0 79 20.5t25 60.5q0 42 -26.5 59.5t-80.5 17.5h-52v-158zM99 194v-193h-78v484h135q94 0 138.5 -34.5t44.5 -106.5q0 -92 -94 -129l136 -214h-89l-115 193h-78z" />
    <glyph glyph-name="S" unicode="S" horiz-adv-x="344" 
d="M325 132q0 -64 -46 -101t-128 -37q-75 0 -133 26v74q33 -15 70 -24t68 -9q48 0 69.5 18t21.5 48q0 13 -4 24t-15.5 21.5t-31.5 21.5t-53 24q-66 26 -93 60.5t-27 83.5q0 60 43 95t115 35q75 0 137 -31l-25 -64q-65 27 -114 27q-38 0 -58 -16.5t-20 -44.5q0 -12 1.5 -21.5
t11 -19.5t29.5 -21.5t57 -26.5q39 -16 62.5 -31t37 -31t18.5 -35.5t7 -44.5z" />
    <glyph glyph-name="T" unicode="T" horiz-adv-x="400" 
d="M234 1h-78v416h-142v68h361v-68h-141v-416z" />
    <glyph glyph-name="U" unicode="U" horiz-adv-x="437" 
d="M408 485v-313q0 -82 -50.5 -130t-141.5 -48t-139.5 47t-48.5 132v312h79v-306q0 -60 27.5 -88.5t84.5 -28.5q111 0 111 117v306h78z" />
    <glyph glyph-name="V" unicode="V" horiz-adv-x="459" 
d="M357 485h81l-168 -484h-82l-168 484h81l100 -301l7 -25q3 -10 6 -22t6 -23.5t5.5 -21t3.5 -13.5q1 13 4.5 28.5t7.5 30t8.5 27t7.5 20.5z" />
    <glyph glyph-name="W" unicode="W" horiz-adv-x="662" 
d="M518 1h-85l-82 288q-2 7 -6 22.5t-7.5 32t-6 30.5t-2.5 19l-23 -105l-80 -287h-85l-125 484h80l69 -282q8 -34 13.5 -64t9.5 -56q1 15 4 31t6.5 32t7 30.5t6.5 25.5l78 283h78l80 -284q5 -20 9 -49.5t15 -68.5q4 46 24 120l68 282h79z" />
    <glyph glyph-name="X" unicode="X" horiz-adv-x="439" 
d="M428 1h-91l-120 198l-121 -198h-84l159 251l-149 233h87l111 -183l111 183h85l-150 -235z" />
    <glyph glyph-name="Y" unicode="Y" horiz-adv-x="430" 
d="M180 237l-158 248h87l111 -183l111 183h85l-158 -248v-236h-78v236z" />
    <glyph glyph-name="Z" unicode="Z" horiz-adv-x="394" 
d="M376 1h-344v55l243 361h-236v68h330v-56l-243 -360h250v-68z" />
    <glyph glyph-name="a" unicode="a" horiz-adv-x="341" 
d="M262 1l-15 51h-3q-26 -34 -52.5 -46t-68.5 -12q-54 0 -83.5 29t-29.5 83q0 111 168 117l63 2v19q0 35 -16 52.5t-51 17.5q-28 0 -53.5 -8.5t-48.5 -19.5l-25 56q29 15 64 23.5t67 8.5q69 0 104.5 -30.5t35.5 -96.5v-246h-56zM147 54q43 0 68 23.5t25 66.5v32l-46 -2
q-55 -2 -79.5 -18.5t-24.5 -50.5q0 -24 14.5 -37.5t42.5 -13.5z" />
    <glyph glyph-name="b" unicode="b" horiz-adv-x="378" 
d="M213 374q69 0 106 -49t37 -140t-38 -141t-107 -50t-107 50h-5l-14 -43h-58v515h77v-123q0 -5 -0.5 -16.5t-1 -23.5t-1 -22t-0.5 -12h3q37 55 109 55zM193 310q-48 0 -68 -27t-21 -93v-5q0 -67 21 -97t69 -30q83 0 83 127q0 125 -84 125z" />
    <glyph glyph-name="c" unicode="c" horiz-adv-x="325" 
d="M195 -6q-85 0 -126.5 48.5t-41.5 139.5q0 94 44.5 143t129.5 49q61 0 104 -22l-24 -63q-55 20 -81 20q-94 0 -94 -126q0 -124 92 -124q51 0 98 26v-68q-21 -12 -44.5 -17.5t-56.5 -5.5z" />
    <glyph glyph-name="d" unicode="d" horiz-adv-x="387" 
d="M169 -6q-69 0 -106.5 49t-37.5 140t38 141t107 50q71 0 109 -54h4q-2 20 -3.5 36t-1.5 27v133h77v-515h-60l-14 48h-3q-37 -55 -109 -55zM190 57q48 0 69.5 27t21.5 88v11q0 69 -22 98t-70 29q-42 0 -63.5 -33.5t-21.5 -94.5t21.5 -93t64.5 -32z" />
    <glyph glyph-name="e" unicode="e" horiz-adv-x="361" 
d="M200 -6q-85 0 -132.5 49.5t-47.5 137.5q0 91 44 142t122 51q72 0 113.5 -44t41.5 -122v-42h-242q5 -110 105 -110q32 0 59.5 6t59.5 20v-63q-28 -14 -57 -19.5t-66 -5.5zM186 315q-37 0 -59 -23.5t-26 -68.5h165q-1 45 -22 68.5t-58 23.5z" />
    <glyph glyph-name="f" unicode="f" horiz-adv-x="246" 
d="M233 308h-89v-307h-77v307h-60v36l60 24v24q0 128 122 128q34 0 81 -14l-21 -59q-29 9 -54 9q-27 0 -39 -16t-12 -49v-24h89v-59z" />
    <glyph glyph-name="g" unicode="g" horiz-adv-x="388" 
d="M367 367v-43l-62 -11q8 -12 14 -29t6 -36q0 -57 -38.5 -89t-107.5 -32q-18 0 -31 3q-25 -16 -25 -37q0 -12 11.5 -18.5t42.5 -6.5h64q60 0 91 -26t31 -74q0 -63 -50.5 -96.5t-147.5 -33.5q-75 0 -113.5 26.5t-38.5 75.5q0 34 21 57t59 32q-15 6 -25 21t-10 31
q0 20 11.5 34.5t33.5 28.5q-28 12 -45.5 39.5t-17.5 64.5q0 60 37 93t106 33q16 0 33 -2.5t25 -4.5h126zM82 -56q0 -25 22.5 -39t62.5 -14q63 0 94 18.5t31 48.5q0 24 -17 34t-63 10h-58q-33 0 -52.5 -15.5t-19.5 -42.5zM115 248q0 -34 17.5 -52.5t50.5 -18.5q67 0 67 72
q0 36 -16.5 55.5t-50.5 19.5q-68 0 -68 -76z" />
    <glyph glyph-name="h" unicode="h" horiz-adv-x="379" 
d="M351 1h-78v225q0 42 -16.5 63t-53.5 21q-49 0 -71.5 -29t-22.5 -98v-182h-78v515h78v-131q0 -16 -1 -32.5t-3 -34.5h5q15 26 43.5 41t65.5 15q132 0 132 -135v-238z" />
    <glyph glyph-name="i" unicode="i" horiz-adv-x="137" 
d="M107 1h-77v366h77v-366zM25 464q0 43 44 43q43 0 43 -43t-43 -43q-44 0 -44 43z" />
    <glyph glyph-name="j" unicode="j" horiz-adv-x="141" 
d="M-9 -162q-29 0 -58 8v62q22 -6 45 -6q50 0 50 56v409h77v-414q0 -57 -29.5 -86t-84.5 -29zM23 464q0 43 44 43q43 0 43 -43t-43 -43q-44 0 -44 43z" />
    <glyph glyph-name="k" unicode="k" horiz-adv-x="379" 
d="M148 249l109 118h89l-146 -157l156 -209h-91l-117 160l-42 -35v-125h-77v515h77v-320z" />
    <glyph glyph-name="l" unicode="l" horiz-adv-x="140" 
d="M109 1h-77v515h77v-515z" />
    <glyph glyph-name="m" unicode="m" horiz-adv-x="595" 
d="M338 1h-78v226q0 83 -65 83q-45 0 -65.5 -29t-20.5 -98v-182h-78v366h61l11 -48h4q15 26 43.5 40.5t63.5 14.5q83 0 111 -58h5q16 27 45.5 42.5t66.5 15.5q66 0 95.5 -33t29.5 -102v-238h-77v226q0 83 -66 83q-45 0 -65.5 -28.5t-20.5 -86.5v-194z" />
    <glyph glyph-name="n" unicode="n" horiz-adv-x="376" 
d="M351 1h-78v225q0 42 -16.5 63t-53.5 21q-49 0 -71.5 -29t-22.5 -98v-182h-78v366h61l11 -48h4q16 26 46 40.5t67 14.5q131 0 131 -135v-238z" />
    <glyph glyph-name="o" unicode="o" horiz-adv-x="400" 
d="M373 185q0 -91 -45.5 -141t-126.5 -50q-78 0 -124.5 51.5t-46.5 139.5q0 91 44 140t129 49q79 0 124.5 -50.5t45.5 -138.5zM109 185q0 -127 93 -127q92 0 92 127q0 125 -93 125q-48 0 -70 -32.5t-22 -92.5z" />
    <glyph glyph-name="p" unicode="p" horiz-adv-x="385" 
d="M211 -6q-69 0 -107 50h-4q2 -23 3 -37t1 -19v-150h-77v529h62q2 -5 4.5 -17t6.5 -32h4q36 56 109 56q69 0 106 -49t37 -140t-38 -141t-107 -50zM193 310q-46 0 -67.5 -27t-21.5 -87v-11q0 -67 21 -97t69 -30q40 0 61.5 33t21.5 94q0 125 -84 125z" />
    <glyph glyph-name="q" unicode="q" horiz-adv-x="402" 
d="M200 56q49 0 70 28.5t21 85.5v13q0 67 -21.5 97t-70.5 30q-85 0 -85 -128q0 -126 86 -126zM178 -6q-67 0 -105 49t-38 140t38 141t107 50q35 0 62 -13t48 -42h3l8 48h64v-529h-77v155q0 15 1 31t2 25h-4q-34 -55 -109 -55z" />
    <glyph glyph-name="r" unicode="r" horiz-adv-x="276" 
d="M216 374q29 0 38 -4l-7 -72q-11 4 -34 4q-48 0 -76 -30.5t-28 -79.5v-191h-77v366h60l10 -65h4q18 33 47 52.5t63 19.5z" />
    <glyph glyph-name="s" unicode="s" horiz-adv-x="318" 
d="M294 105q0 -54 -39 -82.5t-111 -28.5q-74 0 -117 22v67q70 -29 120 -29q71 0 71 43q0 18 -18 32.5t-66 32.5q-32 12 -52.5 24t-32.5 25t-17 28.5t-5 35.5q0 48 37 73.5t103 25.5q64 0 121 -27l-25 -58q-59 24 -99 24q-61 0 -61 -35q0 -9 3.5 -16.5t12.5 -14t25.5 -14
t43.5 -17.5q33 -13 53 -24t31 -23.5t15.5 -27.5t6.5 -36z" />
    <glyph glyph-name="t" unicode="t" horiz-adv-x="267" 
d="M198 57q27 0 56 9v-59q-12 -5 -32.5 -9t-41.5 -4q-110 0 -110 117v197h-50v34l53 29l27 77h47v-81h104v-59h-104v-196q0 -28 14 -41.5t37 -13.5z" />
    <glyph glyph-name="u" unicode="u" horiz-adv-x="370" 
d="M288 1l-11 48h-4q-16 -26 -46 -40.5t-68 -14.5q-131 0 -131 134v239h78v-226q0 -84 71 -84q48 0 71 29.5t23 98.5v182h77v-366h-60z" />
    <glyph glyph-name="v" unicode="v" horiz-adv-x="383" 
d="M148 1l-138 366h81l74 -213q9 -27 15 -48.5t8 -38.5h3q2 12 7.5 33.5t15.5 53.5l74 213h82l-139 -366h-83z" />
    <glyph glyph-name="w" unicode="w" horiz-adv-x="563" 
d="M366 1l-47 171q-4 14 -12 44.5t-19 81.5h-3q-12 -43 -18.5 -75t-11.5 -52l-48 -170h-85l-102 366h79l46 -181q8 -33 13.5 -61.5t8.5 -52.5h2q1 6 1.5 12.5t2.5 13.5l6 29q2 14 5.5 26t6.5 21l55 193h85l53 -193q2 -7 5 -20.5t6 -28.5t6 -29.5t4 -22.5h3q2 20 7.5 48
t15.5 65l47 181h77l-102 -366h-87z" />
    <glyph glyph-name="x" unicode="x" horiz-adv-x="381" 
d="M140 188l-122 179h89l82 -128l84 128h87l-122 -179l128 -187h-87l-90 137l-89 -137h-87z" />
    <glyph glyph-name="y" unicode="y" horiz-adv-x="398" 
d="M20 367h84l74 -208q8 -22 14 -42.5t8 -40.5h3l3 15q1 7 4 16t11.5 36t26 79t49.5 145h84l-156 -415q-44 -114 -141 -114q-13 0 -25.5 1.5t-24.5 3.5v62q12 -4 42 -4q29 0 46 16.5t30 48.5l14 35z" />
    <glyph glyph-name="z" unicode="z" horiz-adv-x="339" 
d="M309 1h-275v48l183 258h-172v60h259v-54l-180 -253h185v-59z" />
  </font>
</defs>
</svg>
